<?xml version="1.0" standalone="no"?>
<!DOCTYPE svg PUBLIC "-//W3C//DTD SVG 1.1//EN" "http://www.w3.org/Graphics/SVG/1.1/DTD/svg11.dtd" >
<svg xmlns="http://www.w3.org/2000/svg">
<metadata></metadata>
<defs>
<font id="miruploaded_file" horiz-adv-x="1004" >
<font-face units-per-em="2000" ascent="1525" descent="-475" />
<missing-glyph horiz-adv-x="498" />
<glyph unicode="ff" horiz-adv-x="1156" d="M1141 1388q10 -4 10 -14l-12 -79q-2 -8 -8 -8q-5 0 -13 2q-59 13 -96 13q-79 0 -117 -42t-38 -141v-193h245q17 0 17 -17v-79q0 -16 -17 -16h-245v-798q0 -7 -5.5 -11.5t-11.5 -4.5h-101q-17 0 -17 16v798h-395v-798q0 -7 -5.5 -11.5t-11.5 -4.5h-101q-17 0 -17 16v798 h-147q-7 0 -12 5t-5 11v79q0 17 17 17h147v193q0 151 61 222.5t190 71.5q73 0 158 -25q10 -4 10 -14l-12 -79q-2 -8 -8 -8q-5 0 -13 2q-59 13 -96 13q-79 0 -117 -42t-38 -141v-193h395v193q0 151 61 222.5t190 71.5q73 0 158 -25z" />
<glyph unicode="fi" horiz-adv-x="1045" d="M698 1208q0 38 26.5 64.5t64.5 26.5q39 0 65.5 -26.5t26.5 -64.5t-26.5 -64.5t-65.5 -26.5q-38 0 -64.5 26.5t-26.5 64.5zM720 9v805h-383v-798q0 -7 -5.5 -11.5t-11.5 -4.5h-101q-17 0 -17 16v798h-147q-7 0 -12 5t-5 11v79q0 17 17 17h147v193q0 151 61 222.5t190 71.5 q73 0 158 -25q10 -4 10 -14l-12 -79q-2 -8 -8 -8q-5 0 -13 2q-59 13 -96 13q-79 0 -117 -42t-38 -141v-193h502q16 0 16 -20v-792l113 -27q17 -3 17 -16v-46q0 -14 -17 -17l-231 -17q-15 0 -17 18z" />
<glyph unicode="fl" horiz-adv-x="1104" d="M701 1301h-199q-81 0 -123 -42t-42 -140v-193h245q17 0 17 -17v-79q0 -16 -17 -16h-245v-798q0 -7 -5.5 -11.5t-11.5 -4.5h-101q-17 0 -17 16v798h-147q-7 0 -12 5t-5 11v79q0 17 17 17h147v193q0 150 65.5 221t195.5 71h335q56 0 56 -49v-1092q0 -183 153 -183 q21 0 66 6q9 0 10 -11l11 -81q0 -11 -12 -13q-62 -12 -114 -12q-127 0 -188.5 73t-61.5 221v1009q0 22 -17 22z" />
<glyph unicode="ffi" horiz-adv-x="1555" d="M1208 1208q0 38 26.5 64.5t64.5 26.5q39 0 65.5 -26.5t26.5 -64.5t-26.5 -64.5t-65.5 -26.5q-38 0 -64.5 26.5t-26.5 64.5zM1230 9v805h-373v-798q0 -7 -5.5 -11.5t-11.5 -4.5h-101q-17 0 -17 16v798h-385v-798q0 -7 -5.5 -11.5t-11.5 -4.5h-101q-17 0 -17 16v798h-147 q-7 0 -12 5t-5 11v79q0 17 17 17h147v193q0 151 61 222.5t190 71.5q73 0 158 -25q10 -4 10 -14l-12 -79q-2 -8 -8 -8q-5 0 -13 2q-59 13 -96 13q-79 0 -117 -42t-38 -141v-193h385v193q0 151 61 222.5t190 71.5q73 0 158 -25q10 -4 10 -14l-12 -79q-2 -8 -8 -8q-5 0 -13 2 q-59 13 -96 13q-79 0 -117 -42t-38 -141v-193h492q16 0 16 -20v-792l113 -27q17 -3 17 -16v-46q0 -14 -17 -17l-231 -17q-17 0 -17 18z" />
<glyph unicode="ffl" horiz-adv-x="1600" d="M1197 1294h-195q-80 0 -117.5 -38.5t-37.5 -136.5v-193h245q17 0 17 -17v-79q0 -16 -17 -16h-245v-798q0 -7 -5.5 -11.5t-11.5 -4.5h-101q-17 0 -17 16v798h-375v-798q0 -7 -5.5 -11.5t-11.5 -4.5h-101q-17 0 -17 16v798h-147q-7 0 -12 5t-5 11v79q0 17 17 17h147v193 q0 151 61 222.5t190 71.5q73 0 158 -25q10 -4 10 -14l-12 -79q-2 -8 -8 -8q-5 0 -13 2q-59 13 -96 13q-79 0 -117 -42t-38 -141v-193h375v193q0 150 61 218t190 68h331q56 0 56 -49v-1086q0 -183 153 -183q21 0 66 6q9 0 10 -11l11 -81q0 -11 -12 -13q-62 -12 -114 -12 q-127 0 -188.5 73t-61.5 221v1002q0 22 -17 22z" />
<glyph unicode="fj" horiz-adv-x="1010" d="M346 926h491q17 0 17 -19v-1022q0 -142 -70 -230q-66 -85 -256 -94q-14 0 -15 13l-8 74q0 17 30 19q184 16 184 212v935h-373v-798q0 -7 -5.5 -11.5t-11.5 -4.5h-101q-17 0 -17 16v798h-147q-7 0 -12 5t-5 11v79q0 17 17 17h147v193q0 151 61 222.5t190 71.5 q73 0 158 -25q10 -3 10 -14l-12 -79q-2 -8 -8 -8q-5 0 -13 2q-59 13 -96 13q-79 0 -117 -42t-38 -141v-193zM700 1209q0 38 26.5 64.5t64.5 26.5q39 0 65.5 -26.5t26.5 -64.5t-26.5 -64.5t-65.5 -26.5q-38 0 -64.5 26.5t-26.5 64.5z" />
<glyph unicode="ffj" horiz-adv-x="1510" d="M620 1388q10 -4 10 -14l-12 -79q-2 -8 -8 -8q-5 0 -13 2q-59 13 -96 13q-79 0 -117 -42t-38 -141v-193h355v193q0 151 61 222.5t190 71.5q73 0 158 -25q10 -4 10 -14l-12 -79q-2 -8 -8 -8q-5 0 -13 2q-59 13 -96 13q-79 0 -117 -42t-38 -141v-193h503q17 0 17 -19v-1022 q0 -142 -70 -230q-66 -85 -256 -94q-14 0 -15 13l-8 74q0 17 30 19q184 16 184 212v935h-385v-798q0 -7 -5.5 -11.5t-11.5 -4.5h-101q-17 0 -17 16v798h-355v-798q0 -7 -5.5 -11.5t-11.5 -4.5h-101q-17 0 -17 16v798h-147q-7 0 -12 5t-5 11v79q0 17 17 17h147v193 q0 151 61 222.5t190 71.5q73 0 158 -25zM1200 1209q0 38 26.5 64.5t64.5 26.5q39 0 65.5 -26.5t26.5 -64.5t-26.5 -64.5t-65.5 -26.5q-38 0 -64.5 26.5t-26.5 64.5z" />
<glyph unicode="&#xd;" horiz-adv-x="666" />
<glyph unicode=" "  horiz-adv-x="498" />
<glyph unicode="&#x09;" horiz-adv-x="498" />
<glyph unicode="&#xa0;" horiz-adv-x="498" />
<glyph unicode="!" horiz-adv-x="498" d="M145 95q0 43 30.5 73.5t73.5 30.5t73.5 -30.5t30.5 -73.5t-30.5 -73.5t-73.5 -30.5t-73.5 30.5t-30.5 73.5zM337 1244l-27 -854q0 -20 -16 -20h-76q-18 0 -18 20l-16 489q-7 217 -9.5 284t-2.5 86q0 17 26 17h113q15 0 20.5 -4t5.5 -18z" />
<glyph unicode="&#x22;" horiz-adv-x="551" d="M93 988l-33 398q0 14 14 14h139q6 0 9.5 -3.5t3.5 -6.5l1 -4q-24 -275 -43 -398q-2 -14 -16 -14h-59q-6 0 -10 3.5t-5 6.5zM357 988l-33 398q0 14 14 14h139q6 0 9.5 -3.5t3.5 -6.5l1 -4q-24 -275 -43 -398q-2 -14 -16 -14h-59q-6 0 -10 3.5t-5 6.5z" />
<glyph unicode="#" horiz-adv-x="1045" d="M882 361h-161l-46 -335q-3 -26 -26 -26h-68q-21 0 -21 20l46 341h-241l-46 -335q-3 -26 -26 -26h-68q-21 0 -21 20l46 341h-148q-20 0 -20 15v71q0 15 20 15h162l47 342h-148q-20 0 -20 15v72q0 15 20 15h162l47 340q3 20 22 20h67q25 0 25 -22l-46 -338h241l47 340 q3 20 22 20h67q17 0 21 -5.5t4 -16.5l-46 -338h147q20 0 20 -15v-74q0 -13 -20 -13h-161l-47 -342h147q20 0 20 -15v-73q0 -13 -20 -13zM426 804l-47 -342h241l47 342h-241z" />
<glyph unicode="$" horiz-adv-x="1014" d="M445 720v458q-111 -17 -162.5 -72.5t-51.5 -163.5q0 -149 214 -222zM547 562v-468q102 18 165.5 73.5t63.5 154.5q0 45 -18 83t-51.5 67t-71.5 49.5t-88 40.5zM188 249l39 -116q32 -15 93 -29.5t126 -15.5v500q-48 18 -75 29t-69.5 31.5t-67.5 38t-55.5 45t-46.5 56 t-27.5 67.5t-11.5 83q0 83 27 147.5t76 105t111 63.5t138 30v126q0 18 4.5 23t21.5 5h50q17 0 21.5 -5t4.5 -21v-126q126 -3 294 -41q16 -4 16 -21v-183q0 -16 -17 -16h-48q-10 0 -16 16l-39 116q-120 23 -190 24v-485l75 -30q27 -10 73 -32t72.5 -40t59.5 -47.5t51 -59.5 t30.5 -71t12.5 -88q0 -84 -28.5 -149.5t-80 -106.5t-118 -64t-147.5 -28v-142q0 -16 -4.5 -21t-21.5 -5h-51q-16 0 -20.5 5t-4.5 23v138q-89 3 -168 19t-108 27.5t-46 20.5q-16 9 -16 21v183q0 16 17 16h48q10 0 16 -16z" />
<glyph unicode="%" horiz-adv-x="1518" d="M1149 -18q-138 0 -221 86.5t-83 245.5q0 148 81.5 238t222.5 90q138 0 221 -90.5t83 -237.5q0 -151 -81 -241.5t-223 -90.5zM353 630q-138 0 -221 86.5t-83 245.5q0 148 81.5 238t222.5 90q138 0 221 -90.5t83 -237.5q0 -151 -81 -241.5t-223 -90.5zM388 55l586 1195 q5 11 9 13.5t14 2.5h91q16 0 16 -12q0 -4 -11 -28l-590 -1210q-4 -8 -7.5 -11.5t-7.5 -4t-13 -0.5h-89q-15 0 -15 14q0 7 17 41zM349 1185q-82 0 -126.5 -62t-44.5 -169q0 -105 44.5 -166t126.5 -61q88 0 132.5 60.5t44.5 166.5q0 107 -45.5 169t-131.5 62zM1145 544 q-85 0 -131.5 -64t-46.5 -174q0 -108 46.5 -171t131.5 -63q91 0 137.5 62.5t46.5 171.5q0 110 -47.5 174t-136.5 64z" />
<glyph unicode="&#x26;" horiz-adv-x="1250" d="M944 26l-175 190q-119 -129 -206.5 -183t-193.5 -54q-132 0 -217.5 85.5t-85.5 222.5q0 157 268 401q-4 4 -5 6q-43 46 -65 71.5t-56 71.5t-50 89t-16 86q0 129 82 201.5t210 72.5q117 0 198 -71.5t81 -172.5q0 -95 -41.5 -169t-163.5 -189l263 -291l186 224q26 31 69 31 h117q17 0 21.5 -5t4.5 -21v-58q0 -16 -4.5 -21t-21.5 -5h-63q-40 0 -63 -28l-168 -202l160 -176q23 -24 62 -24h72q17 0 21.5 -5t4.5 -21v-58q0 -16 -4.5 -21t-21.5 -5h-126q-45 0 -73 28zM382 91q56 0 124 44.5t183 166.5l-272 298q-44 -39 -74.5 -69t-65 -72t-52.5 -85 t-18 -84q0 -85 50 -142t125 -57zM280 1023q0 -50 32 -102.5t118 -149.5q69 60 109 117.5t40 124.5q0 78 -41 123.5t-104 45.5q-69 0 -111.5 -43t-42.5 -116z" />
<glyph unicode="'" horiz-adv-x="287" d="M93 988l-33 398q0 14 14 14h139q14 0 14 -14q-24 -275 -43 -398q-2 -14 -16 -14h-59q-6 0 -10 3.5t-5 6.5z" />
<glyph unicode="(" horiz-adv-x="522" d="M71 646q0 257 87.5 501.5t254.5 441.5q5 6 12 6q5 0 12 -4l68 -44q12 -7 12 -13t-4 -11q-153 -190 -229.5 -414t-76.5 -463t76.5 -463t229.5 -414q4 -5 4 -11t-12 -13l-68 -44q-8 -4 -12 -4q-7 0 -12 6q-167 197 -254.5 441.5t-87.5 501.5z" />
<glyph unicode=")" horiz-adv-x="522" d="M451 646q0 -257 -87.5 -501.5t-254.5 -441.5q-6 -6 -12 -6q-4 0 -12 4l-68 44q-12 7 -12 13t4 11q153 190 229.5 414t76.5 463t-76.5 463t-229.5 414q-4 5 -4 11t12 13l68 44q7 4 12 4q7 0 12 -6q167 -197 254.5 -441.5t87.5 -501.5z" />
<glyph unicode="*" horiz-adv-x="669" d="M413 1105l3 -2l112 -157q9 -13 9 -19q0 -8 -13 -17l-53 -39q-3 -2 -8 -2q-9 0 -19 16l-107 161h-4l-104 -159q-9 -15 -22 -15q-9 0 -20 8l-40 30q-13 10 -13 17q0 11 61 92t61 85l-3 2l-179 60q-14 2 -14 18q0 4 2 10l17 55q7 16 17 16q6 0 15 -3l175 -70l4 -2l-7 192 q0 10 4.5 14.5t17.5 4.5h60q11 0 18 -4.5t6 -16.5l-8 -191l5 3q2 1 86 34t90 36q9 3 13 3q10 0 16 -18q18 -56 18 -63q0 -13 -14 -18l-103 -34q-57 -20 -79 -27z" />
<glyph unicode="+" horiz-adv-x="824" d="M344 600v271q0 12 12 12h104q14 0 14 -12v-271h273q12 0 12 -14v-84q0 -16 -12 -16h-273v-285q0 -12 -14 -12h-100q-16 0 -16 12v285h-267q-12 0 -12 12v88q0 14 13 14h266z" />
<glyph unicode="," horiz-adv-x="364" d="M314 187l-153 -416q-6 -15 -15 -15h-86q-11 0 -11 12q0 4 7 44l28 152l41 223q3 15 19 15h156q15 0 15 -10q0 -2 -1 -5z" />
<glyph unicode="-" horiz-adv-x="614" d="M507 476h-400q-12 0 -12 12v102q0 14 12 14h400q12 0 12 -14v-98q0 -16 -12 -16z" />
<glyph unicode="." horiz-adv-x="350" d="M71 93q0 43 30.5 73.5t73.5 30.5t73.5 -30.5t30.5 -73.5t-30.5 -73.5t-73.5 -30.5t-73.5 30.5t-30.5 73.5z" />
<glyph unicode="/" horiz-adv-x="685" d="M29 -254l574 1813q3 10 8 13t16 3h94q15 0 15 -11q0 -2 -3 -13l-575 -1815q-2 -6 -3.5 -9t-4.5 -5t-6 -2h-10h-93q-15 0 -15 13q0 4 3 13z" />
<glyph unicode="0" horiz-adv-x="1094" d="M85 622q0 196 51 342.5t158.5 232t260.5 85.5q97 0 174.5 -33.5t129 -91.5t86 -139.5t49.5 -174t15 -199.5q0 -116 -17 -215.5t-54 -183t-91.5 -142.5t-134 -92t-177.5 -33q-91 0 -165.5 31t-127 87.5t-88 137t-52.5 177.5t-17 211zM549 1165q-87 0 -152 -42 t-103.5 -116.5t-57.5 -168.5t-19 -207q0 -164 31.5 -280.5t104.5 -186t186 -69.5q118 0 195.5 72t110 191t32.5 283q0 105 -17 195t-53.5 166t-102.5 119.5t-155 43.5z" />
<glyph unicode="1" horiz-adv-x="684" d="M85 1075q-13 0 -14 11l-6 78q0 18 14 21q117 26 350 97q8 0 8 -12v-1168l116 -20q18 -3 22 -7.5t4 -20.5v-28q0 -16 -4.5 -21t-21.5 -5h-371q-16 0 -21 5t-5 21v28q0 16 4 20.5t22 7.5l117 20v1024q-130 -39 -214 -51z" />
<glyph unicode="2" horiz-adv-x="1032" d="M106 1010q30 116 130.5 195t255.5 79q188 0 295.5 -100.5t107.5 -256.5q0 -66 -19.5 -123.5t-58.5 -106.5t-81 -87t-103 -82l-154 -111q-105 -76 -167.5 -162.5t-62.5 -144.5h539l42 123q6 16 16 16h48q17 0 17 -16v-213q0 -7 -5 -13.5t-12 -6.5h-788q-11 0 -11 9 q4 283 318 511l154 112q104 75 152 140t48 153q0 105 -73 173.5t-206 68.5q-105 0 -179 -53.5t-100 -156.5q-4 -16 -11 -16q-3 0 -6 1l-73 18q-20 5 -20 18q0 4 7 32z" />
<glyph unicode="3" horiz-adv-x="969" d="M157 101q57 -11 160 -11q187 0 303 88.5t116 222.5q0 62 -28.5 107.5t-72 67t-81.5 30.5t-72 9q-103 0 -188 -8q-4 0 -7.5 6t-3.5 14q0 7 4 14l357 515h-424l-46 -126q-6 -16 -16 -16h-48q-17 0 -17 16v213q0 8 4.5 14.5t12.5 6.5h728q13 0 13 -14q0 -8 -5 -14l-323 -466 q-27 -39 -27 -41q39 0 82 -7.5t98 -29.5t97 -56t71.5 -94.5t29.5 -138.5q0 -185 -147 -306t-389 -121q-55 0 -110.5 5t-83.5 10l-28 5q-11 4 -11 14l8 71q3 23 19 23q7 0 25 -3z" />
<glyph unicode="4" horiz-adv-x="1031" d="M114 419l434 827q9 16 19 16h108q17 0 17 -11q0 -3 -3 -9l-439 -833h399v241q0 16 16 16h103q16 0 16 -16v-241h139q16 0 16 -16v-79q0 -16 -16 -16h-140v-282q0 -16 -16 -16h-103q-16 0 -16 16v282h-524q-18 0 -18 18v77q0 6 2 12.5t4 10.5z" />
<glyph unicode="5" horiz-adv-x="930" d="M160 640l45 606q2 20 16 20h555q16 0 16 -17v-77q0 -14 -18 -14h-449l-32 -414q56 8 117 8q60 0 114 -8.5t109 -31.5t94 -58.5t64 -95.5t25 -137q0 -110 -43 -197t-118 -140.5t-170.5 -81.5t-205.5 -28q-82 0 -160 13q-13 2 -13 18l12 78q3 14 19 14q67 -8 121 -8 q87 0 161.5 20t132.5 59t91 103.5t33 147.5q0 51 -17.5 91t-44.5 64t-65.5 39.5t-76.5 21t-81 5.5q-33 0 -221 -15q-10 0 -10 15z" />
<glyph unicode="6" horiz-adv-x="1060" d="M529 106q110 0 189 73t79 185q0 141 -64 212.5t-186 71.5q-113 0 -185.5 -79.5t-72.5 -200.5q0 -107 67.5 -184.5t172.5 -77.5zM243 116q-94 124 -94 334q0 127 35 272q41 163 129 287q139 197 401 280q9 3 13 3q3 0 5 -2t2 -4l1 -2l24 -87q0 -8 -8 -12 q-205 -78 -318.5 -217t-143.5 -350q112 146 282 146q158 0 260 -106t102 -278q0 -129 -64 -229q-52 -81 -137.5 -127t-190.5 -46q-193 0 -298 138z" />
<glyph unicode="7" horiz-adv-x="867" d="M363 16q-4 -16 -17 -16h-109q-16 0 -16 16q139 459 465 1139h-510l-45 -124q-6 -16 -16 -16h-48q-17 0 -17 16v213q0 8 4.5 14.5t11.5 6.5h750q7 0 11 -5t5 -10v-5v-98q-322 -614 -469 -1131z" />
<glyph unicode="8" horiz-adv-x="1094" d="M545 -22q-184 0 -301 91.5t-117 258.5q0 246 290 348q-126 56 -179 126.5t-53 174.5q0 141 105 224t259 83q94 0 175.5 -31t136 -99t54.5 -161q0 -105 -53 -178.5t-173 -136.5q278 -126 278 -348q0 -110 -57.5 -191.5t-152 -121t-212.5 -39.5zM785 961q0 101 -64 157.5 t-170 56.5q-104 0 -171 -55t-67 -157q0 -60 39 -110.5t90.5 -78.5t112.5 -45q99 27 164.5 89t65.5 143zM265 336q0 -118 73.5 -182t198.5 -64q126 0 207 61.5t81 174.5q0 56 -24 105t-65 85t-88.5 61t-100.5 41q-119 -30 -200.5 -103.5t-81.5 -178.5z" />
<glyph unicode="9" horiz-adv-x="1057" d="M520 562q127 0 199.5 86.5t72.5 221.5q0 115 -77 202.5t-195 87.5q-123 0 -198 -86.5t-75 -210.5q0 -130 70 -214.5t203 -86.5zM225 94q32 -4 85 -4q214 0 350 148q111 138 132 350l2 20q-6 -6 -8 -10q-106 -147 -297 -147q-174 0 -273.5 117.5t-99.5 299.5 q0 181 111 298.5t297 117.5q101 0 179.5 -38t127.5 -104.5t74 -153t25 -188.5v-6q-3 -818 -620 -818q-50 0 -103 7q-13 2 -13 14q0 3 12 83q3 14 19 14z" />
<glyph unicode=":" horiz-adv-x="477" d="M133 104q0 44 30.5 74t73.5 30t73.5 -30t30.5 -74t-30.5 -74t-73.5 -30t-73.5 30t-30.5 74zM136 798q0 44 30 74t74 30t74 -30t30 -74t-30 -74t-74 -30t-74 30t-30 74z" />
<glyph unicode=";" horiz-adv-x="448" d="M141 798q0 44 30.5 74t73.5 30t73.5 -30t30.5 -74t-30.5 -74t-73.5 -30t-73.5 30t-30.5 74zM331 187l-153 -416q-6 -15 -15 -15h-86q-11 0 -11 12q0 4 8 44l28 152l40 223q3 15 19 15h156q15 0 15 -10q0 -2 -1 -5z" />
<glyph unicode="&#x3c;" horiz-adv-x="837" d="M714 118l-635 352q-8 4 -8 19v96q0 15 9 19l634 352q4 3 10 3q9 0 13 -10l38 -75q2 -4 2 -7q0 -9 -9 -13l-568 -317l568 -317q10 -5 10 -11q0 -3 -3 -9l-38 -75q-6 -10 -13 -10q-4 0 -10 3z" />
<glyph unicode="=" horiz-adv-x="826" d="M743 455q12 0 12 -14v-86q0 -16 -12 -16h-660q-12 0 -12 12v90q0 14 12 14h660zM743 746q12 0 12 -14v-86q0 -16 -12 -16h-660q-12 0 -12 12v90q0 14 12 14h660z" />
<glyph unicode="&#x3e;" horiz-adv-x="837" d="M758 470l-635 -352q-6 -3 -10 -3q-7 0 -13 10l-38 75q-3 6 -3 9q0 6 10 11l568 317l-568 317q-9 4 -9 12q0 4 2 8l38 75q5 10 13 10q5 0 10 -3l634 -352q9 -4 9 -19v-96q0 -15 -8 -19z" />
<glyph unicode="?" horiz-adv-x="774" d="M176 1160l-27 -100q-5 -17 -16 -17h-43q-15 0 -17 17l-13 169q0 13 11 16l37 10q128 35 242 35q50 0 97.5 -9t95 -31t82 -56t56.5 -88t22 -122q0 -52 -13.5 -98.5t-45 -94t-52 -72.5t-66.5 -77q-106 -120 -106 -250q0 -20 -16 -20h-98q-18 0 -18 20v9q0 86 31.5 160 t103.5 156q44 49 69.5 82.5t47.5 82.5t22 96q0 94 -56.5 147t-161.5 53q-74 0 -168 -18zM252 93q0 43 30 73.5t74 30.5t74 -30.5t30 -73.5t-30 -73.5t-74 -30.5t-74 30.5t-30 73.5z" />
<glyph unicode="@" horiz-adv-x="1709" d="M1016 282l40 442q-73 26 -126 26q-71 0 -130 -42.5t-95.5 -109.5t-57 -142t-21.5 -146q0 -42 5.5 -74t20 -62.5t44.5 -47t74 -16.5q64 0 134.5 47.5t111.5 124.5zM870 -364q-176 4 -313 51.5t-221.5 120.5t-139 173t-75.5 199.5t-21 209.5q0 174 59 325.5t162.5 259.5 t253 169.5t323.5 61.5q339 0 528.5 -177.5t189.5 -486.5q0 -191 -77.5 -326t-216.5 -188q-79 -30 -146 -30q-145 0 -166 146q-120 -140 -280 -140q-236 0 -236 314q0 69 17 142t52.5 144.5t85.5 128t122.5 91t156.5 34.5q55 0 112 -15t146 -47l-47 -538q-3 -30 -3 -58 q0 -95 59 -95q48 0 92 22q101 49 153.5 154.5t52.5 249.5q0 78 -13 147t-41 133.5t-75 116t-111 90t-153.5 59t-197.5 20.5q-195 0 -350.5 -92.5t-240 -248t-84.5 -342.5q0 -112 20.5 -207.5t68.5 -181t120.5 -147.5t182.5 -101.5t250 -47.5q16 -1 16 -16v-61q0 -16 -15 -16 z" />
<glyph unicode="A" horiz-adv-x="1118" d="M788 454l-217 711l-236 -711h453zM439 1158l-87 28q-16 6 -16 16v48q0 6 5 11t11 5h297q17 0 22 -16l396 -1228q2 -6 2 -9q0 -5 -5 -9t-10 -4h-118q-14 0 -18 16l-98 328h-519l-103 -328q-4 -16 -18 -16h-116q-16 0 -16 12q0 3 3 12z" />
<glyph unicode="B" horiz-adv-x="1111" d="M537 1162l-203 -2v-430h185q116 0 206 65.5t90 160.5q0 49 -14.5 86t-38.5 59.5t-60.5 36.5t-75.5 19t-89 5zM511 618h-178v-514q3 0 19 -2t34 -3.5t53.5 -3t75.5 -1.5q72 0 131 14t107.5 44.5t76 84.5t27.5 127q0 116 -91.5 185t-254.5 69zM87 1266l261 5q156 3 165 3 q58 0 104 -3.5t101 -13.5t95.5 -31t75.5 -52.5t53.5 -81.5t18.5 -115q0 -107 -60 -181t-167 -104q-24 -6 -27 -6l26 -6q135 -42 204.5 -123.5t69.5 -212.5q0 -174 -126 -268t-367 -94q-82 0 -155.5 4.5t-106.5 9.5l-33 4q-11 2 -15 3.5t-7.5 6.5t-3.5 16v1115l-106 44 q-16 6 -16 16v48q0 17 16 17z" />
<glyph unicode="C" horiz-adv-x="1038" d="M701 87q60 0 120.5 11.5t90.5 22.5l31 11q6 2 8 2q9 0 14 -12l22 -64q2 -6 2 -8q0 -6 -10 -12q-4 -3 -12 -7t-35.5 -14.5t-58 -19t-79 -15t-99.5 -6.5q-291 0 -446.5 166t-155.5 484q0 141 42.5 263t119.5 211t190 139.5t248 50.5q76 0 145.5 -14t101.5 -28l31 -14 q16 -8 16 -21v-180q0 -16 -17 -16h-48q-10 0 -16 16l-46 123q-78 24 -154 24q-140 0 -247.5 -74t-162.5 -196t-55 -272q0 -259 113 -405t347 -146z" />
<glyph unicode="D" horiz-adv-x="1205" d="M333 1156l2 -1057q47 -7 129 -7q222 0 361 150t139 389q0 60 -5 110.5t-18.5 106t-36 99t-60.5 84t-89 67t-123.5 42.5t-161.5 16h-137zM193 23v1118l-106 44q-16 6 -16 16v48q0 17 16 17h395q630 0 630 -631q0 -295 -173.5 -473.5t-470.5 -178.5q-69 0 -131.5 3.5 t-90.5 6.5l-27 3q-8 0 -17 7t-9 20z" />
<glyph unicode="E" horiz-adv-x="966" d="M87 1266h793q16 0 21 -5t5 -21v-58q0 -16 -5 -21t-21 -5h-546v-424h400q16 0 21 -5t5 -21v-58q0 -16 -5 -21t-21 -5h-400v-512h546q16 0 21 -5t5 -21v-58q0 -16 -5 -21t-21 -5h-661q-17 0 -21.5 5t-4.5 21v1115l-106 44q-16 6 -16 16v48q0 17 16 17z" />
<glyph unicode="F" horiz-adv-x="866" d="M830 1156h-496v-452h390q16 0 16 -17v-78q0 -15 -14 -15h-392v-568q0 -16 -5 -21t-21 -5h-89q-17 0 -21.5 5t-4.5 23v1113l-106 44q-16 6 -16 16v48q0 17 16 17h743q16 0 21 -5t5 -21v-58q0 -16 -5 -21t-21 -5z" />
<glyph unicode="G" horiz-adv-x="1161" d="M940 1031l-44 119l-34 10q-21 6 -31 8.5t-27 6t-36 4.5t-45 1q-116 0 -209 -44t-152 -120.5t-90 -177t-31 -215.5q0 -114 24.5 -208.5t75 -169t137 -116.5t202.5 -42q151 0 224 36v377h-204q-16 0 -16 16v78q0 6 5 11t11 5h329q6 0 11 -5t5 -11v-492q0 -18 -6.5 -30.5 t-13 -17t-19.5 -11.5q-128 -67 -312 -67q-157 0 -274.5 48.5t-187.5 136.5t-104.5 202.5t-34.5 255.5q0 196 74.5 347t218.5 237.5t339 86.5q76 0 146 -14t102 -28l32 -15q16 -7 16 -22v-180q0 -16 -17 -16h-48q-10 0 -16 16z" />
<glyph unicode="H" horiz-adv-x="1231" d="M199 1151l-112 34q-16 4 -16 16v48q0 17 16 17h225q16 0 22 -6t6 -23v-586h590v589q0 16 5 21t21 5h89q17 0 21.5 -5t4.5 -21v-1214q0 -16 -4.5 -21t-21.5 -5h-89q-16 0 -21 5t-5 21v514h-590v-514q0 -16 -5 -21t-21 -5h-89q-17 0 -21.5 5t-4.5 21v1125z" />
<glyph unicode="I" horiz-adv-x="608" d="M478 1184l-103 -20v-1062l103 -20q18 -3 22 -7.5t4 -20.5v-28q0 -16 -5 -21t-21 -5h-348q-16 0 -21 5t-5 21v28q0 16 4 20.5t22 7.5l104 20v1062l-104 20q-18 3 -22 7.5t-4 20.5v28q0 16 5 21t21 5h348q16 0 21 -5t5 -21v-28q0 -16 -4.5 -20.5t-21.5 -7.5z" />
<glyph unicode="J" horiz-adv-x="634" d="M344 1156h-318q-6 0 -11 5t-5 11v78q0 6 5 11t11 5h443q6 0 11 -5t5 -11v-1233q0 -128 -28 -191q-27 -61 -77 -88t-132 -27q-76 0 -165 32q-18 6 -18 20q0 1 2 12.5t5.5 30t5.5 31.5q2 16 17 16q2 0 25.5 -5.5t55 -11.5t52.5 -6q33 0 56 10.5t34.5 24.5t17.5 41t7 46 t1 54v1150z" />
<glyph unicode="K" horiz-adv-x="1133" d="M615 660q64 -20 110 -70t65.5 -97t46.5 -124.5t44 -112.5q43 -92 84.5 -125t115.5 -33q17 0 21.5 -5t4.5 -21v-58q0 -16 -4.5 -21t-21.5 -5q-113 0 -179.5 32.5t-120.5 124.5q-22 36 -42 90t-33 99t-37 93t-52.5 81t-79 54.5t-118.5 21.5h-78v-558q0 -16 -4.5 -21 t-21.5 -5h-89q-17 0 -21.5 5t-4.5 23v1123l-112 34q-16 4 -16 16v48q0 17 16 17h227q16 0 21 -5t5 -22v-545h101q103 0 160 111q21 40 40.5 97.5t32 101.5t36 93t52.5 83t80.5 60.5t121.5 35.5q27 4 70 4q12 0 16.5 -4.5t4.5 -19.5v-61q0 -16 -4 -21t-17 -5q-31 0 -59 -6 q-47 -11 -82.5 -43.5t-58.5 -80t-39 -93.5l-36 -102q-19 -55 -36 -87q-37 -73 -109 -97z" />
<glyph unicode="L" horiz-adv-x="831" d="M147 128v1112q0 16 4.5 21t21.5 5h89q16 0 21 -5t5 -21v-1090q0 -24 15.5 -32t52.5 -8h349l35 94q6 16 16 16h48q17 0 17 -16v-183q0 -21 -16 -21h-496q-80 0 -121 30.5t-41 97.5z" />
<glyph unicode="M" horiz-adv-x="1433" d="M409 1250l302 -687l8 -30h6q6 20 10 30l312 687q8 16 20 16h161q6 0 10.5 -5t5.5 -11q4 -65 18 -373l25 -581q11 -273 11 -276q0 -12 -5.5 -16t-20.5 -4h-91q-16 0 -20.5 4.5t-5.5 21.5l-31 1068v41h-4q-8 -27 -15 -41l-357 -774q-6 -12 -30 -12q-26 0 -32 12l-343 774 l-14 41h-4v-38l-47 -1071q-1 -17 -5.5 -21.5t-20.5 -4.5h-91q-15 0 -20.5 4.5t-5.5 18.5q0 5 74 1227q0 6 5 11t11 5h164q5 0 10 -4t7 -8z" />
<glyph unicode="N" horiz-adv-x="1275" d="M199 1151l-112 34q-16 4 -16 16v48q0 17 16 17h263q14 0 23 -16l556 -963l39 -79h6v1032q0 16 5 21t21 5h89q17 0 21.5 -5t4.5 -21v-1214q0 -16 -4.5 -21t-21.5 -5h-111q-27 0 -42 26l-548 951q-12 20 -22.5 42t-15.5 34l-4 12h-6v-1039q0 -16 -5 -21t-21 -5h-89 q-17 0 -21.5 5t-4.5 21v1125z" />
<glyph unicode="O" horiz-adv-x="1217" d="M609 -24q-52 0 -101 8t-101.5 28.5t-97 53t-85.5 84.5t-69.5 119t-45 161t-16.5 207q0 146 27.5 261.5t86.5 205t160.5 138t241.5 48.5q112 0 200 -32t146.5 -89t97 -140t55 -179.5t16.5 -212.5q0 -156 -32 -276t-82.5 -191t-120.5 -116.5t-137.5 -61.5t-142.5 -16z M608 86q368 0 368 559q0 536 -369 536q-84 0 -149 -29.5t-105.5 -78.5t-66 -120t-35.5 -145.5t-10 -162.5q0 -140 23.5 -244.5t59 -163t87 -94t97.5 -46.5t100 -11z" />
<glyph unicode="P" horiz-adv-x="1000" d="M334 1158l-1 -568h97q385 2 385 298q0 151 -84.5 211.5t-257.5 60.5zM87 1265h30q59 0 189.5 2.5t208.5 2.5q221 0 333 -93t112 -276q0 -421 -517 -421h-109v-454q0 -16 -5 -21t-21 -5h-89q-17 0 -21.5 5t-4.5 23v1112l-106 44q-16 6 -16 16v48q0 17 16 17z" />
<glyph unicode="Q" horiz-adv-x="1217" d="M609 -24q-52 0 -101 8t-101.5 28.5t-97 53t-85.5 84.5t-69.5 119t-45 161t-16.5 207q0 146 27.5 261.5t86.5 205t160.5 138t241.5 48.5q112 0 200 -32t146.5 -89t97 -140t55 -179.5t16.5 -212.5q0 -150 -28.5 -266.5t-79.5 -190t-111 -116.5t-133 -65l303 -70 q12 -3 12 -17q0 -4 -26 -87q-5 -13 -16 -13q-6 0 -21 4l-331 96q-12 3 -12 21v47q-32 -4 -72 -4zM608 86q368 0 368 559q0 536 -369 536q-84 0 -149 -29.5t-105.5 -78.5t-66 -120t-35.5 -145.5t-10 -162.5q0 -140 23.5 -244.5t59 -163t87 -94t97.5 -46.5t100 -11z" />
<glyph unicode="R" horiz-adv-x="1131" d="M506 1157l-172 1v-497h152q157 0 246 69.5t89 191.5q0 71 -25 119.5t-72 72.5t-98.5 33.5t-119.5 9.5zM1078 99q17 -2 21.5 -6t4.5 -20v-58q0 -17 -5 -22t-23 -5q-51 0 -94 12t-76 37.5t-57 52t-46.5 69.5t-36 74.5t-31.5 81.5q-42 119 -111.5 178.5t-189.5 59.5h-100 v-527q0 -16 -5 -21t-21 -5h-89q-17 0 -21.5 5t-4.5 23v1111l-106 44q-16 6 -16 16v48q0 17 16 17q9 0 80 1l171 3q99 1 174 1q454 0 454 -345q0 -110 -62 -197t-182 -126q-31 -11 -59 -11l-1 -3q36 -7 66 -27q34 -22 67 -63.5t53 -97.5q65 -178 110 -236.5t120 -63.5z" />
<glyph unicode="S" horiz-adv-x="1002" d="M181 243l32 -115q133 -35 227 -35q58 0 109.5 11t100 36t77 72.5t28.5 112.5q0 29 -8.5 55.5t-20 46t-34.5 40t-40.5 33t-51 29.5t-52.5 25l-57 26l-56 24q-137 61 -190 100q-127 93 -128 245q0 88 35 155.5t95.5 107t135.5 59t162 19.5q142 0 294 -40q16 -4 16 -21v-182 q0 -16 -15 -16h-50q-10 0 -16 16l-39 115q-100 20 -180 20q-139 0 -214 -57t-75 -169q0 -36 14.5 -67t34.5 -52t57 -44t64 -35l74 -34q129 -56 206 -100.5t120 -92t57 -92.5t14 -112q0 -93 -34.5 -161.5t-96.5 -109t-141 -59.5t-175 -19q-184 0 -354 61q-16 5 -16 21l10 183 q0 16 17 16h48q12 0 16 -16z" />
<glyph unicode="T" horiz-adv-x="962" d="M34 1266h894q18 0 18 -21l-7 -204q0 -16 -17 -16h-48q-10 0 -16 16l-34 115h-272v-1054l103 -20q18 -3 22 -7.5t4 -20.5v-28q0 -16 -4.5 -21t-21.5 -5h-348q-17 0 -21.5 5t-4.5 21v28q0 16 4 20.5t22 7.5l103 20v1054h-272l-34 -115q-6 -16 -16 -16h-48q-17 0 -17 16 l-7 204q0 21 18 21z" />
<glyph unicode="U" horiz-adv-x="1232" d="M329 432q0 -158 83 -247t227 -89q147 0 230.5 80.5t83.5 237.5v826q0 16 4.5 21t21.5 5h89q16 0 21 -5t5 -21v-792q0 -223 -121.5 -347.5t-333.5 -124.5q-211 0 -331 123.5t-120 350.5v701l-112 34q-16 4 -16 16v48q0 17 16 17h225q16 0 22 -6t6 -23v-805z" />
<glyph unicode="V" horiz-adv-x="1143" d="M615 132h6q168 405 337 1115q4 18 24 18h115q17 0 17 -14q0 -4 -3 -16q-59 -275 -178.5 -627t-235.5 -592q-8 -16 -23 -16h-127q-16 0 -22 16q-3 7 -68 196l-160 471l-154 468l-111 34q-16 4 -16 16v48q0 17 16 17h217q19 0 23 -16l330 -1057q10 -41 13 -61z" />
<glyph unicode="W" horiz-adv-x="1728" d="M958 1250q210 -861 247 -1082l6 -36h6q168 405 337 1115q4 18 24 18h115q17 0 17 -15q0 -3 -3 -15q-59 -275 -178.5 -627t-235.5 -592q-8 -16 -23 -16h-130q-20 0 -24 16l-200 836l-5 20q0 -33 -35 -164q-18 -66 -204 -692q-5 -16 -23 -16h-141q-19 0 -24 16l-341 1135 l-111 34q-16 4 -16 16v48q0 17 16 17h216q15 0 19 -16l305 -1082q5 -20 9 -38h4q5 19 74 253l117 406q49 171 79 288l-23 93l-17 65q-6 20 -6 22q0 9 17 9h116q11 0 16 -16z" />
<glyph unicode="X" horiz-adv-x="1143" d="M627 760l313 488q11 18 32 18h116q18 0 18 -9q0 -5 -7 -15l-410 -616l404 -604q5 -7 5 -13q0 -9 -17 -9h-121q-19 0 -30 18l-308 467q-4 7 -20 39h-4q-5 -13 -22 -40q-100 -164 -234 -336q-118 -153 -264 -153q-30 0 -30 22q0 7 6 88q1 16 18 18q85 10 161 101 q104 124 218 297l61 95l-347 531l-124 38q-16 4 -16 16v48q0 17 16 17h205q18 0 30 -18l308 -490l17 -34h4q3 7 22 36z" />
<glyph unicode="Y" horiz-adv-x="1024" d="M675 208q-49 -118 -123 -172.5t-206 -54.5q-90 0 -154 19q-17 5 -17 20q0 5 18 76q4 17 20 17l18 -3q18 -4 48.5 -7t61.5 -3q56 0 97.5 18.5t70 57.5t45.5 76.5t38 98.5l20 60h-99q-177 0 -237 141q-18 42 -43 142l-60 247q-35 147 -53 217l-87 27q-16 4 -16 16v48 q0 17 16 17h209q20 0 23 -24q19 -132 65.5 -358.5t73.5 -285.5q33 -73 172 -73q14 0 39.5 0.5t34.5 0.5q118 375 201 722q3 11 8 14.5t16 3.5h110q24 0 24 -12q0 -3 -1 -7q-181 -671 -333 -1039z" />
<glyph unicode="Z" horiz-adv-x="1001" d="M210 1156l-34 -115q-6 -16 -16 -16h-48q-17 0 -17 16l-7 204q0 21 18 21h794q21 0 21 -19v-65q0 -18 -12 -37l-681 -1035h453q71 0 110.5 26t47.5 104q0 19 18 19h87q12 0 12 -16q-4 -73 -25 -122t-59 -75t-82 -36t-105 -10h-596q-18 0 -18 22v74q0 13 10 26l681 1034 h-552z" />
<glyph unicode="[" horiz-adv-x="534" d="M149 -250v1796q0 14 1 19t6.5 8t18.5 3h324q14 0 19 -1t8 -6.5t3 -18.5v-53q0 -14 -1 -19t-6.5 -8t-18.5 -3h-219v-1639h219q18 0 22 -5t4 -25v-52q0 -18 -5.5 -22t-24.5 -4h-324q-18 0 -22 5t-4 25z" />
<glyph unicode="\" horiz-adv-x="718" d="M137 1559l574 -1813q3 -10 3 -14q0 -12 -15 -12h-93q-9 0 -12.5 0.5t-6 4t-5.5 11.5l-575 1815q-3 9 -3 13q0 11 15 11h94q11 0 16 -3t8 -13z" />
<glyph unicode="]" horiz-adv-x="534" d="M385 1546v-1796q0 -14 -1 -19t-6.5 -8t-18.5 -3h-324q-14 0 -19 1t-8 6.5t-3 18.5v52q0 14 1 19t6.5 8t18.5 3h219v1639h-219q-18 0 -22 5.5t-4 24.5v53q0 18 5.5 22t24.5 4h324q18 0 22 -5t4 -25z" />
<glyph unicode="^" horiz-adv-x="794" d="M569 902l-172 358l-172 -358q-5 -10 -18 -10h-108q-7 0 -7 7q0 3 3 9l216 441q3 8 21 8h130q18 0 22 -9l215 -440q3 -6 3 -9q0 -7 -7 -7h-108q-13 0 -18 10z" />
<glyph unicode="_" horiz-adv-x="934" d="M19 -153h896q14 0 14 -14v-82q0 -14 -14 -14h-896q-14 0 -14 14v82q0 14 14 14z" />
<glyph unicode="`" horiz-adv-x="505" d="M98 1299h133q19 0 28 -4t24 -23l128 -165q13 -15 13 -23t-14 -8h-85q-23 0 -44 21l-173 158q-26 24 -26 34t16 10z" />
<glyph unicode="a" horiz-adv-x="916" d="M763 546v-447q18 -9 99 -34q10 -3 12 -5t2 -9v-41q0 -8 -12 -9l-192 -20q-11 0 -14.5 4.5t-5.5 15.5l-15 115q-143 -140 -295 -140q-131 0 -201 70.5t-70 196.5q0 52 15 93.5t40 70t62 50t75 33t87 19t90 9.5t90 2h99v93q0 117 -56.5 170t-166.5 53q-85 0 -210 -57 l-20 -9q-6 -2 -8 -2q-7 0 -9 6l-17 70q-3 11 7 18l17 10q45 27 123.5 52t152.5 25q230 0 296 -177q25 -65 25 -226zM629 214v208q-179 0 -240 -8q-84 -11 -131.5 -47.5t-47.5 -115.5q0 -73 51.5 -116.5t128.5 -43.5q60 0 125 32t114 91z" />
<glyph unicode="b" horiz-adv-x="1084" d="M846 485q0 354 -271 354q-116 0 -262 -129v-595q107 -30 199 -30q156 0 245 97.5t89 302.5zM178 1276l-106 27q-17 3 -17 18v45q0 14 17 16l225 23q16 0 16 -19v-558q156 120 303 120q373 0 373 -463q0 -244 -124.5 -376.5t-331.5 -132.5q-154 0 -355 69v1231z" />
<glyph unicode="c" horiz-adv-x="882" d="M730 719l-29 108q-69 16 -163 16q-135 0 -217.5 -105t-82.5 -275q0 -177 85.5 -276t242.5 -99q102 0 218 35q14 4 18 4q7 0 9.5 -4t4.5 -16l11 -65q0 -9 -12 -14q-124 -51 -259 -51q-224 0 -342.5 127.5t-118.5 358.5q0 218 122 352t321 134q98 0 269 -51q12 -3 12 -17 l-13 -162q-3 -17 -17 -17h-43q-11 0 -16 17z" />
<glyph unicode="d" horiz-adv-x="1084" d="M238 462q0 -74 12.5 -136t41 -118t84 -88t133.5 -32q116 0 262 129v595q-43 11 -60 14q-74 16 -139 16q-159 0 -246.5 -88.5t-87.5 -291.5zM769 1276l-105 27q-17 3 -17 18v45q0 14 17 16l224 23q16 0 16 -19v-1272l108 -27q17 -3 17 -16v-46q0 -14 -17 -17l-209 -16 q-19 0 -20 18l-10 91q-154 -122 -305 -122q-86 0 -152 27.5t-107 72.5t-67.5 109t-36.5 130.5t-10 143.5q0 242 123.5 365.5t332.5 123.5q96 0 218 -34v359z" />
<glyph unicode="e" horiz-adv-x="970" d="M95 472q0 217 114 349.5t309 132.5q179 0 270.5 -107.5t91.5 -342.5v-21q0 -34 -18 -34h-623q16 -360 349 -360q119 0 234 47q10 5 16 5q7 0 10.5 -3t5.5 -14l13 -63q0 -11 -12 -18q-140 -67 -293 -67q-217 0 -342 130t-125 366zM516 840q-115 0 -187 -75t-87 -207h499 v26q0 122 -61.5 189t-163.5 67z" />
<glyph unicode="f" horiz-adv-x="626" d="M611 1388q10 -4 10 -14l-12 -79q-2 -8 -8 -8q-5 0 -13 2q-59 13 -96 13q-79 0 -117 -42t-38 -141v-193h245q17 0 17 -17v-79q0 -16 -17 -16h-245v-798q0 -7 -5.5 -11.5t-11.5 -4.5h-101q-17 0 -17 16v798h-147q-7 0 -12 5t-5 11v79q0 17 17 17h147v193q2 152 62.5 223 t188.5 71q73 0 158 -25z" />
<glyph unicode="g" horiz-adv-x="1016" d="M238 462q0 -74 12.5 -136t41 -118t84 -88t133.5 -32q116 0 262 129v594q-123 31 -199 31q-159 0 -246.5 -88.5t-87.5 -291.5zM507 -440q-131 0 -265 36q-30 8 -42 15q-11 5 -11 15q0 4 1 9l14 61q3 15 15 15l10 -2l39 -10q104 -27 243 -27q119 0 176 51q33 29 52 76.5 t23.5 86t7.5 99.5q2 64 2 115q-152 -121 -304 -121q-86 0 -152 27.5t-107 72.5t-67.5 109t-36.5 130.5t-10 143.5q0 242 123.5 365.5t332.5 123.5q131 0 355 -76v-775q0 -88 -3 -148q-6 -107 -31.5 -183t-87.5 -132q-88 -77 -277 -77z" />
<glyph unicode="h" horiz-adv-x="1086" d="M178 1276l-106 27q-17 3 -17 18v45q0 14 17 16l225 23q16 0 16 -19v-575q94 72 175 105.5t169 33.5q123 0 193.5 -68t70.5 -193v-575l108 -27q17 -5 17 -16v-46q0 -14 -17 -17l-226 -17q-17 0 -17 18v647q0 181 -178 181q-144 0 -295 -143v-678q0 -7 -5.5 -11.5 t-11.5 -4.5h-101q-17 0 -17 16v1260z" />
<glyph unicode="i" horiz-adv-x="498" d="M183 9v806l-106 27q-17 3 -17 18v45q0 15 17 17l225 22q16 0 16 -19v-811l108 -27q17 -3 17 -16v-46q0 -15 -17 -17l-226 -17q-16 0 -17 18zM134 1208q0 38 26.5 64.5t64.5 26.5q39 0 65.5 -26.5t26.5 -64.5t-26.5 -64.5t-65.5 -26.5q-38 0 -64.5 26.5t-26.5 64.5z" />
<glyph unicode="j" horiz-adv-x="495" d="M354 -115q0 -142 -70 -230q-66 -85 -256 -94q-12 0 -15 13q-5 58 -8 72v2q0 4 1.5 7.5t3 5t5.5 3t6 2t7 1t7 0.5q184 16 184 212v936l-106 27q-17 3 -17 18v45q0 14 17 16l225 23q16 0 16 -19v-1040zM174 1209q0 38 26.5 64.5t64.5 26.5q39 0 65.5 -26.5t26.5 -64.5 t-26.5 -64.5t-65.5 -26.5q-38 0 -64.5 26.5t-26.5 64.5z" />
<glyph unicode="k" horiz-adv-x="1005" d="M938 -9q-252 0 -312 208q-17 60 -26.5 89.5t-27 69.5t-34.5 58t-44 31.5t-61 13.5h-121v-445q0 -16 -16 -16h-102q-17 0 -17 16v1260l-105 27q-17 3 -17 18v45q0 14 17 16l224 23q15 0 16 -19v-815h118q24 0 45 7t36 14.5t31 27.5l25 31q8 11 22 40.5t18.5 40t18.5 45.5 q38 91 104 129.5t183 38.5q18 0 23.5 -4t5.5 -20v-63q0 -16 -5.5 -20t-23.5 -4q-68 0 -103 -26t-62 -77q-6 -11 -20.5 -41t-24 -46.5t-26 -40.5t-39 -42t-50.5 -32q59 -25 89.5 -79.5t56.5 -153.5q26 -94 68.5 -140t135.5 -54q18 0 23.5 -4t5.5 -20v-63q0 -16 -5.5 -20 t-23.5 -4z" />
<glyph unicode="l" horiz-adv-x="564" d="M313 1386l1 -1116q0 -183 153 -183q21 0 66 6q9 0 10 -11l11 -81q0 -11 -12 -13q-62 -12 -114 -12q-127 0 -188.5 73t-61.5 221v1006l-106 27q-17 3 -17 18v45q0 14 17 16l225 23q16 0 16 -19z" />
<glyph unicode="m" horiz-adv-x="1586" d="M1286 9v638q0 76 -35.5 131.5t-111.5 55.5q-69 0 -134 -37.5t-135 -102.5v-676q0 -18 -16 -18h-102q-16 0 -16 18v629q0 186 -169 186q-28 0 -58 -10q-90 -29 -194 -127v-680q0 -16 -17 -16h-101q-17 0 -17 16v799l-108 27q-17 3 -17 18v45q0 14 17 16l206 20 q14 0 16 -19l12 -116q183 145 314 145q183 0 235 -150q182 149 322 149q117 0 180.5 -70t63.5 -195v-571l108 -27q17 -3 17 -16v-46q0 -15 -17 -17l-226 -17q-15 0 -17 18z" />
<glyph unicode="n" horiz-adv-x="1085" d="M312 694v-678q0 -16 -17 -16h-101q-17 0 -17 16v799l-105 27q-17 3 -17 18v45q0 14 17 16l203 20q15 0 16 -19l14 -116q99 75 179 109.5t172 34.5q123 0 193.5 -68t70.5 -193v-575l108 -27q17 -3 17 -16v-46q0 -15 -17 -17l-226 -17q-16 0 -17 18v647q0 181 -178 181 q-144 0 -295 -143z" />
<glyph unicode="o" horiz-adv-x="1037" d="M95 475q0 143 43.5 247.5t139.5 166t237 61.5q207 0 317 -129.5t110 -345.5q0 -121 -27.5 -213.5t-69 -145t-99.5 -85.5t-110 -44t-110 -11q-57 0 -110 11t-113.5 44t-104.5 85.5t-73.5 145t-29.5 213.5zM235 472q0 -388 290 -388q44 0 80 8.5t73 34t62.5 67t41.5 112.5 t16 166q0 366 -284 366q-151 0 -215 -96t-64 -270z" />
<glyph unicode="p" horiz-adv-x="1083" d="M845 484q0 354 -271 354q-116 0 -262 -129v-595q43 -11 60 -14q74 -16 139 -16q156 0 245 97.5t89 302.5zM176 815l-104 27q-17 5 -17 18v45q0 14 17 16l203 20q15 0 16 -19l11 -103q160 128 313 128q373 0 373 -463q0 -244 -124.5 -376.5t-331.5 -132.5q-76 0 -170 23 l-51 13v-411q0 -16 -16 -16h-103q-16 0 -16 16v1215z" />
<glyph unicode="q" horiz-adv-x="1034" d="M238 462q0 -74 12.5 -136t41 -118t84 -88t133.5 -32q116 0 262 129v595q-46 12 -59 14q-74 16 -140 16q-159 0 -246.5 -88.5t-87.5 -291.5zM907 875v-1275q0 -16 -16 -16h-102q-16 0 -16 16v501q-154 -122 -305 -122q-86 0 -152 27.5t-107 72.5t-67.5 109t-36.5 130.5 t-10 143.5q0 242 123.5 365.5t332.5 123.5q132 0 356 -76z" />
<glyph unicode="r" horiz-adv-x="654" d="M618 798q-1 0 -40 6.5t-65 6.5q-41 0 -76.5 -20t-59 -51t-38.5 -60.5t-23 -58.5v-605q0 -16 -16 -16h-102q-15 0 -17 16v799l-109 27q-17 3 -17 18v45q0 14 17 16l208 20q13 0 16 -19l17 -129q31 64 94 109.5t135 45.5q47 0 88 -10q14 -2 14 -12l-16 -116q-2 -12 -10 -12 z" />
<glyph unicode="s" horiz-adv-x="886" d="M93 43q-11 5 -11 16l16 168q2 17 17 17h44q13 0 16 -17l26 -113q98 -30 228 -30q110 0 173 44t63 124q0 62 -49.5 92t-190.5 61q-71 16 -120 33t-97 47.5t-72.5 78.5t-24.5 113q0 273 358 273q131 0 282 -55q12 -3 12 -16l-13 -160q-2 -17 -17 -17h-41q-13 0 -18 17 l-29 108q-110 25 -180 25q-108 0 -165 -39t-57 -111q0 -78 82 -118q46 -23 200 -59q61 -15 107 -33t87 -48t63 -75t22 -104q0 -77 -29.5 -134.5t-81.5 -90.5t-116 -48.5t-140 -15.5q-186 0 -344 67z" />
<glyph unicode="t" horiz-adv-x="652" d="M215 270v544h-166q-16 0 -16 16v79q0 17 16 17h166v194q0 16 17 16h101q17 0 17 -16v-194h241q16 0 16 -17v-79q0 -16 -16 -16h-241v-544q0 -183 154 -183q21 0 66 6q9 0 10 -11l11 -81q0 -11 -12 -13q-57 -12 -114 -12q-127 0 -188.5 73t-61.5 221z" />
<glyph unicode="u" horiz-adv-x="1101" d="M177 814l-105 27q-17 3 -17 18v45q0 14 17 16l224 22q16 0 16 -19v-653q0 -181 178 -181q144 0 295 143v678q0 16 17 16h102q17 0 17 -16v-796l108 -27q17 -3 17 -16v-46q0 -15 -17 -17l-208 -16q-15 0 -16 19l-13 109q-99 -75 -179 -109.5t-172 -34.5q-123 0 -193.5 68 t-70.5 193v577z" />
<glyph unicode="v" horiz-adv-x="948" d="M450 269q3 -9 14 -45.5t19 -59.5t18 -45q134 274 270 776q8 31 30 31h101q24 0 24 -14q0 -7 -16 -56q-121 -389 -224 -612q-75 -162 -116 -228q-10 -16 -29 -16h-90q-21 0 -29 18q-12 24 -29 66.5t-28 73.5l-11 30q-94 258 -205 628l-110 24q-17 3 -17 18l-2 45 q0 14 17 16q115 11 210 19q15 0 18 -10q24 -78 50 -186q27 -113 135 -473z" />
<glyph unicode="w" horiz-adv-x="1450" d="M808 909q110 -424 180 -654q29 -99 34 -127q140 301 255 769q7 29 28 29h99q25 0 25 -13q0 -7 -14 -57q-84 -309 -219 -612q-69 -157 -112 -228q-10 -16 -29 -16h-73q-23 0 -31 18q-5 11 -12 30q-106 302 -166 517q-1 4 -5 18l-7 25q-4 11 -6 16l-2 -3q0 -25 -11 -58 q-60 -179 -196 -547q-7 -16 -29 -16h-74q-22 0 -30 17l-16 37q-59 137 -108 288.5t-86.5 288.5t-53.5 185l-110 24q-17 3 -17 18l-2 45q0 14 17 16q116 11 211 19q15 0 18 -10q138 -521 182 -666q0 -2 7 -24t15 -51.5t13 -57.5q151 417 222 663l-33 115q-1 2 -1 6 q0 13 18 13h103q12 0 16 -17z" />
<glyph unicode="x" horiz-adv-x="941" d="M334 830l166 -260l236 340q11 16 24 16h130q13 0 13 -9q0 -3 -3 -9l-328 -437l307 -448q5 -7 5 -13q0 -10 -9 -10h-127q-12 0 -18 3.5t-13 14.5l-227 345l-92 -128q-29 -41 -44.5 -61t-44.5 -54.5t-53 -52.5t-57 -38.5t-70 -29t-79 -8.5q-20 0 -20 17l5 75q1 8 6.5 11 t22.5 6q26 5 50 17.5t47.5 34t37.5 36.5l38 44q72 86 176 228l-239 358l-103 24q-17 3 -17 18v45q0 16 17 16q126 13 170 17q2 0 5.5 0.5t5.5 0.5q15 0 21 -10z" />
<glyph unicode="y" horiz-adv-x="1014" d="M187 -330q48 0 90 14t76 43t61 59t53 76t42 80l38 82h-8q-80 0 -121.5 16.5t-70.5 60.5q-44 69 -100 279q-48 186 -106 436l-104 24q-17 3 -17 18v45q0 14 18 16l212 19q15 0 17 -10q8 -36 20 -103l15 -83q50 -276 111 -486q28 -96 83 -127q20 -12 70 -12q15 0 22 1 q116 281 244 777q8 31 28 31h108q22 0 22 -14q0 -8 -14 -56q-127 -457 -301 -843l-31 -69q-10 -21 -33 -67.5t-38 -70.5t-41.5 -63t-49 -60.5t-54.5 -48.5t-63.5 -40.5t-71 -23.5t-82.5 -10q-51 0 -87 11q-9 2 -9 15l12 73q2 14 13 14q26 -3 47 -3z" />
<glyph unicode="z" horiz-adv-x="867" d="M240 111h319q66 0 102.5 29t40.5 104q0 16 19 16h83q14 0 14 -16q-8 -139 -75.5 -191.5t-194.5 -52.5h-461q-17 0 -17 17v77q0 10 2 17.5t4 10.5l3 3l520 667q10 12 10 17q0 6 -15 6h-400l-29 -108q-5 -17 -16 -17h-43q-14 0 -17 17l-15 188q0 31 32 31h645q21 0 21 -20 v-79q0 -17 -10 -30l-527 -663q-10 -12 -10 -17q0 -6 15 -6z" />
<glyph unicode="{" horiz-adv-x="767" d="M95 571q-24 3 -24 23v109q0 20 24 23q55 6 115 37t75 63q23 48 23 133v346q0 158 83 220q72 52 256 52h90q25 0 25 -25v-60q0 -13 -5 -18.5t-22 -5.5h-51q-53 0 -83.5 -2t-62 -9.5t-46.5 -22t-28 -41t-17 -63.5t-4 -93v-306q0 -233 -225 -278v-9q225 -45 225 -278v-306 q0 -56 4 -93t17 -63.5t28 -41t46.5 -22t62 -9.5t83.5 -2h51q15 0 21 -4.5t6 -19.5v-60q0 -25 -25 -25h-90q-185 0 -256 52q-83 62 -83 220v346q0 85 -23 133q-15 31 -72.5 61t-117.5 39z" />
<glyph unicode="|" horiz-adv-x="413" d="M264 1561v-1828q0 -14 -14 -14h-87q-14 0 -14 14v1828q0 14 14 14h87q14 0 14 -14z" />
<glyph unicode="}" horiz-adv-x="767" d="M672 571q-60 -9 -117.5 -39t-72.5 -61q-23 -48 -23 -133v-346q0 -158 -83 -220q-72 -52 -256 -52h-94q-21 0 -21 25v60q0 15 6 19.5t21 4.5h51q53 0 83.5 2t62 9.5t46.5 22t28 41t17 63.5t4 93v306q0 233 225 278v9q-225 45 -225 278v306q0 56 -4 93t-17 63.5t-28 41 t-46.5 22t-62 9.5t-83.5 2h-51q-18 0 -22.5 5t-4.5 19v60q0 25 25 25h90q184 0 256 -52q83 -62 83 -220v-346q0 -85 23 -133q15 -32 75 -63t115 -37q24 -3 24 -23v-109q0 -20 -24 -23z" />
<glyph unicode="~" horiz-adv-x="809" d="M735 539q-30 -66 -96.5 -107.5t-131.5 -41.5q-45 0 -88.5 23.5t-81 47t-67.5 23.5q-52 0 -137 -80q-8 -8 -13 -8q-3 0 -9 6l-37 43q-2 2 -2 5q0 6 3 11q89 145 229 145q45 0 90 -23t83.5 -46t68.5 -23q49 0 132 81q10 10 15 10t18 -15q10 -11 23 -31q4 -7 4 -9 q0 -4 -3 -11z" />
<glyph unicode="&#xa1;" horiz-adv-x="498" d="M145 855q0 43 30.5 73.5t73.5 30.5t73.5 -30.5t30.5 -73.5t-30.5 -73.5t-73.5 -30.5t-73.5 30.5t-30.5 73.5zM310 560q27 -855 27 -857q0 -11 -6 -15t-20 -4h-113q-26 0 -26 17q0 19 2.5 86t9.5 283l16 490q0 20 18 20h76q16 0 16 -20z" />
<glyph unicode="&#xa2;" horiz-adv-x="887" d="M730 719l-29 108q-65 14 -126 16v-755q97 1 209 35q14 4 18 4q9 0 12 -14l13 -68q1 -4 1 -7q0 -5 -13 -10q-123 -47 -240 -51v-127q0 -15 -14 -15h-77q-14 0 -14 15v133q-183 23 -279 147.5t-96 332.5q0 198 102 328t273 153v131q0 15 14 15h77q14 0 14 -15v-128 q89 -6 233 -50q11 -4 11 -16l-13 -162q-2 -17 -17 -17h-43q-11 0 -16 17zM238 463q0 -148 60 -242t172 -122v736q-107 -26 -169.5 -125.5t-62.5 -246.5z" />
<glyph unicode="&#xa3;" horiz-adv-x="915" d="M87 407q-16 0 -16 16v76q0 18 16 18h106q3 64 3 145h-109q-16 0 -16 16v76q0 18 16 18h110q1 56 5.5 101t16.5 97.5t31.5 94t53 82.5t78.5 72q99 69 238 69q51 0 107 -15t82 -30q14 -8 14 -21v-172q0 -17 -14 -17h-52q-11 0 -17 18l-35 112q-33 14 -93 14q-88 0 -148 -42 q-41 -29 -68.5 -70t-40 -92.5t-17.5 -95.5t-6 -105h324q16 0 16 -18v-76q0 -16 -16 -16h-327v-145h327q16 0 16 -18v-76q0 -16 -16 -16h-333q-20 -188 -95 -296h398q69 0 106 28t40 105q0 14 17 14h86q14 0 14 -14q-4 -73 -23 -122t-54.5 -75t-78.5 -36.5t-103 -10.5h-543 q-6 0 -10 5t-4 11v77q0 5 2.5 9.5t10.5 11.5l7 8q72 81 92 285h-98z" />
<glyph unicode="&#xa4;" horiz-adv-x="1091" d="M1005 1055l-146 -146q49 -98 49 -226q0 -173 -69 -277l146 -146q5 -5 5 -8q0 -4 -5 -9l-59 -59q-5 -5 -9 -5q-5 0 -9 4l-145 144q-88 -63 -222 -63q-130 0 -218 58l-139 -139q-4 -4 -8 -4q-5 0 -10 5l-59 59q-5 5 -5 9q0 3 5 8l138 138q-74 104 -74 285q0 136 53 234 l-137 138q-5 5 -5 8q0 4 5 9l59 59q5 5 10 5q4 0 8 -4l127 -128q94 86 248 86q158 0 254 -93l135 135q5 5 9 5q3 0 9 -6l59 -59q5 -5 5 -8q0 -4 -5 -9zM540 382q33 0 63 7t62.5 27t55.5 52t38 87t15 127q0 132 -57.5 209.5t-177.5 77.5q-121 0 -178 -77.5t-57 -209.5 q0 -89 22 -151.5t59.5 -93t74.5 -43t80 -12.5z" />
<glyph unicode="&#xa5;" horiz-adv-x="1131" d="M950 1266h100q34 0 34 -18q0 -5 -8 -21l-309 -598h232q16 0 16 -18v-76q0 -16 -16 -16h-286q-20 -40 -43 -94v-64h329q16 0 16 -18v-76q0 -16 -16 -16h-329v-225q0 -16 -5 -21t-21 -5h-90q-16 0 -21 5t-5 21v225h-329q-16 0 -16 16v76q0 18 16 18h329v64l-41 94h-288 q-16 0 -16 16v76q0 18 16 18h236q-115 242 -271 522l-110 34q-16 4 -16 16v48q0 17 16 17h209q14 0 22 -14q167 -302 319 -684h4q45 117 137.5 324.5t169.5 348.5q15 25 35 25z" />
<glyph unicode="&#xa6;" horiz-adv-x="413" d="M264 1561v-706q0 -14 -14 -14h-87q-14 0 -14 14v706q0 14 14 14h87q14 0 14 -14zM264 439v-706q0 -14 -14 -14h-87q-14 0 -14 14v706q0 14 14 14h87q14 0 14 -14z" />
<glyph unicode="&#xa7;" horiz-adv-x="866" d="M437 423q75 -32 92 -41q95 70 95 163q0 38 -17.5 69t-52.5 55.5t-68 41t-84 36.5l-68 30q-92 -69 -92 -164q0 -35 16.5 -65t46.5 -53t60.5 -39.5t71.5 -32.5zM454 853l59 -23q20 -9 56.5 -27t57.5 -33t47.5 -39t40.5 -48.5t24.5 -59t10.5 -72.5q0 -137 -124 -227 q109 -86 109 -210q0 -132 -91 -199.5t-236 -67.5q-133 0 -283 58q-9 4 -9 21l10 141q0 12 9 12h52q10 0 11 -12l23 -90l26 -7q19 -6 27 -8.5t24 -6.5t27 -5.5t26.5 -3t30.5 -1.5q39 0 76 8.5t72.5 27t57 53t21.5 80.5q0 69 -55.5 113t-157.5 85q-46 18 -80 34.5t-74.5 43.5 t-65.5 56.5t-42.5 72t-17.5 92.5q0 125 128 220q-111 79 -111 191q0 67 27 119t73.5 84t105 48t124.5 16q114 0 254 -39q10 -2 10 -14l-10 -140q0 -13 -11 -13h-39q-11 0 -14 11l-27 86q-78 18 -145 18q-40 0 -76 -7.5t-71 -24t-56 -49t-21 -78.5q0 -65 51.5 -107.5 t145.5 -78.5z" />
<glyph unicode="&#xa8;" horiz-adv-x="632" d="M467 1073q-35 0 -59 24t-24 59t24 59t59 24t59 -24t24 -59t-24 -59t-59 -24zM165 1073q-35 0 -59 24t-24 59t24 59t59 24t59 -24t24 -59t-24 -59t-59 -24z" />
<glyph unicode="&#xa9;" horiz-adv-x="1253" d="M627 -42q-225 0 -378.5 152.5t-153.5 377.5t153.5 377.5t378.5 152.5q147 0 269 -69t192 -191t70 -270t-70 -270t-192 -191t-269 -69zM627 45q183 0 309 128.5t126 314.5t-126 314.5t-309 128.5q-184 0 -310 -128.5t-126 -314.5t126 -314.5t310 -128.5zM754 651l-18 69 q-40 12 -79 12q-91 0 -146.5 -63t-55.5 -171q0 -109 52.5 -169.5t147.5 -60.5q55 0 135 23q12 3 14 3q10 0 11 -10l7 -49q0 -7 -7 -11q-82 -32 -165 -32q-142 0 -218.5 80t-76.5 226q0 136 79 221t205 85q78 0 170 -33q8 -3 8 -11l-8 -108q-1 -11 -14 -11h-27q-11 0 -14 10z " />
<glyph unicode="&#xaa;" horiz-adv-x="599" d="M370 859v106h-19q-30 0 -47.5 -0.5t-48 -5.5t-48.5 -13.5t-32 -26.5t-14 -44q0 -35 26.5 -56t60.5 -21q74 0 122 61zM479 1082v-288q2 -1 11 -4l26 -7l27 -7q7 -2 7 -10v-34q0 -10 -11 -10l-139 -7q-12 0 -13 11l-10 64q-65 -83 -164 -83q-72 0 -118 42.5t-46 118.5 q0 55 22.5 92t64.5 54t83 23t97 6q35 0 54 -1v39q0 117 -133 117q-61 0 -136 -31q-4 -2 -6 -2q-7 0 -7 10l4 67q0 6 7 10q84 38 157 38q104 0 163.5 -51t59.5 -157z" />
<glyph unicode="&#xab;" horiz-adv-x="798" d="M210 477l200 -261q7 -10 7 -18q0 -5 -3 -11q-19 -38 -46 -74q-6 -7 -10 -7t-9 5l-249 269q-7 8 -7 34v126q0 26 7 34l249 269q6 6 10 6t9 -8q4 -7 14 -24l19 -30q9 -13 13 -20q3 -5 3 -10q0 -9 -7 -19zM520 477l200 -261q8 -12 8 -17q0 -6 -4 -12q-18 -32 -46 -74 q-4 -7 -9 -7t-10 5l-249 269q-7 8 -7 34v126q0 26 7 34l249 269q6 6 10 6t9 -8q28 -42 46 -74q3 -5 3 -11q0 -8 -7 -18z" />
<glyph unicode="&#xac;" horiz-adv-x="937" d="M77 746h763q12 0 12 -14v-382q0 -12 -14 -12h-100q-16 0 -16 12v282h-645q-12 0 -12 12v88q0 14 12 14z" />
<glyph unicode="&#xae;" horiz-adv-x="976" d="M488 490q-169 0 -284.5 115.5t-115.5 284.5t115.5 284.5t284.5 115.5t284.5 -115.5t115.5 -284.5t-115.5 -284.5t-284.5 -115.5zM488 563q138 0 230.5 94t92.5 233t-92.5 233t-230.5 94t-230.5 -94t-92.5 -233t92.5 -233t230.5 -94zM472 1044h-46v-135h41q43 0 67.5 19.5 t24.5 51.5q0 64 -87 64zM423 851v-161q0 -8 -7 -8h-51q-7 0 -7 8v358l-35 7q-6 1 -6 6v32q0 6 6 6q9 0 70.5 1t87.5 1q154 0 154 -118q0 -80 -85 -114q29 -15 41 -48q19 -50 34.5 -65t40.5 -16q7 0 7 -6v-53q0 -6 -6 -6q-55 0 -84.5 26t-45.5 72q-15 38 -36 58t-61 20h-17z " />
<glyph unicode="&#xaf;" horiz-adv-x="516" d="M82 1101v88q0 14 21 14h308q11 0 16 -2t6 -4t1 -7v-90q0 -14 -20 -14h-309q-15 0 -19 3.5t-4 11.5z" />
<glyph unicode="&#xb0;" horiz-adv-x="634" d="M596 1010q0 -114 -81 -196t-197 -82q-118 0 -199 81t-81 197t82 198t198 82q113 0 195.5 -81.5t82.5 -198.5zM480 1010q0 71 -48 122t-114 51q-68 0 -116 -51t-48 -122t47.5 -121t116.5 -50q68 0 115 50.5t47 120.5z" />
<glyph unicode="&#xb1;" horiz-adv-x="836" d="M350 803v271q0 12 12 12h104q14 0 14 -12v-271h273q12 0 12 -14v-84q0 -16 -12 -16h-273v-285q0 -12 -14 -12h-100q-16 0 -16 12v285h-267q-12 0 -12 12v88q0 14 12 14h267zM743 286q12 0 12 -14v-86q0 -16 -12 -16h-660q-12 0 -12 12v90q0 14 12 14h660z" />
<glyph unicode="&#xb2;" horiz-adv-x="680" d="M85 1237q25 88 91 141.5t167 53.5q99 0 170 -54.5t71 -155.5q0 -67 -30.5 -120.5t-78 -92.5t-97.5 -74.5t-97 -84.5t-69 -105h280l22 68q3 9 6.5 11.5t13.5 2.5h42q22 0 22 -30v-116q0 -16 -9 -24.5t-23 -8.5h-456q-28 0 -28 26q1 169 180 304q131 99 171 142.5t40 97.5 q0 50 -39.5 79t-95.5 29q-54 0 -96 -33t-57 -96q-3 -11 -12 -11l-6 1l-76 25q-8 2 -8 11q0 4 2 14z" />
<glyph unicode="&#xb3;" horiz-adv-x="637" d="M111 746q68 -8 116 -8q98 0 159 46t61 115q0 107 -150 107q-15 0 -42 -2t-32 -2q-11 0 -20 10t-9 22t6 21l189 269h-211l-20 -64q-7 -20 -18 -20h-48q-11 0 -14 6t-3 20v121q0 33 25 33h423q12 0 20.5 -8t8.5 -21q0 -9 -7 -19l-193 -274q92 -8 153 -56.5t61 -136.5 q0 -117 -89 -193t-239 -76q-82 0 -136 12q-20 4 -20 20l7 54q2 14 6 19t16 5z" />
<glyph unicode="&#xb4;" horiz-adv-x="503" d="M274 1299h133q15 0 15 -10q0 -11 -25 -34l-173 -158q-21 -21 -44 -21h-85q-13 0 -13 8q0 9 12 23l128 165q15 19 24 23t28 4z" />
<glyph unicode="&#xb5;" horiz-adv-x="1102" d="M161 -59v872l-106 27q-17 3 -17 18v45q0 14 17 16l225 23q16 0 16 -19v-650q16 -74 80.5 -127.5t140.5 -53.5q96 0 168 62.5t107 164.5v590q0 17 16 17h102q7 0 12 -5t5 -12v-639q0 -84 30.5 -128t96.5 -53q10 -1 10 -10q0 -1 -2 -10l-1 -9l-13 -65q-1 -9 -17 -9 q-108 3 -168 63q-42 44 -59 101q-103 -172 -287 -172q-135 0 -221 98v-137q0 -231 11 -287q2 -8 5 -22l5 -24q2 -9 2 -10q0 -12 -19 -12h-87q-30 0 -38 72q-14 87 -14 285z" />
<glyph unicode="&#xb6;" horiz-adv-x="1212" d="M607 298h-31q-159 0 -275 64.5t-173.5 173.5t-57.5 249q0 215 135.5 348t370.5 133h549q6 0 11 -5t5 -11v-48q0 -10 -16 -16l-97 -28v-1486q0 -16 -5 -21t-21 -5h-80q-16 0 -21 5t-5 21v1486h-157v-1486q0 -16 -4.5 -21t-21.5 -5h-80q-17 0 -21.5 5t-4.5 21v626zM607 402 v755h-11q-185 0 -284.5 -104.5t-99.5 -269.5q0 -76 23 -143t68.5 -121t121 -85.5t171.5 -31.5h11z" />
<glyph unicode="&#xb7;" horiz-adv-x="386" d="M89 542q0 44 30.5 74t73.5 30t73.5 -30t30.5 -74t-30.5 -74t-73.5 -30t-73.5 30t-30.5 74z" />
<glyph unicode="&#xb8;" horiz-adv-x="468" d="M176 -181q-14 0 -27 -1q-15 0 -15 9q0 3 2 9l53 194h102l-35 -137q76 -12 109.5 -50t33.5 -86q0 -77 -61.5 -125t-162.5 -48q-72 0 -100 11q-7 3 -7 9q0 5 3 14l15 49q4 13 13 13q1 0 13.5 -2t29 -3.5t27.5 -1.5q47 0 76.5 22t29.5 51q0 33 -24.5 53t-74.5 20z" />
<glyph unicode="&#xb9;" horiz-adv-x="495" d="M318 740l61 -12q18 -4 22 -8t4 -20v-28q0 -16 -4.5 -21t-21.5 -5h-243q-16 0 -21 5t-5 21v28q0 16 4 20t22 8l62 12v557q-45 -11 -115 -23q-14 0 -15 15l-3 69q0 9 4.5 13.5t18.5 8.5l200 55q3 1 9 1q21 0 21 -29v-667z" />
<glyph unicode="&#xba;" horiz-adv-x="612" d="M49 1000q0 132 64.5 211t190.5 79q124 0 191.5 -80t67.5 -210q0 -73 -16.5 -128t-42 -86.5t-61 -51t-67 -26t-66.5 -6.5q-34 0 -66 6.5t-69 26t-63.5 51t-44.5 87t-18 127.5zM158 999q0 -49 10.5 -86t26.5 -58t38 -34.5t41 -17.5t40 -4q140 0 140 200q0 88 -36.5 139.5 t-110.5 51.5q-83 0 -116 -49.5t-33 -141.5z" />
<glyph unicode="&#xbb;" horiz-adv-x="798" d="M388 216l200 261l-200 261q-8 12 -8 17q0 6 4 12q18 32 46 74q5 8 9 8t10 -6l249 -269q7 -8 7 -34v-126q0 -26 -7 -34l-249 -269q-6 -6 -10 -6t-9 8l-24 38q-16 27 -22 36q-3 4 -3 10q0 9 7 19zM78 216l200 261l-200 261q-7 10 -7 17t3 12l12 20l19 30l15 24q4 7 9 7 t10 -5l249 -269q7 -8 7 -34v-126q0 -26 -7 -34l-249 -269q-5 -5 -10 -5t-9 7q-21 31 -46 74q-3 5 -3 10q0 9 7 19z" />
<glyph unicode="&#xbc;" horiz-adv-x="1459" d="M313 585l61 -12q18 -4 22 -8t4 -20v-28q0 -17 -5 -21.5t-21 -4.5h-243q-17 0 -21.5 4.5t-4.5 21.5v28q0 16 4 20t22 8l62 12v557q-54 -14 -115 -23q-14 0 -15 15l-3 69q0 9 4.5 13.5t18.5 8.5l200 55q3 1 9 1q21 0 21 -29v-667zM339 55l586 1196q5 10 8.5 12.5t14.5 2.5 h91q16 0 16 -12q0 -4 -11 -28l-590 -1210q-4 -8 -7.5 -11.5t-7.5 -4t-13 -0.5h-89q-15 0 -15 14q0 7 17 41zM871 270l254 488q9 17 29 17h82q14 0 14 -13q0 -10 -8 -23l-240 -467h180v125q0 10 0.5 14t5 7.5t14.5 3.5h80q21 0 21 -25v-125h70q10 0 15 -3t5.5 -7t0.5 -12v-51 q0 -14 -3 -18.5t-18 -4.5h-70v-150q0 -25 -21 -25h-80q-14 0 -17 5.5t-3 19.5v150h-289q-29 0 -29 20v51z" />
<glyph unicode="&#xbd;" horiz-adv-x="1526" d="M359 55l586 1196q7 15 23 15h91q16 0 16 -11q0 -5 -11 -29l-590 -1210q-4 -8 -7.5 -11.5t-7.5 -4t-13 -0.5h-89q-15 0 -15 14q0 7 17 41zM313 585l61 -12q18 -4 22 -8t4 -20v-28q0 -17 -5 -21.5t-21 -4.5h-243q-17 0 -21.5 4.5t-4.5 21.5v28q0 16 4 20t22 8l62 12v557 q-54 -14 -115 -23q-14 0 -15 15l-3 69q0 9 4.5 13.5t18.5 8.5l200 55q3 1 9 1q21 0 21 -29v-667zM953 590q25 88 91 141.5t167 53.5q99 0 168.5 -54.5t69.5 -155.5q0 -50 -16 -92t-43 -73t-60.5 -59t-70.5 -55t-70.5 -54.5t-63 -64.5t-45.5 -78h280l22 68q3 9 6.5 11.5 t13.5 2.5h42q22 0 22 -30v-117q0 -16 -9 -24.5t-23 -8.5h-456q-11 0 -18 6t-8.5 11t-1.5 9q1 169 180 304q131 99 171 142.5t40 97.5q0 50 -39.5 79t-95.5 29q-53 0 -94 -30.5t-55 -84.5q-7 -25 -15 -25q-4 0 -7 1l-76 25q-8 2 -8 10q0 5 2 15z" />
<glyph unicode="&#xbe;" horiz-adv-x="1598" d="M1010 270l254 488q8 17 29 17h82q15 0 15 -12q0 -6 -9 -24l-240 -467h180v125q0 10 0.5 14t5 7.5t14.5 3.5h80q21 0 21 -25v-125h70q10 0 15 -3t5.5 -7t0.5 -12v-51q0 -14 -3 -18.5t-18 -4.5h-70v-150q0 -25 -21 -25h-80q-14 0 -17 5.5t-3 19.5v150h-289q-29 0 -29 20v51 zM462 55l586 1196q5 10 8.5 12.5t14.5 2.5h91q16 0 16 -12q0 -6 -11 -28l-590 -1210q-4 -8 -7.5 -11.5t-7.5 -4t-13 -0.5h-89q-15 0 -15 14q0 7 17 41zM119 591q68 -8 118 -8q98 0 159 46t61 115q0 107 -150 107q-15 0 -42 -2t-32 -2q-11 0 -20 10t-9 22t6 21l189 269h-211 l-20 -60q-8 -24 -18 -24h-48q-17 0 -17 31v116q0 33 25 33h423q12 0 20.5 -8t8.5 -21q0 -8 -7 -19l-188 -269q91 -10 150 -60t59 -138q0 -117 -89 -193t-239 -76q-75 0 -135 12q-21 4 -21 20l8 64q2 14 19 14z" />
<glyph unicode="&#xbf;" horiz-adv-x="749" d="M598 -211l27 100q5 17 16 17h43q15 0 17 -17l13 -169q0 -13 -12 -16q-164 -45 -278 -45q-50 0 -97.5 9t-95 31t-82 56t-56.5 88t-22 122q0 52 13.5 98.5t45 94t52 72.5t66.5 77q106 120 106 250q0 20 16 20h98q18 0 18 -20v-9q0 -86 -31.5 -160t-103.5 -156 q-44 -49 -69.5 -82.5t-47.5 -82.5t-22 -96q0 -94 56.5 -147t161.5 -53q74 0 168 18zM522 856q0 -44 -30 -74t-74 -30t-74 30t-30 74t30 74t74 30t74 -30t30 -74z" />
<glyph unicode="&#xc0;" horiz-adv-x="1118" d="M788 454l-217 711l-236 -711h453zM439 1158l-87 28q-16 6 -16 16v48q0 6 5 11t11 5h297q17 0 22 -16l396 -1228q2 -6 2 -9q0 -5 -5 -9t-10 -4h-118q-14 0 -18 16l-98 328h-519l-103 -328q-4 -16 -18 -16h-116q-16 0 -16 12q0 3 3 12zM295 1613h133q19 0 28 -4t24 -23 l128 -165q13 -15 13 -23t-14 -8h-85q-23 0 -44 21l-173 158q-26 24 -26 34t16 10z" />
<glyph unicode="&#xc1;" horiz-adv-x="1118" d="M788 454l-217 711l-236 -711h453zM439 1158l-87 28q-16 6 -16 16v48q0 6 5 11t11 5h297q17 0 22 -16l396 -1228q2 -6 2 -9q0 -5 -5 -9t-10 -4h-118q-14 0 -18 16l-98 328h-519l-103 -328q-4 -16 -18 -16h-116q-16 0 -16 12q0 3 3 12zM669 1612h133q15 0 15 -10 q0 -11 -25 -34l-173 -158q-21 -21 -44 -21h-85q-13 0 -13 8q0 9 12 23l128 165q15 19 24 23t28 4z" />
<glyph unicode="&#xc2;" horiz-adv-x="1118" d="M788 454l-217 711l-236 -711h453zM439 1158l-87 28q-16 6 -16 16v48q0 6 5 11t11 5h297q17 0 22 -16l396 -1228q2 -6 2 -9q0 -5 -5 -9t-10 -4h-118q-14 0 -18 16l-98 328h-519l-103 -328q-4 -16 -18 -16h-116q-16 0 -16 12q0 3 3 12zM479 1628h131q7 0 13.5 -2t12.5 -7 t8.5 -7.5t9.5 -11.5t8 -10l124 -157q11 -13 11 -19q0 -7 -10 -11q-45 -20 -66 -20q-14 0 -41 24l-135 115l-135 -115q-27 -24 -41 -24q-19 0 -66 20q-10 4 -10 11q0 6 11 19l123 157q13 17 18.5 23t14 10.5t19.5 4.5z" />
<glyph unicode="&#xc3;" horiz-adv-x="1118" d="M625 1385q-40 0 -92 33t-75 33q-34 0 -95 -56q-7 -6 -13 -6t-14 8q-24 29 -32 48q-2 6 -2 8q0 5 3 13q55 105 160 105q40 0 93 -32t77 -32q37 0 93 54q8 8 13 8t12 -8q16 -22 27 -40q8 -14 8 -20q0 -5 -3 -11q-27 -50 -71 -77.5t-89 -27.5zM788 454l-217 711l-236 -711 h453zM439 1158l-87 28q-16 6 -16 16v48q0 6 5 11t11 5h297q17 0 22 -16l396 -1228q2 -6 2 -9q0 -5 -5 -9t-10 -4h-118q-14 0 -18 16l-98 328h-519l-103 -328q-4 -16 -18 -16h-116q-16 0 -16 12q0 3 3 12z" />
<glyph unicode="&#xc4;" horiz-adv-x="1118" d="M788 454l-217 711l-236 -711h453zM439 1158l-87 28q-16 6 -16 16v48q0 6 5 11t11 5h297q17 0 22 -16l396 -1228q2 -6 2 -9q0 -5 -5 -9t-10 -4h-118q-14 0 -18 16l-98 328h-519l-103 -328q-4 -16 -18 -16h-116q-16 0 -16 12q0 3 3 12zM679 1390q-35 0 -59 24t-24 59t24 59 t59 24t59 -24t24 -59t-24 -59t-59 -24zM377 1390q-35 0 -59 24t-24 59t24 59t59 24t59 -24t24 -59t-24 -59t-59 -24z" />
<glyph unicode="&#xc5;" horiz-adv-x="1118" d="M788 454l-217 711l-236 -711h453zM439 1158l-87 28q-16 6 -16 16v48q0 6 5 11t11 5h297q17 0 22 -16l396 -1228q2 -6 2 -9q0 -5 -5 -9t-10 -4h-118q-14 0 -18 16l-98 328h-519l-103 -328q-4 -16 -18 -16h-116q-16 0 -16 12q0 3 3 12zM373 1543q0 75 50 121.5t134 46.5 q82 0 130 -46t48 -120q0 -71 -50.5 -116.5t-129.5 -45.5q-81 0 -131.5 45.5t-50.5 114.5zM555 1634q-39 0 -60.5 -25t-21.5 -64q0 -34 21.5 -60.5t58.5 -26.5q39 0 61.5 25.5t22.5 63.5q0 37 -22 62t-60 25z" />
<glyph unicode="&#xc6;" horiz-adv-x="1493" d="M371 456h406l-80 706h-6zM1351 621h-459l60 -511h450q16 0 21 -5t5 -21v-58q0 -16 -5 -21t-21 -5h-557q-6 0 -11 5t-5 11l-38 326h-466l-148 -326q-6 -16 -19 -16h-116q-16 0 -16 13q0 5 3 11l535 1134l-88 28q-16 6 -16 16v48q0 6 5 11t11 5h925q17 0 21.5 -5t4.5 -21 v-58q0 -16 -4.5 -21t-21.5 -5h-569l48 -425h471q17 0 21.5 -4.5t4.5 -21.5v-58q0 -17 -4.5 -21.5t-21.5 -4.5z" />
<glyph unicode="&#xc7;" horiz-adv-x="1038" d="M701 87q60 0 120.5 11.5t90.5 22.5l31 11q6 2 8 2q9 0 14 -12l22 -64q2 -6 2 -9q0 -7 -10 -12q-11 -7 -33 -17t-96 -27t-155 -17q-3 0 -10 0.5t-10 0.5l-21 -84q76 -12 109.5 -50t33.5 -86q0 -77 -61.5 -125t-162.5 -48q-72 0 -100 11q-7 3 -7 8q0 3 2 9l16 55 q4 13 13 13q1 0 13.5 -2t29 -3.5t27.5 -1.5q47 0 76.5 22t29.5 51q0 64 -94 73h-5q-14 0 -27 -1q-15 0 -15 9q0 3 2 9l42 148q-235 32 -359 195.5t-124 446.5q0 141 42.5 263t119.5 211t190 139.5t248 50.5q76 0 145.5 -14t100.5 -28l31 -13q17 -7 17 -22v-180 q0 -16 -17 -16h-48q-10 0 -16 16l-46 123q-78 24 -154 24q-140 0 -247.5 -74t-162.5 -196t-55 -272q0 -259 113 -405t347 -146z" />
<glyph unicode="&#xc8;" horiz-adv-x="966" d="M87 1266h793q16 0 21 -5t5 -21v-58q0 -16 -5 -21t-21 -5h-546v-424h400q16 0 21 -5t5 -21v-58q0 -16 -5 -21t-21 -5h-400v-512h546q16 0 21 -5t5 -21v-58q0 -16 -5 -21t-21 -5h-661q-17 0 -21.5 5t-4.5 21v1115l-106 44q-16 6 -16 16v48q0 17 16 17zM307 1613h133 q19 0 28 -4t24 -23l128 -165q13 -15 13 -23t-14 -8h-85q-23 0 -44 21l-173 158q-26 24 -26 34t16 10z" />
<glyph unicode="&#xc9;" horiz-adv-x="966" d="M87 1266h793q16 0 21 -5t5 -21v-58q0 -16 -5 -21t-21 -5h-546v-424h400q16 0 21 -5t5 -21v-58q0 -16 -5 -21t-21 -5h-400v-512h546q16 0 21 -5t5 -21v-58q0 -16 -5 -21t-21 -5h-661q-17 0 -21.5 5t-4.5 21v1115l-106 44q-16 6 -16 16v48q0 17 16 17zM599 1612h133 q15 0 15 -10q0 -11 -25 -34l-173 -158q-21 -21 -44 -21h-85q-13 0 -13 8q0 9 12 23l128 165q15 19 24 23t28 4z" />
<glyph unicode="&#xca;" horiz-adv-x="966" d="M479 1628h131q7 0 13.5 -2t12.5 -7t8.5 -7.5t9.5 -11.5t8 -10l124 -157q11 -13 11 -19q0 -7 -10 -11q-45 -20 -66 -20q-14 0 -41 24l-135 115l-135 -115q-27 -24 -41 -24q-19 0 -66 20q-10 4 -10 11q0 6 11 19l123 157q13 17 18.5 23t14 10.5t19.5 4.5zM87 1266h793 q16 0 21 -5t5 -21v-58q0 -16 -5 -21t-21 -5h-546v-424h400q16 0 21 -5t5 -21v-58q0 -16 -5 -21t-21 -5h-400v-512h546q16 0 21 -5t5 -21v-58q0 -16 -5 -21t-21 -5h-661q-17 0 -21.5 5t-4.5 21v1115l-106 44q-16 6 -16 16v48q0 17 16 17z" />
<glyph unicode="&#xcb;" horiz-adv-x="966" d="M87 1266h793q16 0 21 -5t5 -21v-58q0 -16 -5 -21t-21 -5h-546v-424h400q16 0 21 -5t5 -21v-58q0 -16 -5 -21t-21 -5h-400v-512h546q16 0 21 -5t5 -21v-58q0 -16 -5 -21t-21 -5h-661q-17 0 -21.5 5t-4.5 21v1115l-106 44q-16 6 -16 16v48q0 17 16 17zM689 1390 q-35 0 -59 24t-24 59t24 59t59 24t59 -24t24 -59t-24 -59t-59 -24zM387 1390q-35 0 -59 24t-24 59t24 59t59 24t59 -24t24 -59t-24 -59t-59 -24z" />
<glyph unicode="&#xcc;" horiz-adv-x="620" d="M490 1184l-103 -20v-1062l103 -20q18 -3 22 -7.5t4 -20.5v-28q0 -16 -5 -21t-21 -5h-348q-16 0 -21 5t-5 21v28q0 16 4 20.5t22 7.5l104 20v1062l-104 20q-18 3 -22 7.5t-4 20.5v28q0 16 5 21t21 5h348q16 0 21 -5t5 -21v-28q0 -16 -4.5 -20.5t-21.5 -7.5zM66 1613h133 q19 0 28 -4t24 -23l128 -165q13 -15 13 -23t-14 -8h-85q-23 0 -44 21l-173 158q-26 24 -26 34t16 10z" />
<glyph unicode="&#xcd;" horiz-adv-x="599" d="M478 1184l-103 -20v-1062l103 -20q18 -3 22 -7.5t4 -20.5v-28q0 -16 -5 -21t-21 -5h-348q-16 0 -21 5t-5 21v28q0 16 4 20.5t22 7.5l104 20v1062l-104 20q-18 3 -22 7.5t-4 20.5v28q0 16 5 21t21 5h348q16 0 21 -5t5 -21v-28q0 -16 -4.5 -20.5t-21.5 -7.5zM389 1612h133 q15 0 15 -10q0 -11 -25 -34l-173 -158q-21 -21 -44 -21h-85q-13 0 -13 8q0 9 12 23l128 165q15 19 24 23t28 4z" />
<glyph unicode="&#xce;" horiz-adv-x="668" d="M267 1628h131q7 0 13.5 -2t12.5 -7t8.5 -7.5t9.5 -11.5t8 -10l124 -157q11 -13 11 -19q0 -7 -10 -11q-45 -20 -66 -20q-14 0 -41 24l-135 115l-135 -115q-27 -24 -41 -24q-19 0 -66 20q-10 4 -10 11q0 6 11 19l123 157q13 17 18.5 23t14 10.5t19.5 4.5zM508 1184 l-103 -20v-1062l103 -20q18 -3 22 -7.5t4 -20.5v-28q0 -16 -5 -21t-21 -5h-348q-16 0 -21 5t-5 21v28q0 16 4 20.5t22 7.5l104 20v1062l-104 20q-18 3 -22 7.5t-4 20.5v28q0 16 5 21t21 5h348q16 0 21 -5t5 -21v-28q0 -16 -4.5 -20.5t-21.5 -7.5z" />
<glyph unicode="&#xcf;" horiz-adv-x="632" d="M469 1390q-35 0 -59 24t-24 59t24 59t59 24t59 -24t24 -59t-24 -59t-59 -24zM167 1390q-35 0 -59 24t-24 59t24 59t59 24t59 -24t24 -59t-24 -59t-59 -24zM489 1184l-103 -20v-1062l103 -20q18 -3 22 -7.5t4 -20.5v-28q0 -16 -4.5 -21t-21.5 -5h-348q-17 0 -21.5 5 t-4.5 21v28q0 16 4 20.5t22 7.5l104 20v1062l-104 20q-18 3 -22 7.5t-4 20.5v28q0 16 4.5 21t21.5 5h348q17 0 21.5 -5t4.5 -21v-28q0 -16 -4.5 -20.5t-21.5 -7.5z" />
<glyph unicode="&#xd0;" horiz-adv-x="1207" d="M195 23v565h-112q-12 0 -12 12v84q0 14 12 14h112v443l-106 44q-16 6 -16 16v48q0 17 16 17h395q630 0 630 -631q0 -295 -173.5 -473.5t-470.5 -178.5q-69 0 -131.5 3.5t-90.5 6.5l-27 3q-8 0 -17 7t-9 20zM335 1156l1 -458h198q12 0 12 -14v-80q0 -16 -12 -16h-198v-489 q48 -7 130 -7q222 0 361 150t139 389q0 60 -4.5 110.5t-18.5 106t-36.5 99t-60.5 84t-88.5 67t-123.5 42.5t-162 16h-137z" />
<glyph unicode="&#xd1;" horiz-adv-x="1264" d="M199 1151l-112 34q-16 4 -16 16v48q0 17 16 17h263q14 0 23 -16l556 -963l39 -79h6v1032q0 16 5 21t21 5h89q17 0 21.5 -5t4.5 -21v-1214q0 -16 -4.5 -21t-21.5 -5h-111q-27 0 -42 26l-548 951q-12 20 -22.5 42t-15.5 34l-4 12h-6v-1039q0 -16 -5 -21t-21 -5h-89 q-17 0 -21.5 5t-4.5 21v1125zM755 1385q-40 0 -92 33t-75 33q-34 0 -95 -56q-7 -6 -13 -6t-14 8q-24 29 -32 48q-2 6 -2 8q0 5 3 13q55 105 160 105q40 0 93 -32t77 -32q37 0 93 54q8 8 13 8t12 -8q16 -22 27 -40q8 -14 8 -20q0 -5 -3 -11q-27 -50 -71 -77.5t-89 -27.5z" />
<glyph unicode="&#xd2;" horiz-adv-x="1217" d="M611 -24q-52 0 -101 8t-101.5 28.5t-97 53t-85.5 84.5t-69.5 119t-45 161t-16.5 207q0 146 27.5 261.5t86.5 205t160.5 138t241.5 48.5q112 0 200 -32t146.5 -89t97 -140t55 -179.5t16.5 -212.5q0 -156 -32 -276t-82.5 -191t-120.5 -116.5t-137.5 -61.5t-142.5 -16z M610 86q368 0 368 559q0 536 -369 536q-84 0 -149 -29.5t-105.5 -78.5t-66 -120t-35.5 -145.5t-10 -162.5q0 -140 23.5 -244.5t59 -163t87 -94t97.5 -46.5t100 -11zM378 1613h133q19 0 28 -4t24 -23l128 -165q13 -15 13 -23t-14 -8h-85q-23 0 -44 21l-173 158q-26 24 -26 34 t16 10z" />
<glyph unicode="&#xd3;" horiz-adv-x="1217" d="M609 -24q-52 0 -101 8t-101.5 28.5t-97 53t-85.5 84.5t-69.5 119t-45 161t-16.5 207q0 146 27.5 261.5t86.5 205t160.5 138t241.5 48.5q112 0 200 -32t146.5 -89t97 -140t55 -179.5t16.5 -212.5q0 -156 -32 -276t-82.5 -191t-120.5 -116.5t-137.5 -61.5t-142.5 -16z M608 86q368 0 368 559q0 536 -369 536q-84 0 -149 -29.5t-105.5 -78.5t-66 -120t-35.5 -145.5t-10 -162.5q0 -140 23.5 -244.5t59 -163t87 -94t97.5 -46.5t100 -11zM685 1612h133q15 0 15 -10q0 -11 -25 -34l-173 -158q-21 -21 -44 -21h-85q-13 0 -13 8q0 9 12 23l128 165 q15 19 24 23t28 4z" />
<glyph unicode="&#xd4;" horiz-adv-x="1217" d="M541 1628h131q7 0 13.5 -2t12.5 -7t8.5 -7.5t9.5 -11.5t8 -10l124 -157q11 -13 11 -19q0 -7 -10 -11q-45 -20 -66 -20q-14 0 -41 24l-135 115l-135 -115q-27 -24 -41 -24q-19 0 -66 20q-10 4 -10 11q0 6 11 19l123 157q13 17 18.5 23t14 10.5t19.5 4.5zM609 -24 q-52 0 -101 8t-101.5 28.5t-97 53t-85.5 84.5t-69.5 119t-45 161t-16.5 207q0 146 27.5 261.5t86.5 205t160.5 138t241.5 48.5q112 0 200 -32t146.5 -89t97 -140t55 -179.5t16.5 -212.5q0 -156 -32 -276t-82.5 -191t-120.5 -116.5t-137.5 -61.5t-142.5 -16zM608 86 q368 0 368 559q0 536 -369 536q-84 0 -149 -29.5t-105.5 -78.5t-66 -120t-35.5 -145.5t-10 -162.5q0 -140 23.5 -244.5t59 -163t87 -94t97.5 -46.5t100 -11z" />
<glyph unicode="&#xd5;" horiz-adv-x="1217" d="M609 -24q-52 0 -101 8t-101.5 28.5t-97 53t-85.5 84.5t-69.5 119t-45 161t-16.5 207q0 146 27.5 261.5t86.5 205t160.5 138t241.5 48.5q112 0 200 -32t146.5 -89t97 -140t55 -179.5t16.5 -212.5q0 -156 -32 -276t-82.5 -191t-120.5 -116.5t-137.5 -61.5t-142.5 -16z M608 86q368 0 368 559q0 536 -369 536q-84 0 -149 -29.5t-105.5 -78.5t-66 -120t-35.5 -145.5t-10 -162.5q0 -140 23.5 -244.5t59 -163t87 -94t97.5 -46.5t100 -11zM685 1385q-40 0 -92 33t-75 33q-34 0 -95 -56q-7 -6 -13 -6t-14 8q-24 29 -32 48q-2 6 -2 8q0 5 3 13 q55 105 160 105q40 0 93 -32t77 -32q37 0 93 54q8 8 13 8t12 -8q16 -22 27 -40q8 -14 8 -20q0 -5 -3 -11q-27 -50 -71 -77.5t-89 -27.5z" />
<glyph unicode="&#xd6;" horiz-adv-x="1217" d="M609 -24q-52 0 -101 8t-101.5 28.5t-97 53t-85.5 84.5t-69.5 119t-45 161t-16.5 207q0 146 27.5 261.5t86.5 205t160.5 138t241.5 48.5q112 0 200 -32t146.5 -89t97 -140t55 -179.5t16.5 -212.5q0 -156 -32 -276t-82.5 -191t-120.5 -116.5t-137.5 -61.5t-142.5 -16z M608 86q368 0 368 559q0 536 -369 536q-84 0 -149 -29.5t-105.5 -78.5t-66 -120t-35.5 -145.5t-10 -162.5q0 -140 23.5 -244.5t59 -163t87 -94t97.5 -46.5t100 -11zM759 1390q-35 0 -59 24t-24 59t24 59t59 24t59 -24t24 -59t-24 -59t-59 -24zM457 1390q-35 0 -59 24t-24 59 t24 59t59 24t59 -24t24 -59t-24 -59t-59 -24z" />
<glyph unicode="&#xd7;" horiz-adv-x="753" d="M76 771l70 70q4 4 9 4q4 0 8 -4l214 -213l214 213q4 4 9 4q4 0 9 -5l69 -69q4 -4 4 -9q0 -4 -4 -8l-213 -214l213 -214q4 -4 4 -8t-7 -11l-65 -66q-6 -6 -11 -6q-4 0 -8 4l-214 213l-214 -213q-5 -5 -8 -5q-4 0 -9 5l-69 69q-5 5 -5 9q0 5 4 9l213 214l-213 214 q-5 5 -5 8q0 4 5 9z" />
<glyph unicode="&#xd8;" horiz-adv-x="1217" d="M609 -24q-157 0 -275 73l-75 -128q-12 -19 -30 -19h-81q-16 0 -16 13q0 6 5 14l112 191q-156 168 -156 517q0 146 27.5 261.5t86.5 205t160.5 138t241.5 48.5q169 0 284 -74l95 161q8 12 22 12h89q15 0 15 -10q0 -3 -5 -13l-131 -222q146 -164 146 -507q0 -156 -32 -276 t-82.5 -191t-120.5 -116.5t-137.5 -61.5t-142.5 -16zM241 645q0 -262 80 -402l508 864q-87 74 -222 74q-84 0 -149 -29.5t-105.5 -78.5t-66 -120t-35.5 -145.5t-10 -162.5zM608 86q368 0 368 559q0 237 -74 370l-506 -862q82 -67 212 -67z" />
<glyph unicode="&#xd9;" horiz-adv-x="1232" d="M329 432q0 -158 83 -247t227 -89q147 0 230.5 80.5t83.5 237.5v826q0 16 4.5 21t21.5 5h89q16 0 21 -5t5 -21v-792q0 -223 -121.5 -347.5t-333.5 -124.5q-211 0 -331 123.5t-120 350.5v701l-112 34q-16 4 -16 16v48q0 17 16 17h225q16 0 22 -6t6 -23v-805zM435 1613h133 q19 0 28 -4t24 -23l128 -165q13 -15 13 -23t-14 -8h-85q-23 0 -44 21l-173 158q-26 24 -26 34t16 10z" />
<glyph unicode="&#xda;" horiz-adv-x="1232" d="M329 432q0 -158 83 -247t227 -89q147 0 230.5 80.5t83.5 237.5v826q0 16 4.5 21t21.5 5h89q16 0 21 -5t5 -21v-792q0 -223 -121.5 -347.5t-333.5 -124.5q-211 0 -331 123.5t-120 350.5v701l-112 34q-16 4 -16 16v48q0 17 16 17h225q16 0 22 -6t6 -23v-805zM729 1612h133 q15 0 15 -10q0 -11 -25 -34l-173 -158q-21 -21 -44 -21h-85q-13 0 -13 8q0 9 12 23l128 165q15 19 24 23t28 4z" />
<glyph unicode="&#xdb;" horiz-adv-x="1232" d="M589 1628h131q7 0 13.5 -2t12.5 -7t8.5 -7.5t9.5 -11.5t8 -10l124 -157q11 -13 11 -19q0 -7 -10 -11q-45 -20 -66 -20q-14 0 -41 24l-135 115l-135 -115q-27 -24 -41 -24q-19 0 -66 20q-10 4 -10 11q0 6 11 19l123 157q13 17 18.5 23t14 10.5t19.5 4.5zM329 432 q0 -158 83 -247t227 -89q147 0 230.5 80.5t83.5 237.5v826q0 16 4.5 21t21.5 5h89q16 0 21 -5t5 -21v-792q0 -223 -121.5 -347.5t-333.5 -124.5q-211 0 -331 123.5t-120 350.5v701l-112 34q-16 4 -16 16v48q0 17 16 17h225q16 0 22 -6t6 -23v-805z" />
<glyph unicode="&#xdc;" horiz-adv-x="1232" d="M329 432q0 -158 83 -247t227 -89q147 0 230.5 80.5t83.5 237.5v826q0 16 4.5 21t21.5 5h89q16 0 21 -5t5 -21v-792q0 -223 -121.5 -347.5t-333.5 -124.5q-211 0 -331 123.5t-120 350.5v701l-112 34q-16 4 -16 16v48q0 17 16 17h225q16 0 22 -6t6 -23v-805zM797 1390 q-35 0 -59 24t-24 59t24 59t59 24t59 -24t24 -59t-24 -59t-59 -24zM495 1390q-35 0 -59 24t-24 59t24 59t59 24t59 -24t24 -59t-24 -59t-59 -24z" />
<glyph unicode="&#xdd;" horiz-adv-x="1024" d="M644 1612h133q15 0 15 -10q0 -11 -25 -34l-173 -158q-21 -21 -44 -21h-85q-13 0 -13 8q0 9 12 23l128 165q15 19 24 23t28 4zM688 208q-49 -118 -123 -172.5t-206 -54.5q-90 0 -154 19q-17 5 -17 20q0 5 18 76q4 17 20 17l18 -3q18 -4 48.5 -7t61.5 -3q56 0 97.5 18.5 t70 57.5t45.5 76.5t38 98.5l20 60h-99q-177 0 -237 141q-18 42 -43 142l-60 247q-35 147 -53 217l-87 27q-16 4 -16 16v48q0 17 16 17h209q20 0 23 -24q19 -132 65.5 -358.5t73.5 -285.5q33 -73 172 -73q14 0 39.5 0.5t34.5 0.5q118 375 201 722q4 18 24 18h110q24 0 24 -12 q0 -3 -1 -7q-181 -671 -333 -1039z" />
<glyph unicode="&#xde;" horiz-adv-x="982" d="M947 645q0 -202 -136 -302t-380 -100h-91v-215q0 -16 -6.5 -22t-21.5 -6h-87q-17 0 -21.5 5t-4.5 21v1125l-112 34q-16 4 -16 16v48q0 17 16 17h227q16 0 21 -5t5 -22v-206h91q250 0 383 -92.5t133 -295.5zM340 927v-578h71q194 0 294 73.5t100 220.5q0 153 -97.5 218.5 t-296.5 65.5h-71z" />
<glyph unicode="&#xdf;" horiz-adv-x="1104" d="M201 911v152q0 162 94 261t280 99q51 0 96.5 -9t90 -32t76.5 -57.5t51.5 -88.5t19.5 -123q0 -107 -25 -168q-148 -66 -148 -162q0 -43 27 -79t87 -87q90 -77 131 -147.5t41 -162.5q0 -145 -88.5 -237.5t-236.5 -92.5q-69 0 -162 17q-27 6 -27 19l12 76q3 17 18 17 q3 0 13 -2q2 0 31.5 -5.5t54 -8t56.5 -2.5q90 0 146 65.5t56 153.5q0 60 -30 109.5t-97 107.5q-83 72 -119.5 126t-36.5 133q0 146 164 245q4 25 4 79q0 99 -50.5 152t-152.5 53q-63 0 -108.5 -19t-70.5 -46.5t-39.5 -71t-18.5 -81.5t-4 -88v-979q0 -17 -4.5 -22t-21.5 -5 h-83q-17 0 -21.5 5t-4.5 22v767l-114 35q-16 4 -16 16v49q0 17 16 17h114z" />
<glyph unicode="&#xe0;" horiz-adv-x="916" d="M763 546v-447q18 -9 99 -34q10 -3 12 -5t2 -9v-41q0 -8 -12 -9l-192 -20q-11 0 -14.5 4.5t-5.5 15.5l-15 115q-143 -140 -295 -140q-131 0 -201 70.5t-70 196.5q0 52 15 93.5t40 70t62 50t75 33t87 19t90 9.5t90 2h99v93q0 117 -56.5 170t-166.5 53q-85 0 -210 -57 l-20 -9q-6 -2 -8 -2q-7 0 -9 6l-17 70q-3 11 7 18l17 10q45 27 123.5 52t152.5 25q230 0 296 -177q25 -65 25 -226zM629 214v208q-179 0 -240 -8q-84 -11 -131.5 -47.5t-47.5 -115.5q0 -73 51.5 -116.5t128.5 -43.5q60 0 125 32t114 91zM238 1299h133q19 0 28 -4t24 -23 l128 -165q13 -15 13 -23t-14 -8h-85q-23 0 -44 21l-173 158q-26 24 -26 34t16 10z" />
<glyph unicode="&#xe1;" horiz-adv-x="901" d="M744 546v-447q18 -9 99 -34q10 -3 12 -5t2 -9v-41q0 -8 -12 -9l-192 -20q-11 0 -14.5 4.5t-5.5 15.5l-15 115q-143 -140 -295 -140q-131 0 -201 70.5t-70 196.5q0 52 15 93.5t40 70t62 50t75 33t87 19t90 9.5t90 2h99v93q0 117 -56.5 170t-166.5 53q-85 0 -210 -57 l-20 -9q-6 -2 -8 -2q-7 0 -9 6l-17 70q-3 11 7 18l17 10q45 27 123.5 52t152.5 25q230 0 296 -177q25 -65 25 -226zM610 214v208q-179 0 -240 -8q-84 -11 -131.5 -47.5t-47.5 -115.5q0 -73 51.5 -116.5t128.5 -43.5q60 0 125 32t114 91zM530 1299h133q15 0 15 -10 q0 -11 -25 -34l-173 -158q-21 -21 -44 -21h-85q-13 0 -13 8q0 9 12 23l128 165q15 19 24 23t28 4z" />
<glyph unicode="&#xe2;" horiz-adv-x="916" d="M763 546v-447q18 -9 99 -34q10 -3 12 -5t2 -9v-41q0 -8 -12 -9l-192 -20q-11 0 -14.5 4.5t-5.5 15.5l-15 115q-143 -140 -295 -140q-131 0 -201 70.5t-70 196.5q0 52 15 93.5t40 70t62 50t75 33t87 19t90 9.5t90 2h99v93q0 117 -56.5 170t-166.5 53q-85 0 -210 -57 l-20 -9q-6 -2 -8 -2q-7 0 -9 6l-17 70q-3 11 7 18l17 10q45 27 123.5 52t152.5 25q230 0 296 -177q25 -65 25 -226zM629 214v208q-179 0 -240 -8q-84 -11 -131.5 -47.5t-47.5 -115.5q0 -73 51.5 -116.5t128.5 -43.5q60 0 125 32t114 91zM368 1310h131q7 0 13.5 -2t12.5 -7 t8.5 -7.5t9.5 -11.5t8 -10l124 -157q11 -13 11 -19q0 -7 -10 -11q-45 -20 -66 -20q-14 0 -41 24l-135 115l-135 -115q-27 -24 -41 -24q-19 0 -66 20q-10 4 -10 11q0 6 11 19l123 157q13 17 18.5 23t14 10.5t19.5 4.5z" />
<glyph unicode="&#xe3;" horiz-adv-x="916" d="M763 546v-447q18 -9 99 -34q10 -3 12 -5t2 -9v-41q0 -8 -12 -9l-192 -20q-11 0 -14.5 4.5t-5.5 15.5l-15 115q-143 -140 -295 -140q-131 0 -201 70.5t-70 196.5q0 52 15 93.5t40 70t62 50t75 33t87 19t90 9.5t90 2h99v93q0 117 -56.5 170t-166.5 53q-85 0 -210 -57 l-20 -9q-6 -2 -8 -2q-7 0 -9 6l-17 70q-3 11 7 18l17 10q45 27 123.5 52t152.5 25q230 0 296 -177q25 -65 25 -226zM629 214v208q-179 0 -240 -8q-84 -11 -131.5 -47.5t-47.5 -115.5q0 -73 51.5 -116.5t128.5 -43.5q60 0 125 32t114 91zM510 1072q-40 0 -92 33t-75 33 q-34 0 -95 -56q-8 -6 -13 -6q-6 0 -14 8q-24 29 -32 48q-2 6 -2 8q0 6 3 13q55 105 160 105q40 0 93 -32t77 -32q37 0 93 54q8 8 13 8t12 -8q16 -22 27 -40q8 -14 8 -20q0 -5 -3 -11q-27 -50 -71 -77.5t-89 -27.5z" />
<glyph unicode="&#xe4;" horiz-adv-x="916" d="M763 546v-447q18 -9 99 -34q10 -3 12 -5t2 -9v-41q0 -8 -12 -9l-192 -20q-11 0 -14.5 4.5t-5.5 15.5l-15 115q-143 -140 -295 -140q-131 0 -201 70.5t-70 196.5q0 52 15 93.5t40 70t62 50t75 33t87 19t90 9.5t90 2h99v93q0 117 -56.5 170t-166.5 53q-85 0 -210 -57 l-20 -9q-6 -2 -8 -2q-7 0 -9 6l-17 70q-3 11 7 18l17 10q45 27 123.5 52t152.5 25q230 0 296 -177q25 -65 25 -226zM629 214v208q-179 0 -240 -8q-84 -11 -131.5 -47.5t-47.5 -115.5q0 -73 51.5 -116.5t128.5 -43.5q60 0 125 32t114 91zM597 1073q-35 0 -59 24t-24 59t24 59 t59 24t59 -24t24 -59t-24 -59t-59 -24zM295 1073q-35 0 -59 24t-24 59t24 59t59 24t59 -24t24 -59t-24 -59t-59 -24z" />
<glyph unicode="&#xe5;" horiz-adv-x="916" d="M763 546v-447q18 -9 99 -34q10 -3 12 -5t2 -9v-41q0 -8 -12 -9l-192 -20q-11 0 -14.5 4.5t-5.5 15.5l-15 115q-143 -140 -295 -140q-131 0 -201 70.5t-70 196.5q0 52 15 93.5t40 70t62 50t75 33t87 19t90 9.5t90 2h99v93q0 117 -56.5 170t-166.5 53q-85 0 -210 -57 l-20 -9q-6 -2 -8 -2q-7 0 -9 6l-17 70q-3 11 7 18l17 10q45 27 123.5 52t152.5 25q230 0 296 -177q25 -65 25 -226zM629 214v208q-179 0 -240 -8q-84 -11 -131.5 -47.5t-47.5 -115.5q0 -73 51.5 -116.5t128.5 -43.5q60 0 125 32t114 91zM282 1228q0 75 50 121.5t134 46.5 q82 0 130 -46t48 -120q0 -71 -50.5 -116.5t-129.5 -45.5q-81 0 -131.5 45.5t-50.5 114.5zM464 1319q-39 0 -60.5 -25t-21.5 -64q0 -34 21.5 -60.5t58.5 -26.5q39 0 61.5 25.5t22.5 63.5q0 37 -22 62t-60 25z" />
<glyph unicode="&#xe6;" horiz-adv-x="1466" d="M1025 837q-110 0 -175 -78.5t-80 -213.5h472v26q0 123 -60 194.5t-157 71.5zM376 87q152 0 246 109v243q-127 0 -159 -1q-44 -1 -74.5 -3.5t-69.5 -13.5t-62.5 -30t-40 -54.5t-16.5 -85.5q0 -73 50.5 -118.5t125.5 -45.5zM727 788q111 162 300 162q349 0 349 -458v-21 q0 -34 -17 -34h-592q8 -183 89.5 -266t237.5 -83q115 0 226 47q10 5 15 5q7 0 10 -3.5t6 -17.5l13 -60q0 -10 -12 -16q-135 -67 -283 -67q-251 0 -347 170q-58 -80 -152 -125t-204 -45q-131 0 -213 72t-82 195q0 300 409 300h147v71q0 117 -55 170t-163 53q-85 0 -206 -57 q-20 -10 -28 -10q-7 0 -8 5q-1 3 -4.5 17t-7 30t-4.5 18l-1 6q0 13 24 27q37 24 115 50t142 27h13q213 0 283 -162z" />
<glyph unicode="&#xe7;" horiz-adv-x="882" d="M729 717l-29 110q-69 16 -163 16q-135 0 -217.5 -105t-82.5 -275q0 -177 85.5 -276t242.5 -99q102 0 218 35q14 4 18 4q10 0 14 -20l11 -65q0 -9 -12 -14q-122 -49 -256 -51l-20 -84q76 -12 109.5 -50t33.5 -86q0 -77 -61.5 -125t-162.5 -48q-67 0 -95 11q-7 3 -7 8 t18 64q4 13 13 13q1 0 13.5 -2t29 -3.5t27.5 -1.5q47 0 76.5 22t29.5 51q0 64 -94 73h-5q-14 0 -27 -1q-15 0 -15 9q0 3 2 9l40 148q-180 25 -274.5 149t-94.5 330q0 218 122 352t321 134q102 0 270 -52q11 -3 11 -16l-13 -162q-1 -17 -17 -17h-42q-13 0 -17 15z" />
<glyph unicode="&#xe8;" horiz-adv-x="970" d="M95 472q0 217 114 349.5t309 132.5q179 0 270.5 -107.5t91.5 -342.5v-21q0 -34 -18 -34h-623q16 -360 349 -360q119 0 234 47q10 5 16 5q7 0 10.5 -3t5.5 -14l13 -63q0 -11 -12 -18q-140 -67 -293 -67q-217 0 -342 130t-125 366zM516 840q-115 0 -187 -75t-87 -207h499 v26q0 122 -61.5 189t-163.5 67zM308 1299h133q19 0 28 -4t24 -23l128 -165q13 -15 13 -23t-14 -8h-85q-23 0 -44 21l-173 158q-26 24 -26 34t16 10z" />
<glyph unicode="&#xe9;" horiz-adv-x="970" d="M95 472q0 217 114 349.5t309 132.5q179 0 270.5 -107.5t91.5 -342.5v-21q0 -34 -18 -34h-623q16 -360 349 -360q119 0 234 47q10 5 16 5q7 0 10.5 -3t5.5 -14l13 -63q0 -11 -12 -18q-140 -67 -293 -67q-217 0 -342 130t-125 366zM516 840q-115 0 -187 -75t-87 -207h499 v26q0 122 -61.5 189t-163.5 67zM589 1299h133q15 0 15 -10q0 -11 -25 -34l-173 -158q-21 -21 -44 -21h-85q-13 0 -13 8q0 9 12 23l128 165q15 19 24 23t28 4z" />
<glyph unicode="&#xea;" horiz-adv-x="970" d="M448 1310h131q7 0 13.5 -2t12.5 -7t8.5 -7.5t9.5 -11.5t8 -10l124 -157q11 -13 11 -19q0 -7 -10 -11q-45 -20 -66 -20q-14 0 -41 24l-135 115l-135 -115q-27 -24 -41 -24q-19 0 -66 20q-10 4 -10 11q0 6 11 19l123 157q13 17 18.5 23t14 10.5t19.5 4.5zM95 472 q0 217 114 349.5t309 132.5q179 0 270.5 -107.5t91.5 -342.5v-21q0 -34 -18 -34h-623q16 -360 349 -360q119 0 234 47q10 5 16 5q7 0 10.5 -3t5.5 -14l13 -63q0 -11 -12 -18q-140 -67 -293 -67q-217 0 -342 130t-125 366zM516 840q-115 0 -187 -75t-87 -207h499v26 q0 122 -61.5 189t-163.5 67z" />
<glyph unicode="&#xeb;" horiz-adv-x="970" d="M95 472q0 217 114 349.5t309 132.5q179 0 270.5 -107.5t91.5 -342.5v-21q0 -34 -18 -34h-623q16 -360 349 -360q119 0 234 47q10 5 16 5q7 0 10.5 -3t5.5 -14l13 -63q0 -11 -12 -18q-140 -67 -293 -67q-217 0 -342 130t-125 366zM516 840q-115 0 -187 -75t-87 -207h499 v26q0 122 -61.5 189t-163.5 67zM647 1073q-35 0 -59 24t-24 59t24 59t59 24t59 -24t24 -59t-24 -59t-59 -24zM345 1073q-35 0 -59 24t-24 59t24 59t59 24t59 -24t24 -59t-24 -59t-59 -24z" />
<glyph unicode="&#xec;" horiz-adv-x="509" d="M186 9v806l-106 27q-17 3 -17 18v45q0 14 17 16l225 23q16 0 16 -19v-811l108 -27q17 -3 17 -16v-46q0 -15 -17 -17l-226 -17q-17 0 -17 18zM-5 1299h133q19 0 28 -4t24 -23l128 -165q13 -15 13 -23t-14 -8h-85q-23 0 -44 21l-173 158q-26 24 -26 34t16 10z" />
<glyph unicode="&#xed;" horiz-adv-x="578" d="M185 9v806l-106 27q-17 3 -17 18v45q0 14 17 16l225 23q16 0 16 -19v-811l108 -27q17 -3 17 -16v-46q0 -15 -17 -17l-226 -17q-17 0 -17 18zM312 1299h133q15 0 15 -10q0 -11 -25 -34l-173 -158q-21 -21 -44 -21h-85q-13 0 -13 8q0 9 12 23l128 165q15 19 24 23t28 4z " />
<glyph unicode="&#xee;" horiz-adv-x="509" d="M164 1310h131q7 0 13.5 -2t12.5 -7t8.5 -7.5t9.5 -11.5t8 -10l124 -157q11 -13 11 -19q0 -7 -10 -11q-45 -20 -66 -20q-14 0 -41 24l-135 115l-135 -115q-27 -24 -41 -24q-19 0 -66 20q-10 4 -10 11q0 6 11 19l123 157q13 17 18.5 23t14 10.5t19.5 4.5zM186 9v806 l-106 27q-17 3 -17 18v45q0 14 17 16l225 23q16 0 16 -19v-811l108 -27q17 -3 17 -16v-46q0 -15 -17 -17l-226 -17q-17 0 -17 18z" />
<glyph unicode="&#xef;" horiz-adv-x="566" d="M196 9v806l-106 27q-17 3 -17 18v45q0 14 17 16l225 23q16 0 16 -19v-811l108 -27q17 -3 17 -16v-46q0 -15 -17 -17l-226 -17q-17 0 -17 18zM389 1073q-35 0 -59 24t-24 59t24 59t59 24t59 -24t24 -59t-24 -59t-59 -24zM87 1073q-35 0 -59 24t-24 59t24 59t59 24t59 -24 t24 -59t-24 -59t-59 -24z" />
<glyph unicode="&#xf0;" horiz-adv-x="1045" d="M95 466q0 110 33.5 199t89.5 144t124.5 84t142.5 29q163 0 269 -117q0 1 2.5 1.5t2.5 1.5q-72 182 -210 312l-223 -117q-6 -3 -11 -3q-7 0 -12 9l-36 69q-3 6 -3 9q0 7 10 12l181 96q-94 65 -202 103q-14 6 -14 11q0 3 1 7l20 78q3 10 14 10q3 0 11 -2q156 -45 290 -146 l164 87q5 3 11 3q7 0 11 -10l35 -69q3 -6 3 -10q0 -6 -10 -12l-125 -66q134 -132 210 -318.5t76 -381.5q0 -120 -28.5 -212.5t-71.5 -146.5t-101.5 -88t-112 -45.5t-109.5 -11.5q-54 0 -110 15t-115 51.5t-104 90.5t-74 140.5t-29 193.5zM232 480q0 -90 20 -161.5t50.5 -114 t72 -70t80 -38t78.5 -10.5q39 0 73 7t72.5 30t66 60t45.5 102.5t18 151.5q0 160 -88.5 267t-215.5 107q-109 0 -190.5 -86t-81.5 -245z" />
<glyph unicode="&#xf1;" horiz-adv-x="1085" d="M312 694v-678q0 -16 -17 -16h-101q-17 0 -17 16v799l-105 27q-17 3 -17 18v45q0 14 17 16l203 20q15 0 16 -19l14 -116q99 75 179 109.5t172 34.5q123 0 193.5 -68t70.5 -193v-575l108 -27q17 -3 17 -16v-46q0 -15 -17 -17l-226 -17q-16 0 -17 18v647q0 181 -178 181 q-144 0 -295 -143zM640 1072q-40 0 -92 33t-75 33q-34 0 -95 -56q-7 -6 -13 -6t-14 8q-24 29 -32 48q-2 6 -2 8q0 6 3 13q55 105 160 105q40 0 93 -32t77 -32q37 0 93 54q8 8 13 8t12 -8q16 -22 27 -40q8 -14 8 -20q0 -5 -3 -11q-27 -50 -71 -77.5t-89 -27.5z" />
<glyph unicode="&#xf2;" horiz-adv-x="1037" d="M95 475q0 143 43.5 247.5t139.5 166t237 61.5q207 0 317 -129.5t110 -345.5q0 -121 -27.5 -213.5t-69 -145t-99.5 -85.5t-110 -44t-110 -11q-57 0 -110 11t-113.5 44t-104.5 85.5t-73.5 145t-29.5 213.5zM235 472q0 -388 290 -388q44 0 80 8.5t73 34t62.5 67t41.5 112.5 t16 166q0 366 -284 366q-151 0 -215 -96t-64 -270zM318 1299h133q19 0 28 -4t24 -23l128 -165q13 -15 13 -23t-14 -8h-85q-23 0 -44 21l-173 158q-26 24 -26 34t16 10z" />
<glyph unicode="&#xf3;" horiz-adv-x="1037" d="M95 475q0 143 43.5 247.5t139.5 166t237 61.5q207 0 317 -129.5t110 -345.5q0 -121 -27.5 -213.5t-69 -145t-99.5 -85.5t-110 -44t-110 -11q-57 0 -110 11t-113.5 44t-104.5 85.5t-73.5 145t-29.5 213.5zM235 472q0 -388 290 -388q44 0 80 8.5t73 34t62.5 67t41.5 112.5 t16 166q0 366 -284 366q-151 0 -215 -96t-64 -270zM594 1299h133q15 0 15 -10q0 -11 -25 -34l-173 -158q-21 -21 -44 -21h-85q-13 0 -13 8q0 9 12 23l128 165q15 19 24 23t28 4z" />
<glyph unicode="&#xf4;" horiz-adv-x="1037" d="M458 1310h131q7 0 13.5 -2t12.5 -7t8.5 -7.5t9.5 -11.5t8 -10l124 -157q11 -13 11 -19q0 -7 -10 -11q-45 -20 -66 -20q-14 0 -41 24l-135 115l-135 -115q-27 -24 -41 -24q-19 0 -66 20q-10 4 -10 11q0 6 11 19l123 157q13 17 18.5 23t14 10.5t19.5 4.5zM95 475 q0 143 43.5 247.5t139.5 166t237 61.5q207 0 317 -129.5t110 -345.5q0 -121 -27.5 -213.5t-69 -145t-99.5 -85.5t-110 -44t-110 -11q-57 0 -110 11t-113.5 44t-104.5 85.5t-73.5 145t-29.5 213.5zM235 472q0 -388 290 -388q44 0 80 8.5t73 34t62.5 67t41.5 112.5t16 166 q0 366 -284 366q-151 0 -215 -96t-64 -270z" />
<glyph unicode="&#xf5;" horiz-adv-x="1037" d="M95 475q0 143 43.5 247.5t139.5 166t237 61.5q207 0 317 -129.5t110 -345.5q0 -121 -27.5 -213.5t-69 -145t-99.5 -85.5t-110 -44t-110 -11q-57 0 -110 11t-113.5 44t-104.5 85.5t-73.5 145t-29.5 213.5zM235 472q0 -388 290 -388q44 0 80 8.5t73 34t62.5 67t41.5 112.5 t16 166q0 366 -284 366q-151 0 -215 -96t-64 -270zM610 1072q-40 0 -92 33t-75 33q-34 0 -95 -56q-7 -6 -13 -6t-14 8q-24 29 -32 48q-2 6 -2 8q0 6 3 13q55 105 160 105q40 0 93 -32t77 -32q37 0 93 54q8 8 13 8t12 -8q16 -22 27 -40q8 -14 8 -20q0 -5 -3 -11 q-27 -50 -71 -77.5t-89 -27.5z" />
<glyph unicode="&#xf6;" horiz-adv-x="1037" d="M95 475q0 143 43.5 247.5t139.5 166t237 61.5q207 0 317 -129.5t110 -345.5q0 -121 -27.5 -213.5t-69 -145t-99.5 -85.5t-110 -44t-110 -11q-57 0 -110 11t-113.5 44t-104.5 85.5t-73.5 145t-29.5 213.5zM235 472q0 -388 290 -388q44 0 80 8.5t73 34t62.5 67t41.5 112.5 t16 166q0 366 -284 366q-151 0 -215 -96t-64 -270zM667 1073q-35 0 -59 24t-24 59t24 59t59 24t59 -24t24 -59t-24 -59t-59 -24zM365 1073q-35 0 -59 24t-24 59t24 59t59 24t59 -24t24 -59t-24 -59t-59 -24z" />
<glyph unicode="&#xf7;" horiz-adv-x="826" d="M743 601q12 0 12 -14v-86q0 -16 -12 -16h-660q-12 0 -12 12v90q0 14 12 14h660zM321 302q0 38 26.5 64.5t64.5 26.5q39 0 65.5 -26.5t26.5 -64.5t-26.5 -64.5t-65.5 -26.5q-38 0 -64.5 26.5t-26.5 64.5zM321 784q0 38 26.5 64.5t64.5 26.5q39 0 65.5 -26.5t26.5 -64.5 t-26.5 -64.5t-65.5 -26.5q-38 0 -64.5 26.5t-26.5 64.5z" />
<glyph unicode="&#xf8;" horiz-adv-x="1037" d="M95 475q0 143 43.5 247.5t139.5 166t237 61.5q125 0 218 -51l57 97q8 12 22 12h84q13 0 13 -13q0 -4 -3 -10l-88 -150q124 -127 124 -360q0 -121 -27.5 -213.5t-69 -145t-99.5 -85.5t-110 -44t-110 -11q-105 0 -191 37l-54 -92q-12 -19 -30 -19h-77q-15 0 -15 13 q0 7 4 14l82 140q-150 129 -150 406zM235 472q0 -195 74 -294l363 618q-64 42 -158 42q-151 0 -215 -96t-64 -270zM798 472q0 154 -51 243l-355 -605q56 -26 133 -26q44 0 80 8.5t73 34t62.5 67t41.5 112.5t16 166z" />
<glyph unicode="&#xf9;" horiz-adv-x="1101" d="M177 814l-105 27q-17 3 -17 18v45q0 14 17 16l224 22q16 0 16 -19v-653q0 -181 178 -181q144 0 295 143v678q0 16 17 16h102q17 0 17 -16v-796l108 -27q17 -3 17 -16v-46q0 -15 -17 -17l-208 -16q-15 0 -16 19l-13 109q-99 -75 -179 -109.5t-172 -34.5q-123 0 -193.5 68 t-70.5 193v577zM338 1299h133q19 0 28 -4t24 -23l128 -165q13 -15 13 -23t-14 -8h-85q-23 0 -44 21l-173 158q-26 24 -26 34t16 10z" />
<glyph unicode="&#xfa;" horiz-adv-x="1101" d="M177 814l-105 27q-17 3 -17 18v45q0 14 17 16l224 22q16 0 16 -19v-653q0 -181 178 -181q144 0 295 143v678q0 16 17 16h102q17 0 17 -16v-796l108 -27q17 -3 17 -16v-46q0 -15 -17 -17l-208 -16q-15 0 -16 19l-13 109q-99 -75 -179 -109.5t-172 -34.5q-123 0 -193.5 68 t-70.5 193v577zM644 1299h133q15 0 15 -10q0 -11 -25 -34l-173 -158q-21 -21 -44 -21h-85q-13 0 -13 8q0 9 12 23l128 165q15 19 24 23t28 4z" />
<glyph unicode="&#xfb;" horiz-adv-x="1101" d="M177 814l-105 27q-17 3 -17 18v45q0 14 17 16l224 22q16 0 16 -19v-653q0 -181 178 -181q144 0 295 143v678q0 16 17 16h102q17 0 17 -16v-796l108 -27q17 -3 17 -16v-46q0 -15 -17 -17l-208 -16q-15 0 -16 19l-13 109q-99 -75 -179 -109.5t-172 -34.5q-123 0 -193.5 68 t-70.5 193v577zM478 1310h131q7 0 13.5 -2t12.5 -7t8.5 -7.5t9.5 -11.5t8 -10l124 -157q11 -13 11 -19q0 -7 -10 -11q-45 -20 -66 -20q-14 0 -41 24l-135 115l-135 -115q-27 -24 -41 -24q-19 0 -66 20q-10 4 -10 11q0 6 11 19l123 157q13 17 18.5 23t14 10.5t19.5 4.5z" />
<glyph unicode="&#xfc;" horiz-adv-x="1095" d="M177 814l-105 27q-17 3 -17 18v45q0 14 17 16l224 22q16 0 16 -19v-653q0 -181 178 -181q144 0 295 143v678q0 16 17 16h102q17 0 17 -16v-796l108 -27q17 -3 17 -16v-46q0 -15 -17 -17l-208 -16q-15 0 -16 19l-13 109q-99 -75 -179 -109.5t-172 -34.5q-123 0 -193.5 68 t-70.5 193v577zM697 1073q-35 0 -59 24t-24 59t24 59t59 24t59 -24t24 -59t-24 -59t-59 -24zM395 1073q-35 0 -59 24t-24 59t24 59t59 24t59 -24t24 -59t-24 -59t-59 -24z" />
<glyph unicode="&#xfd;" horiz-adv-x="1014" d="M187 -330q48 0 90 14t76 43t61 59t53 76t42 80l38 82h-8q-80 0 -121.5 16.5t-70.5 60.5q-44 69 -100 279q-48 186 -106 436l-104 24q-17 3 -17 18v45q0 14 18 16l212 19q15 0 17 -10q8 -36 20 -103l15 -83q50 -276 111 -486q28 -96 83 -127q20 -12 70 -12q15 0 22 1 q116 281 244 777q8 31 28 31h108q22 0 22 -14q0 -8 -14 -56q-127 -457 -301 -843l-31 -69q-10 -21 -33 -67.5t-38 -70.5t-41.5 -63t-49 -60.5t-54.5 -48.5t-63.5 -40.5t-71 -23.5t-82.5 -10q-51 0 -87 11q-9 2 -9 15l12 73q2 14 13 14q26 -3 47 -3zM644 1299h133 q15 0 15 -10q0 -11 -25 -34l-173 -158q-21 -21 -44 -21h-85q-13 0 -13 8q0 9 12 23l128 165q15 19 24 23t28 4z" />
<glyph unicode="&#xfe;" horiz-adv-x="1083" d="M176 -400l1 1676l-105 27q-17 3 -17 18v45q0 14 17 16l224 23q16 0 16 -19v-559q156 120 303 120q373 0 373 -463q0 -244 -124.5 -376.5t-331.5 -132.5q-76 0 -170 23l-51 13v-411q0 -16 -16 -16h-103q-16 0 -16 16zM845 484q0 354 -271 354q-116 0 -262 -129v-595 q43 -11 60 -14q74 -16 139 -16q156 0 245 97.5t89 302.5z" />
<glyph unicode="&#xff;" horiz-adv-x="1014" d="M187 -330q48 0 90 14t76 43t61 59t53 76t42 80l38 82h-8q-80 0 -121.5 16.5t-70.5 60.5q-44 69 -100 279q-48 186 -106 436l-104 24q-17 3 -17 18v45q0 14 18 16l212 19q15 0 17 -10q8 -36 20 -103l15 -83q50 -276 111 -486q28 -96 83 -127q20 -12 70 -12q15 0 22 1 q116 281 244 777q8 31 28 31h108q22 0 22 -14q0 -8 -14 -56q-127 -457 -301 -843l-31 -69q-10 -21 -33 -67.5t-38 -70.5t-41.5 -63t-49 -60.5t-54.5 -48.5t-63.5 -40.5t-71 -23.5t-82.5 -10q-51 0 -87 11q-9 2 -9 15l12 73q2 14 13 14q26 -3 47 -3zM701 1073q-35 0 -59 24 t-24 59t24 59t59 24t59 -24t24 -59t-24 -59t-59 -24zM399 1073q-35 0 -59 24t-24 59t24 59t59 24t59 -24t24 -59t-24 -59t-59 -24z" />
<glyph unicode="&#x100;" horiz-adv-x="1118" d="M788 454l-217 711l-236 -711h453zM439 1158l-87 28q-16 6 -16 16v48q0 6 5 11t11 5h297q17 0 22 -16l396 -1228q2 -6 2 -9q0 -5 -5 -9t-10 -4h-118q-14 0 -18 16l-98 328h-519l-103 -328q-4 -16 -18 -16h-116q-16 0 -16 12q0 3 3 12zM362 1421v88q0 14 21 14h308 q11 0 16 -2t6 -4t1 -7v-90q0 -14 -20 -14h-309q-15 0 -19 3.5t-4 11.5z" />
<glyph unicode="&#x101;" horiz-adv-x="916" d="M763 546v-447q18 -9 99 -34q10 -3 12 -5t2 -9v-41q0 -8 -12 -9l-192 -20q-11 0 -14.5 4.5t-5.5 15.5l-15 115q-143 -140 -295 -140q-131 0 -201 70.5t-70 196.5q0 52 15 93.5t40 70t62 50t75 33t87 19t90 9.5t90 2h99v93q0 117 -56.5 170t-166.5 53q-85 0 -210 -57 l-20 -9q-6 -2 -8 -2q-7 0 -9 6l-17 70q-3 11 7 18l17 10q45 27 123.5 52t152.5 25q230 0 296 -177q25 -65 25 -226zM629 214v208q-179 0 -240 -8q-84 -11 -131.5 -47.5t-47.5 -115.5q0 -73 51.5 -116.5t128.5 -43.5q60 0 125 32t114 91zM276 1101v88q0 14 21 14h308 q11 0 16 -2t6 -4t1 -7v-90q0 -14 -20 -14h-309q-15 0 -19 3.5t-4 11.5z" />
<glyph unicode="&#x102;" horiz-adv-x="1118" d="M788 454l-217 711l-236 -711h453zM439 1158l-87 28q-16 6 -16 16v48q0 6 5 11t11 5h297q17 0 22 -16l396 -1228q2 -6 2 -9q0 -5 -5 -9t-10 -4h-118q-14 0 -18 16l-98 328h-519l-103 -328q-4 -16 -18 -16h-116q-16 0 -16 12q0 3 3 12zM547 1495q39 0 66.5 24t40.5 51 q7 13 13 13q4 0 9 -2l72 -28q11 -5 11 -13q0 -10 -10 -32q-23 -51 -75 -86.5t-127 -35.5t-127 35.5t-75 86.5q-10 22 -10 32q0 8 11 13l72 28q5 2 9 2q6 0 13 -13q13 -27 40.5 -51t66.5 -24z" />
<glyph unicode="&#x103;" horiz-adv-x="916" d="M763 546v-447q18 -9 99 -34q10 -3 12 -5t2 -9v-41q0 -8 -12 -9l-192 -20q-11 0 -14.5 4.5t-5.5 15.5l-15 115q-143 -140 -295 -140q-131 0 -201 70.5t-70 196.5q0 52 15 93.5t40 70t62 50t75 33t87 19t90 9.5t90 2h99v93q0 117 -56.5 170t-166.5 53q-85 0 -210 -57 l-20 -9q-6 -2 -8 -2q-7 0 -9 6l-17 70q-3 11 7 18l17 10q45 27 123.5 52t152.5 25q230 0 296 -177q25 -65 25 -226zM629 214v208q-179 0 -240 -8q-84 -11 -131.5 -47.5t-47.5 -115.5q0 -73 51.5 -116.5t128.5 -43.5q60 0 125 32t114 91zM444 1175q39 0 66.5 24t40.5 51 q7 13 13 13q4 0 9 -2l72 -28q11 -5 11 -13q0 -10 -10 -32q-23 -51 -75 -86.5t-127 -35.5t-127 35.5t-75 86.5q-10 22 -10 32q0 8 11 13l72 28q5 2 9 2q6 0 13 -13q13 -27 40.5 -51t66.5 -24z" />
<glyph unicode="&#x104;" horiz-adv-x="1147" d="M439 1158l-87 28q-16 6 -16 16v48q0 16 16 16h297q17 0 22 -16l396 -1228q2 -6 2 -10q0 -12 -15 -12h-80q-44 -52 -76 -115.5t-32 -100.5q0 -44 25 -66t66 -22q25 0 53 11q4 1 10 4t9.5 4.5t6.5 1.5q8 0 12 -11l23 -54q2 -4 2 -8q0 -6 -7 -12q-69 -50 -160 -50 q-68 0 -120.5 39.5t-52.5 119.5q0 69 54 154t121 153l-88 296h-519l-103 -328q-4 -16 -18 -16h-116q-15 0 -15 13q0 5 2 11zM788 454l-217 711l-236 -711h453z" />
<glyph unicode="&#x105;" horiz-adv-x="916" d="M866 -368q-69 -50 -165 -50q-43 0 -80.5 13.5t-66.5 50.5t-29 92q0 62 36.5 135t89.5 135l-14 108q-143 -140 -295 -140q-131 0 -201 70.5t-70 196.5q0 52 15 93.5t40 70t62 50t75 33t87 19t90 9.5t90 2h99v93q0 117 -56.5 170t-166.5 53q-83 0 -210 -57q-1 0 -6.5 -3 t-11.5 -5t-10 -2q-8 0 -10 9l-15 63q-1 5 -1 8q0 7 14 16q47 29 121.5 56t151.5 28h13q230 0 296 -177q25 -65 25 -226v-447q18 -9 99 -34q10 -3 12 -5t2 -9v-41q0 -8 -12 -9l-121 -12q-39 -48 -63 -107t-24 -98q0 -44 27.5 -66t68.5 -22q30 0 58 11q4 1 10 4t9.5 4.5 t6.5 1.5q8 0 12 -11l23 -54q2 -4 2 -7q0 -7 -7 -13zM629 214v208q-179 0 -240 -8q-84 -11 -131.5 -47.5t-47.5 -115.5q0 -73 51.5 -116.5t128.5 -43.5q60 0 125 32t114 91z" />
<glyph unicode="&#x106;" horiz-adv-x="1038" d="M701 87q60 0 120.5 11.5t90.5 22.5l31 11q6 2 8 2q9 0 14 -12l22 -64q2 -6 2 -8q0 -6 -10 -12q-4 -3 -12 -7t-35.5 -14.5t-58 -19t-79 -15t-99.5 -6.5q-291 0 -446.5 166t-155.5 484q0 141 42.5 263t119.5 211t190 139.5t248 50.5q76 0 145.5 -14t101.5 -28l31 -14 q16 -8 16 -21v-180q0 -16 -17 -16h-48q-10 0 -16 16l-46 123q-78 24 -154 24q-140 0 -247.5 -74t-162.5 -196t-55 -272q0 -259 113 -405t347 -146zM739 1612h133q15 0 15 -10q0 -11 -25 -34l-173 -158q-21 -21 -44 -21h-85q-13 0 -13 8q0 9 12 23l128 165q15 19 24 23t28 4z " />
<glyph unicode="&#x107;" horiz-adv-x="882" d="M730 719l-29 108q-69 16 -163 16q-135 0 -217.5 -105t-82.5 -275q0 -177 85.5 -276t242.5 -99q102 0 218 35q14 4 18 4q7 0 9.5 -4t4.5 -16l11 -65q0 -9 -12 -14q-124 -51 -259 -51q-224 0 -342.5 127.5t-118.5 358.5q0 218 122 352t321 134q98 0 269 -51q12 -3 12 -17 l-13 -162q-3 -17 -17 -17h-43q-11 0 -16 17zM621 1299h133q15 0 15 -10q0 -11 -25 -34l-173 -158q-21 -21 -44 -21h-85q-13 0 -13 8q0 9 12 23l128 165q15 19 24 23t28 4z" />
<glyph unicode="&#x108;" horiz-adv-x="1038" d="M701 87q60 0 120.5 11.5t90.5 22.5l31 11q6 2 8 2q9 0 14 -12l22 -64q2 -6 2 -8q0 -6 -10 -12q-4 -3 -12 -7t-35.5 -14.5t-58 -19t-79 -15t-99.5 -6.5q-291 0 -446.5 166t-155.5 484q0 141 42.5 263t119.5 211t190 139.5t248 50.5q76 0 145.5 -14t101.5 -28l31 -14 q16 -8 16 -21v-180q0 -16 -17 -16h-48q-10 0 -16 16l-46 123q-78 24 -154 24q-140 0 -247.5 -74t-162.5 -196t-55 -272q0 -259 113 -405t347 -146zM579 1628h131q7 0 13.5 -2t12.5 -7t8.5 -7.5t9.5 -11.5t8 -10l124 -157q11 -13 11 -19q0 -7 -10 -11q-45 -20 -66 -20 q-14 0 -41 24l-135 115l-135 -115q-27 -24 -41 -24q-19 0 -66 20q-10 4 -10 11q0 6 11 19l123 157q13 17 18.5 23t14 10.5t19.5 4.5z" />
<glyph unicode="&#x109;" horiz-adv-x="882" d="M458 1310h131q7 0 13.5 -2t12.5 -7t8.5 -7.5t9.5 -11.5t8 -10l124 -157q11 -13 11 -19q0 -7 -10 -11q-45 -20 -66 -20q-14 0 -41 24l-135 115l-135 -115q-27 -24 -41 -24q-19 0 -66 20q-10 4 -10 11q0 6 11 19l123 157q13 17 18.5 23t14 10.5t19.5 4.5zM730 719l-29 108 q-69 16 -163 16q-135 0 -217.5 -105t-82.5 -275q0 -177 85.5 -276t242.5 -99q102 0 218 35q14 4 18 4q7 0 9.5 -4t4.5 -16l11 -65q0 -9 -12 -14q-124 -51 -259 -51q-224 0 -342.5 127.5t-118.5 358.5q0 218 122 352t321 134q98 0 269 -51q12 -3 12 -17l-13 -162 q-3 -17 -17 -17h-43q-11 0 -16 17z" />
<glyph unicode="&#x10a;" horiz-adv-x="1038" d="M701 87q60 0 120.5 11.5t90.5 22.5l31 11q6 2 8 2q9 0 14 -12l22 -64q2 -6 2 -8q0 -6 -10 -12q-4 -3 -12 -7t-35.5 -14.5t-58 -19t-79 -15t-99.5 -6.5q-291 0 -446.5 166t-155.5 484q0 141 42.5 263t119.5 211t190 139.5t248 50.5q76 0 145.5 -14t101.5 -28l31 -14 q16 -8 16 -21v-180q0 -16 -17 -16h-48q-10 0 -16 16l-46 123q-78 24 -154 24q-140 0 -247.5 -74t-162.5 -196t-55 -272q0 -259 113 -405t347 -146zM550 1495q0 38 26.5 64.5t64.5 26.5q39 0 65.5 -26.5t26.5 -64.5t-26.5 -64.5t-65.5 -26.5q-38 0 -64.5 26.5t-26.5 64.5z " />
<glyph unicode="&#x10b;" horiz-adv-x="882" d="M730 719l-29 108q-69 16 -163 16q-135 0 -217.5 -105t-82.5 -275q0 -177 85.5 -276t242.5 -99q102 0 218 35q14 4 18 4q7 0 9.5 -4t4.5 -16l11 -65q0 -9 -12 -14q-124 -51 -259 -51q-224 0 -342.5 127.5t-118.5 358.5q0 218 122 352t321 134q98 0 269 -51q12 -3 12 -17 l-13 -162q-3 -17 -17 -17h-43q-11 0 -16 17zM426 1167q0 38 26.5 64.5t64.5 26.5q39 0 65.5 -26.5t26.5 -64.5t-26.5 -64.5t-65.5 -26.5q-38 0 -64.5 26.5t-26.5 64.5z" />
<glyph unicode="&#x10c;" horiz-adv-x="1038" d="M701 87q60 0 120.5 11.5t90.5 22.5l31 11q6 2 8 2q9 0 14 -12l22 -64q2 -6 2 -8q0 -6 -10 -12q-4 -3 -12 -7t-35.5 -14.5t-58 -19t-79 -15t-99.5 -6.5q-291 0 -446.5 166t-155.5 484q0 141 42.5 263t119.5 211t190 139.5t248 50.5q76 0 145.5 -14t101.5 -28l31 -14 q16 -8 16 -21v-180q0 -16 -17 -16h-48q-10 0 -16 16l-46 123q-78 24 -154 24q-140 0 -247.5 -74t-162.5 -196t-55 -272q0 -259 113 -405t347 -146zM716 1389h-131q-15 0 -23.5 6.5t-23.5 25.5l-129 163q-11 14 -11 19q0 7 10 11q45 20 66 20q14 0 41 -24l135 -115l135 115 q27 24 41 24q19 0 66 -20q10 -4 10 -11q0 -5 -11 -19l-123 -157q-13 -17 -18.5 -23t-14 -10.5t-19.5 -4.5z" />
<glyph unicode="&#x10d;" horiz-adv-x="882" d="M730 719l-29 108q-69 16 -163 16q-135 0 -217.5 -105t-82.5 -275q0 -177 85.5 -276t242.5 -99q102 0 218 35q14 4 18 4q7 0 9.5 -4t4.5 -16l11 -65q0 -9 -12 -14q-124 -51 -259 -51q-224 0 -342.5 127.5t-118.5 358.5q0 218 122 352t321 134q98 0 269 -51q12 -3 12 -17 l-13 -162q-3 -17 -17 -17h-43q-11 0 -16 17zM576 1076h-131q-15 0 -23.5 6.5t-23.5 25.5l-129 163q-11 14 -11 19q0 7 10 11q45 20 66 20q14 0 41 -24l135 -115l135 115q27 24 41 24q19 0 66 -20q10 -4 10 -11q0 -5 -11 -19l-123 -157q-13 -17 -18.5 -23t-14 -10.5 t-19.5 -4.5z" />
<glyph unicode="&#x10e;" horiz-adv-x="1205" d="M333 1156l2 -1057q47 -7 129 -7q222 0 361 150t139 389q0 60 -5 110.5t-18.5 106t-36 99t-60.5 84t-89 67t-123.5 42.5t-161.5 16h-137zM193 23v1118l-106 44q-16 6 -16 16v48q0 17 16 17h395q630 0 630 -631q0 -295 -173.5 -473.5t-470.5 -178.5q-69 0 -131.5 3.5 t-90.5 6.5l-27 3q-8 0 -17 7t-9 20zM576 1389h-131q-15 0 -23.5 6.5t-23.5 25.5l-129 163q-11 14 -11 19q0 7 10 11q45 20 66 20q14 0 41 -24l135 -115l135 115q27 24 41 24q19 0 66 -20q10 -4 10 -11q0 -5 -11 -19l-123 -157q-13 -17 -18.5 -23t-14 -10.5t-19.5 -4.5z" />
<glyph unicode="&#x10f;" horiz-adv-x="1224" d="M238 462q0 -74 12.5 -136t41 -118t84 -88t133.5 -32q116 0 262 129v595q-43 11 -60 14q-74 16 -139 16q-159 0 -246.5 -88.5t-87.5 -291.5zM769 1276l-105 27q-17 3 -17 18v45q0 16 17 16l224 23q16 0 16 -19v-1272l108 -27q17 -3 17 -16v-46q0 -14 -17 -17l-209 -16 q-19 0 -20 18l-10 91q-154 -122 -305 -122q-86 0 -152 27.5t-107 72.5t-67.5 109t-36.5 130.5t-10 143.5q0 242 123.5 365.5t332.5 123.5q96 0 218 -34v359zM1016 1114l46 271q3 15 21 15h122q14 0 14 -11q0 -4 -2 -10l-101 -284q-8 -20 -21 -20h-69q-13 0 -13 15q0 6 3 24z " />
<glyph unicode="&#x110;" horiz-adv-x="1207" d="M195 23v565h-112q-12 0 -12 12v84q0 14 12 14h112v443l-106 44q-16 6 -16 16v48q0 17 16 17h395q630 0 630 -631q0 -295 -173.5 -473.5t-470.5 -178.5q-69 0 -131.5 3.5t-90.5 6.5l-27 3q-8 0 -17 7t-9 20zM335 1156l1 -458h198q12 0 12 -14v-80q0 -16 -12 -16h-198v-489 q48 -7 130 -7q222 0 361 150t139 389q0 60 -4.5 110.5t-18.5 106t-36.5 99t-60.5 84t-88.5 67t-123.5 42.5t-162 16h-137z" />
<glyph unicode="&#x111;" horiz-adv-x="1084" d="M769 1276l-105 27q-17 3 -17 18v45q0 16 17 16l224 23q16 0 16 -19v-218h113q12 0 12 -14v-80q0 -16 -12 -16h-113v-944l108 -27q17 -5 17 -16v-46q0 -14 -17 -17l-209 -16q-19 0 -20 18l-10 91q-154 -122 -305 -122q-86 0 -152 27.5t-107 72.5t-67.5 109t-36.5 130.5 t-10 143.5q0 242 123.5 365.5t332.5 123.5q96 0 218 -34v141h-199q-12 0 -12 12v84q0 14 12 14h199v108zM238 462q0 -74 12.5 -136t41 -118t84 -88t133.5 -32q116 0 262 129v595q-43 11 -60 14q-74 16 -139 16q-159 0 -246.5 -88.5t-87.5 -291.5z" />
<glyph unicode="&#x112;" horiz-adv-x="966" d="M87 1266h793q16 0 21 -5t5 -21v-58q0 -16 -5 -21t-21 -5h-546v-424h400q16 0 21 -5t5 -21v-58q0 -16 -5 -21t-21 -5h-400v-512h546q16 0 21 -5t5 -21v-58q0 -16 -5 -21t-21 -5h-661q-17 0 -21.5 5t-4.5 21v1115l-106 44q-16 6 -16 16v48q0 17 16 17zM325 1421v88 q0 14 21 14h308q11 0 16 -2t6 -4t1 -7v-90q0 -14 -20 -14h-309q-15 0 -19 3.5t-4 11.5z" />
<glyph unicode="&#x113;" horiz-adv-x="970" d="M95 472q0 217 114 349.5t309 132.5q179 0 270.5 -107.5t91.5 -342.5v-21q0 -34 -18 -34h-623q16 -360 349 -360q119 0 234 47q10 5 16 5q7 0 10.5 -3t5.5 -14l13 -63q0 -11 -12 -18q-140 -67 -293 -67q-217 0 -342 130t-125 366zM516 840q-115 0 -187 -75t-87 -207h499 v26q0 122 -61.5 189t-163.5 67zM326 1101v88q0 14 21 14h308q11 0 16 -2t6 -4t1 -7v-90q0 -14 -20 -14h-309q-15 0 -19 3.5t-4 11.5z" />
<glyph unicode="&#x114;" horiz-adv-x="966" d="M87 1266h793q16 0 21 -5t5 -21v-58q0 -16 -5 -21t-21 -5h-546v-424h400q16 0 21 -5t5 -21v-58q0 -16 -5 -21t-21 -5h-400v-512h546q16 0 21 -5t5 -21v-58q0 -16 -5 -21t-21 -5h-661q-17 0 -21.5 5t-4.5 21v1115l-106 44q-16 6 -16 16v48q0 17 16 17zM547 1495 q39 0 66.5 24t40.5 51q7 13 13 13q4 0 9 -2l72 -28q11 -5 11 -13q0 -10 -10 -32q-23 -51 -75 -86.5t-127 -35.5t-127 35.5t-75 86.5q-10 22 -10 32q0 8 11 13l72 28q5 2 9 2q6 0 13 -13q13 -27 40.5 -51t66.5 -24z" />
<glyph unicode="&#x115;" horiz-adv-x="970" d="M95 472q0 217 114 349.5t309 132.5q179 0 270.5 -107.5t91.5 -342.5v-21q0 -34 -18 -34h-623q16 -360 349 -360q119 0 234 47q10 5 16 5q7 0 10.5 -3t5.5 -14l13 -63q0 -11 -12 -18q-140 -67 -293 -67q-217 0 -342 130t-125 366zM516 840q-115 0 -187 -75t-87 -207h499 v26q0 122 -61.5 189t-163.5 67zM524 1175q39 0 66.5 24t40.5 51q7 13 13 13q4 0 9 -2l72 -28q11 -5 11 -13q0 -10 -10 -32q-23 -51 -75 -86.5t-127 -35.5t-127 35.5t-75 86.5q-10 22 -10 32q0 8 11 13l72 28q5 2 9 2q6 0 13 -13q13 -27 40.5 -51t66.5 -24z" />
<glyph unicode="&#x116;" horiz-adv-x="966" d="M87 1266h793q16 0 21 -5t5 -21v-58q0 -16 -5 -21t-21 -5h-546v-424h400q16 0 21 -5t5 -21v-58q0 -16 -5 -21t-21 -5h-400v-512h546q16 0 21 -5t5 -21v-58q0 -16 -5 -21t-21 -5h-661q-17 0 -21.5 5t-4.5 21v1115l-106 44q-16 6 -16 16v48q0 17 16 17zM430 1495 q0 38 26.5 64.5t64.5 26.5q39 0 65.5 -26.5t26.5 -64.5t-26.5 -64.5t-65.5 -26.5q-38 0 -64.5 26.5t-26.5 64.5z" />
<glyph unicode="&#x117;" horiz-adv-x="970" d="M95 472q0 217 114 349.5t309 132.5q179 0 270.5 -107.5t91.5 -342.5v-21q0 -34 -18 -34h-623q16 -360 349 -360q119 0 234 47q10 5 16 5q7 0 10.5 -3t5.5 -14l13 -63q0 -11 -12 -18q-140 -67 -293 -67q-217 0 -342 130t-125 366zM516 840q-115 0 -187 -75t-87 -207h499 v26q0 122 -61.5 189t-163.5 67zM416 1167q0 38 26.5 64.5t64.5 26.5q39 0 65.5 -26.5t26.5 -64.5t-26.5 -64.5t-65.5 -26.5q-38 0 -64.5 26.5t-26.5 64.5z" />
<glyph unicode="&#x118;" horiz-adv-x="966" d="M902 -368q-69 -50 -165 -50q-43 0 -80.5 13.5t-66.5 50.5t-29 92q0 60 34.5 130.5t84.5 131.5h-461q-17 0 -21.5 5t-4.5 21v1115l-106 44q-16 6 -16 16v48q0 17 16 17h793q16 0 21 -5t5 -21v-58q0 -16 -5 -21t-21 -5h-546v-424h400q16 0 21 -5t5 -21v-58q0 -16 -5 -21 t-21 -5h-400v-512h546q16 0 21 -5t5 -21v-58q0 -16 -5 -21t-21 -5h-91q-43 -48 -70 -111t-27 -105q0 -44 27.5 -66t68.5 -22q30 0 58 11q4 1 10 4t9.5 4.5t6.5 1.5q8 0 12 -11l23 -54q2 -4 2 -7q0 -7 -7 -13z" />
<glyph unicode="&#x119;" horiz-adv-x="970" d="M858 -368q-69 -50 -165 -50q-43 0 -80.5 13.5t-66.5 50.5t-29 92q0 107 105 241q-30 -3 -61 -3q-217 0 -342 130t-125 366q0 217 114 349.5t309 132.5q179 0 270.5 -107.5t91.5 -342.5v-21q0 -34 -18 -34h-623q16 -360 349 -360q119 0 234 47q10 5 16 5q13 0 15 -15 l14 -69q0 -8 -12 -14q-52 -25 -99 -39q-47 -48 -77 -113t-30 -107q0 -44 27.5 -66t68.5 -22q30 0 58 11q4 1 10 4t9.5 4.5t6.5 1.5q8 0 12 -11l23 -54q2 -4 2 -8q0 -6 -7 -12zM515 840q-115 0 -187 -75t-87 -207h499v26q0 122 -61.5 189t-163.5 67z" />
<glyph unicode="&#x11a;" horiz-adv-x="966" d="M87 1266h793q16 0 21 -5t5 -21v-58q0 -16 -5 -21t-21 -5h-546v-424h400q16 0 21 -5t5 -21v-58q0 -16 -5 -21t-21 -5h-400v-512h546q16 0 21 -5t5 -21v-58q0 -16 -5 -21t-21 -5h-661q-17 0 -21.5 5t-4.5 21v1115l-106 44q-16 6 -16 16v48q0 17 16 17zM606 1389h-131 q-15 0 -23.5 6.5t-23.5 25.5l-129 163q-11 14 -11 19q0 7 10 11q45 20 66 20q14 0 41 -24l135 -115l135 115q27 24 41 24q19 0 66 -20q10 -4 10 -11q0 -5 -11 -19l-123 -157q-13 -17 -18.5 -23t-14 -10.5t-19.5 -4.5z" />
<glyph unicode="&#x11b;" horiz-adv-x="970" d="M95 472q0 217 114 349.5t309 132.5q179 0 270.5 -107.5t91.5 -342.5v-21q0 -34 -18 -34h-623q16 -360 349 -360q119 0 234 47q10 5 16 5q7 0 10.5 -3t5.5 -14l13 -63q0 -11 -12 -18q-140 -67 -293 -67q-217 0 -342 130t-125 366zM516 840q-115 0 -187 -75t-87 -207h499 v26q0 122 -61.5 189t-163.5 67zM569 1076h-131q-15 0 -23.5 6.5t-23.5 25.5l-129 163q-11 14 -11 19q0 7 10 11q45 20 66 20q14 0 41 -24l135 -115l135 115q27 24 41 24q19 0 66 -20q10 -4 10 -11q0 -5 -11 -19l-123 -157q-13 -17 -18.5 -23t-14 -10.5t-19.5 -4.5z" />
<glyph unicode="&#x11c;" horiz-adv-x="1161" d="M940 1031l-44 119l-34 10q-21 6 -31 8.5t-27 6t-36 4.5t-45 1q-116 0 -209 -44t-152 -120.5t-90 -177t-31 -215.5q0 -114 24.5 -208.5t75 -169t137 -116.5t202.5 -42q151 0 224 36v377h-204q-16 0 -16 16v78q0 6 5 11t11 5h329q6 0 11 -5t5 -11v-492q0 -18 -6.5 -30.5 t-13 -17t-19.5 -11.5q-128 -67 -312 -67q-157 0 -274.5 48.5t-187.5 136.5t-104.5 202.5t-34.5 255.5q0 196 74.5 347t218.5 237.5t339 86.5q76 0 146 -14t102 -28l32 -15q16 -7 16 -22v-180q0 -16 -17 -16h-48q-10 0 -16 16zM589 1628h131q7 0 13.5 -2t12.5 -7t8.5 -7.5 t9.5 -11.5t8 -10l124 -157q11 -13 11 -19q0 -7 -10 -11q-45 -20 -66 -20q-14 0 -41 24l-135 115l-135 -115q-27 -24 -41 -24q-19 0 -66 20q-10 4 -10 11q0 6 11 19l123 157q13 17 18.5 23t14 10.5t19.5 4.5z" />
<glyph unicode="&#x11d;" horiz-adv-x="1016" d="M238 462q0 -74 12.5 -136t41 -118t84 -88t133.5 -32q116 0 262 129v594q-123 31 -199 31q-159 0 -246.5 -88.5t-87.5 -291.5zM507 -440q-131 0 -265 36q-30 8 -42 15q-11 5 -11 15q0 4 1 9l14 61q3 15 15 15l10 -2l39 -10q104 -27 243 -27q119 0 176 51q33 29 52 76.5 t23.5 86t7.5 99.5q2 64 2 115q-152 -121 -304 -121q-86 0 -152 27.5t-107 72.5t-67.5 109t-36.5 130.5t-10 143.5q0 242 123.5 365.5t332.5 123.5q131 0 355 -76v-775q0 -88 -3 -148q-6 -107 -31.5 -183t-87.5 -132q-88 -77 -277 -77zM464 1310h131q7 0 13.5 -2t12.5 -7 t8.5 -7.5t9.5 -11.5t8 -10l124 -157q11 -13 11 -19q0 -7 -10 -11q-45 -20 -66 -20q-14 0 -41 24l-135 115l-135 -115q-27 -24 -41 -24q-19 0 -66 20q-10 4 -10 11q0 6 11 19l123 157q13 17 18.5 23t14 10.5t19.5 4.5z" />
<glyph unicode="&#x11e;" horiz-adv-x="1161" d="M940 1031l-44 119l-34 10q-21 6 -31 8.5t-27 6t-36 4.5t-45 1q-116 0 -209 -44t-152 -120.5t-90 -177t-31 -215.5q0 -114 24.5 -208.5t75 -169t137 -116.5t202.5 -42q151 0 224 36v377h-204q-16 0 -16 16v78q0 6 5 11t11 5h329q6 0 11 -5t5 -11v-492q0 -18 -6.5 -30.5 t-13 -17t-19.5 -11.5q-128 -67 -312 -67q-157 0 -274.5 48.5t-187.5 136.5t-104.5 202.5t-34.5 255.5q0 196 74.5 347t218.5 237.5t339 86.5q76 0 146 -14t102 -28l32 -15q16 -7 16 -22v-180q0 -16 -17 -16h-48q-10 0 -16 16zM646 1495q39 0 66.5 24t40.5 51q7 13 13 13 q4 0 9 -2l72 -28q11 -5 11 -13q0 -10 -10 -32q-23 -51 -75 -86.5t-127 -35.5t-127 35.5t-75 86.5q-10 22 -10 32q0 8 11 13l72 28q5 2 9 2q6 0 13 -13q13 -27 40.5 -51t66.5 -24z" />
<glyph unicode="&#x11f;" horiz-adv-x="1016" d="M238 462q0 -74 12.5 -136t41 -118t84 -88t133.5 -32q116 0 262 129v594q-123 31 -199 31q-159 0 -246.5 -88.5t-87.5 -291.5zM507 -440q-131 0 -265 36q-30 8 -42 15q-11 5 -11 15q0 4 1 9l14 61q3 15 15 15l10 -2l39 -10q104 -27 243 -27q119 0 176 51q33 29 52 76.5 t23.5 86t7.5 99.5q2 64 2 115q-152 -121 -304 -121q-86 0 -152 27.5t-107 72.5t-67.5 109t-36.5 130.5t-10 143.5q0 242 123.5 365.5t332.5 123.5q131 0 355 -76v-775q0 -88 -3 -148q-6 -107 -31.5 -183t-87.5 -132q-88 -77 -277 -77zM545 1175q39 0 66.5 24t40.5 51 q7 13 13 13q4 0 9 -2l72 -28q11 -5 11 -13q0 -10 -10 -32q-23 -51 -75 -86.5t-127 -35.5t-127 35.5t-75 86.5q-10 22 -10 32q0 8 11 13l72 28q5 2 9 2q6 0 13 -13q13 -27 40.5 -51t66.5 -24z" />
<glyph unicode="&#x120;" horiz-adv-x="1161" d="M940 1031l-44 119l-34 10q-21 6 -31 8.5t-27 6t-36 4.5t-45 1q-116 0 -209 -44t-152 -120.5t-90 -177t-31 -215.5q0 -114 24.5 -208.5t75 -169t137 -116.5t202.5 -42q151 0 224 36v377h-204q-16 0 -16 16v78q0 6 5 11t11 5h329q6 0 11 -5t5 -11v-492q0 -18 -6.5 -30.5 t-13 -17t-19.5 -11.5q-128 -67 -312 -67q-157 0 -274.5 48.5t-187.5 136.5t-104.5 202.5t-34.5 255.5q0 196 74.5 347t218.5 237.5t339 86.5q76 0 146 -14t102 -28l32 -15q16 -7 16 -22v-180q0 -16 -17 -16h-48q-10 0 -16 16zM560 1495q0 38 26.5 64.5t64.5 26.5 q39 0 65.5 -26.5t26.5 -64.5t-26.5 -64.5t-65.5 -26.5q-38 0 -64.5 26.5t-26.5 64.5z" />
<glyph unicode="&#x121;" horiz-adv-x="1016" d="M238 462q0 -74 12.5 -136t41 -118t84 -88t133.5 -32q116 0 262 129v594q-123 31 -199 31q-159 0 -246.5 -88.5t-87.5 -291.5zM507 -440q-131 0 -265 36q-30 8 -42 15q-11 5 -11 15q0 4 1 9l14 61q3 15 15 15l10 -2l39 -10q104 -27 243 -27q119 0 176 51q33 29 52 76.5 t23.5 86t7.5 99.5q2 64 2 115q-152 -121 -304 -121q-86 0 -152 27.5t-107 72.5t-67.5 109t-36.5 130.5t-10 143.5q0 242 123.5 365.5t332.5 123.5q131 0 355 -76v-775q0 -88 -3 -148q-6 -107 -31.5 -183t-87.5 -132q-88 -77 -277 -77zM454 1167q0 38 26.5 64.5t64.5 26.5 q39 0 65.5 -26.5t26.5 -64.5t-26.5 -64.5t-65.5 -26.5q-38 0 -64.5 26.5t-26.5 64.5z" />
<glyph unicode="&#x122;" horiz-adv-x="1161" d="M940 1031l-44 119l-34 10q-21 6 -31 8.5t-27 6t-36 4.5t-45 1q-116 0 -209 -44t-152 -120.5t-90 -177t-31 -215.5q0 -114 24.5 -208.5t75 -169t137 -116.5t202.5 -42q151 0 224 36v377h-204q-16 0 -16 16v78q0 6 5 11t11 5h329q6 0 11 -5t5 -11v-492q0 -18 -6.5 -30.5 t-13 -17t-19.5 -11.5q-128 -67 -312 -67q-157 0 -274.5 48.5t-187.5 136.5t-104.5 202.5t-34.5 255.5q0 196 74.5 347t218.5 237.5t339 86.5q76 0 146 -14t102 -28l32 -15q16 -7 16 -22v-180q0 -16 -17 -16h-48q-10 0 -16 16zM558 -407l46 271q3 15 21 15h122q14 0 14 -11 q0 -4 -2 -10l-101 -284q-7 -20 -21 -20h-69q-13 0 -13 15q0 6 3 24z" />
<glyph unicode="&#x123;" horiz-adv-x="1016" d="M238 462q0 -74 12.5 -136t41 -118t84 -88t133.5 -32q116 0 262 129v594q-123 31 -199 31q-159 0 -246.5 -88.5t-87.5 -291.5zM507 -440q-131 0 -265 36q-30 8 -42 15q-11 5 -11 16q0 3 2 13l16 58q4 11 13 11q4 0 8 -1l40 -9q117 -27 243 -27q119 0 176 51q33 29 52 76.5 t23.5 86t7.5 99.5q2 64 2 115q-152 -121 -304 -121q-86 0 -152 27.5t-107 72.5t-67.5 109t-36.5 130.5t-10 143.5q0 242 123.5 365.5t332.5 123.5q131 0 355 -76v-775q0 -88 -3 -148q-6 -107 -31.5 -183t-87.5 -132q-88 -77 -277 -77zM675 1362l-46 -271q-3 -15 -21 -15 h-122q-14 0 -14 11q0 4 2 10l101 284q8 20 21 20h69q13 0 13 -15q0 -6 -3 -24z" />
<glyph unicode="&#x124;" horiz-adv-x="1220" d="M579 1628h131q7 0 13.5 -2t12.5 -7t8.5 -7.5t9.5 -11.5t8 -10l124 -157q11 -13 11 -19q0 -7 -10 -11q-45 -20 -66 -20q-14 0 -41 24l-135 115l-135 -115q-27 -24 -41 -24q-19 0 -66 20q-10 4 -10 11q0 6 11 19l123 157q13 17 18.5 23t14 10.5t19.5 4.5zM199 1151l-112 34 q-16 4 -16 16v48q0 17 16 17h225q16 0 22 -6t6 -23v-586h590v589q0 16 5 21t21 5h89q17 0 21.5 -5t4.5 -21v-1214q0 -16 -4.5 -21t-21.5 -5h-89q-16 0 -21 5t-5 21v514h-590v-514q0 -16 -5 -21t-21 -5h-89q-17 0 -21.5 5t-4.5 21v1125z" />
<glyph unicode="&#x125;" horiz-adv-x="1086" d="M178 1276l-106 27q-17 3 -17 18v45q0 14 17 16l225 23q16 0 16 -19v-575q94 72 175 105.5t169 33.5q123 0 193.5 -68t70.5 -193v-575l108 -27q17 -5 17 -16v-46q0 -14 -17 -17l-226 -17q-17 0 -17 18v647q0 181 -178 181q-144 0 -295 -143v-678q0 -7 -5.5 -11.5 t-11.5 -4.5h-101q-17 0 -17 16v1260zM158 1730h131q7 0 13.5 -2t12.5 -7t8.5 -7.5t9.5 -11.5t8 -10l124 -157q11 -13 11 -19q0 -7 -10 -11q-45 -20 -66 -20q-14 0 -41 24l-135 115l-135 -115q-27 -24 -41 -24q-19 0 -66 20q-10 4 -10 11q0 6 11 19l123 157q13 17 18.5 23 t14 10.5t19.5 4.5z" />
<glyph unicode="&#x126;" horiz-adv-x="1258" d="M199 1151l-112 34q-16 4 -16 16v48q0 17 16 17h225q16 0 22 -6t6 -23v-256h590v259q0 16 5 21t21 5h89q17 0 21.5 -5t4.5 -21v-259h108q30 0 30 -21v-59q0 -24 -28 -24h-110v-851q0 -16 -4.5 -21t-21.5 -5h-89q-16 0 -21 5t-5 21v514h-590v-514q0 -16 -5 -21t-21 -5h-89 q-17 0 -21.5 5t-4.5 21v851h-98q-30 0 -30 26v55q0 23 28 23h100v170zM340 651h590v226h-590v-226z" />
<glyph unicode="&#x127;" horiz-adv-x="1086" d="M178 1276l-106 27q-17 3 -17 18v45q0 14 17 16l225 23q16 0 16 -19v-288h211q12 0 12 -14v-80q0 -16 -12 -16h-211v-177q94 72 175 105.5t169 33.5q123 0 193.5 -68t70.5 -193v-575l108 -27q17 -5 17 -16v-46q0 -14 -17 -17l-226 -17q-15 0 -17 18v647q0 181 -178 181 q-144 0 -295 -143v-678q0 -7 -5.5 -11.5t-11.5 -4.5h-101q-17 0 -17 16v972h-105q-12 0 -12 12v84q0 14 12 14h105v178z" />
<glyph unicode="&#x128;" horiz-adv-x="650" d="M405 1385q-40 0 -92 33t-75 33q-34 0 -95 -56q-7 -6 -13 -6t-14 8q-24 29 -32 48q-2 6 -2 8q0 5 3 13q55 105 160 105q40 0 93 -32t77 -32q37 0 93 54q8 8 13 8t12 -8q16 -22 27 -40q8 -14 8 -20q0 -5 -3 -11q-27 -50 -71 -77.5t-89 -27.5zM488 1184l-103 -20v-1062 l103 -20q18 -3 22 -7.5t4 -20.5v-28q0 -16 -5 -21t-21 -5h-348q-16 0 -21 5t-5 21v28q0 16 4 20.5t22 7.5l104 20v1062l-104 20q-18 3 -22 7.5t-4 20.5v28q0 16 5 21t21 5h348q16 0 21 -5t5 -21v-28q0 -16 -4.5 -20.5t-21.5 -7.5z" />
<glyph unicode="&#x129;" horiz-adv-x="503" d="M309 1072q-40 0 -92 33t-75 33q-34 0 -95 -56q-8 -6 -13 -6q-6 0 -14 8q-24 29 -32 48q-2 6 -2 8q0 6 3 13q55 105 160 105q40 0 93 -32t77 -32q37 0 93 54q8 8 13 8t12 -8q16 -22 27 -40q8 -14 8 -20q0 -5 -3 -11q-27 -50 -71 -77.5t-89 -27.5zM183 9v806l-106 27 q-17 3 -17 18v45q0 14 17 16l225 23q16 0 16 -19v-811l108 -27q17 -3 17 -16v-46q0 -15 -17 -17l-226 -17q-17 0 -17 18z" />
<glyph unicode="&#x12a;" horiz-adv-x="608" d="M478 1184l-103 -20v-1062l103 -20q18 -3 22 -7.5t4 -20.5v-28q0 -16 -5 -21t-21 -5h-348q-16 0 -21 5t-5 21v28q0 16 4 20.5t22 7.5l104 20v1062l-104 20q-18 3 -22 7.5t-4 20.5v28q0 16 5 21t21 5h348q16 0 21 -5t5 -21v-28q0 -16 -4.5 -20.5t-21.5 -7.5zM132 1421v88 q0 14 21 14h308q11 0 16 -2t6 -4t1 -7v-90q0 -14 -20 -14h-309q-15 0 -19 3.5t-4 11.5z" />
<glyph unicode="&#x12b;" horiz-adv-x="503" d="M183 9v806l-106 27q-17 3 -17 18v45q0 14 17 16l225 23q16 0 16 -19v-811l108 -27q17 -3 17 -16v-46q0 -15 -17 -17l-226 -17q-17 0 -17 18zM27 1101v88q0 14 21 14h308q11 0 16 -2t6 -4t1 -7v-90q0 -14 -20 -14h-309q-15 0 -19 3.5t-4 11.5z" />
<glyph unicode="&#x12c;" horiz-adv-x="608" d="M478 1184l-103 -20v-1062l103 -20q18 -3 22 -7.5t4 -20.5v-28q0 -16 -5 -21t-21 -5h-348q-16 0 -21 5t-5 21v28q0 16 4 20.5t22 7.5l104 20v1062l-104 20q-18 3 -22 7.5t-4 20.5v28q0 16 5 21t21 5h348q16 0 21 -5t5 -21v-28q0 -16 -4.5 -20.5t-21.5 -7.5zM306 1495 q39 0 66.5 24t40.5 51q7 13 13 13q4 0 9 -2l72 -28q11 -5 11 -13q0 -10 -10 -32q-23 -51 -75 -86.5t-127 -35.5t-127 35.5t-75 86.5q-10 22 -10 32q0 8 11 13l72 28q5 2 9 2q6 0 13 -13q13 -27 40.5 -51t66.5 -24z" />
<glyph unicode="&#x12d;" horiz-adv-x="503" d="M183 9v806l-106 27q-17 3 -17 18v45q0 14 17 16l225 23q16 0 16 -19v-811l108 -27q17 -3 17 -16v-46q0 -15 -17 -17l-226 -17q-17 0 -17 18zM214 1175q39 0 66.5 24t40.5 51q7 13 13 13q4 0 9 -2l72 -28q11 -5 11 -13q0 -10 -10 -32q-23 -51 -75 -86.5t-127 -35.5 t-127 35.5t-75 86.5q-10 22 -10 32q0 8 11 13l72 28q5 2 9 2q6 0 13 -13q13 -27 40.5 -51t66.5 -24z" />
<glyph unicode="&#x12e;" horiz-adv-x="608" d="M485 -368q-69 -50 -165 -50q-43 0 -80.5 13.5t-66.5 50.5t-29 92q0 60 34.5 130.5t84.5 131.5h-133q-16 0 -21 5t-5 21v28q0 16 4 20.5t22 7.5l104 20v1062l-104 20q-18 3 -22 7.5t-4 20.5v28q0 16 5 21t21 5h348q16 0 21 -5t5 -21v-28q0 -16 -4.5 -20.5t-21.5 -7.5 l-103 -20v-1062l103 -20q18 -3 22 -7.5t4 -20.5v-28q0 -16 -5 -21t-21 -5h-106q-43 -48 -70 -111t-27 -105q0 -44 27.5 -66t68.5 -22q30 0 58 11q4 1 10 4t9.5 4.5t6.5 1.5q8 0 12 -11l23 -54q2 -4 2 -8q0 -6 -7 -12z" />
<glyph unicode="&#x12f;" horiz-adv-x="503" d="M406 -368q-69 -50 -165 -50q-43 0 -80.5 13.5t-66.5 50.5t-29 92q0 60 34 129.5t85 131.5q-1 2 -1 10v806l-106 27q-17 3 -17 18v45q0 16 17 16l225 23q16 0 16 -19v-811l108 -27q17 -5 17 -16v-46q0 -14 -17 -17l-134 -10q-43 -48 -69.5 -110.5t-26.5 -103.5 q0 -44 27.5 -66t68.5 -22q30 0 58 11q4 1 10 4t9.5 4.5t6.5 1.5q8 0 12 -11l23 -54q2 -4 2 -7q0 -7 -7 -13zM134 1208q0 38 26.5 64.5t64.5 26.5q39 0 65.5 -26.5t26.5 -64.5t-26.5 -64.5t-65.5 -26.5q-38 0 -64.5 26.5t-26.5 64.5z" />
<glyph unicode="&#x130;" horiz-adv-x="632" d="M488 1184l-103 -20v-1062l103 -20q18 -3 22 -7.5t4 -20.5v-28q0 -16 -5 -21t-21 -5h-348q-16 0 -21 5t-5 21v28q0 16 4 20.5t22 7.5l104 20v1062l-104 20q-18 3 -22 7.5t-4 20.5v28q0 16 5 21t21 5h348q16 0 21 -5t5 -21v-28q0 -16 -4.5 -20.5t-21.5 -7.5zM250 1495 q0 38 26.5 64.5t64.5 26.5q39 0 65.5 -26.5t26.5 -64.5t-26.5 -64.5t-65.5 -26.5q-38 0 -64.5 26.5t-26.5 64.5z" />
<glyph unicode="&#x131;" horiz-adv-x="503" d="M183 9v806l-106 27q-17 3 -17 18v45q0 14 17 16l225 23q16 0 16 -19v-811l108 -27q17 -3 17 -16v-46q0 -15 -17 -17l-226 -17q-17 0 -17 18z" />
<glyph unicode="&#x132;" horiz-adv-x="1238" d="M948 1156h-318q-6 0 -11 5t-5 11v78q0 6 5 11t11 5h443q6 0 11 -5t5 -11v-1233q0 -128 -28 -191q-27 -61 -77 -88t-132 -27q-76 0 -165 32q-18 6 -18 20q0 1 2 12.5t5.5 30t5.5 31.5q2 16 17 16q2 0 25.5 -5.5t55 -11.5t52.5 -6q33 0 56 10.5t34.5 24.5t17.5 41t7 46 t1 54v1150zM478 1184l-103 -20v-1062l103 -20q18 -3 22 -7.5t4 -20.5v-28q0 -16 -5 -21t-21 -5h-348q-16 0 -21 5t-5 21v28q0 16 4 20.5t22 7.5l104 20v1062l-104 20q-18 3 -22 7.5t-4 20.5v28q0 16 5 21t21 5h348q16 0 21 -5t5 -21v-28q0 -16 -4.5 -20.5t-21.5 -7.5z" />
<glyph unicode="&#x133;" horiz-adv-x="939" d="M183 9v806l-106 27q-17 3 -17 18v45q0 15 17 17l225 22q16 0 16 -19v-811l108 -27q17 -3 17 -16v-46q0 -15 -17 -17l-226 -17q-16 0 -17 18zM134 1208q0 38 26.5 64.5t64.5 26.5q39 0 65.5 -26.5t26.5 -64.5t-26.5 -64.5t-65.5 -26.5q-38 0 -64.5 26.5t-26.5 64.5z M812 -115q0 -142 -70 -230q-66 -85 -256 -94q-12 0 -15 13q-5 58 -8 72v2q0 4 1.5 7.5t3 5t5.5 3t6 2t7 1t7 0.5q184 16 184 212v936l-106 27q-17 3 -17 18v45q0 14 17 16l225 23q16 0 16 -19v-1040zM632 1209q0 38 26.5 64.5t64.5 26.5q39 0 65.5 -26.5t26.5 -64.5 t-26.5 -64.5t-65.5 -26.5q-38 0 -64.5 26.5t-26.5 64.5z" />
<glyph unicode="&#x134;" horiz-adv-x="634" d="M189 1628h131q7 0 13.5 -2t12.5 -7t8.5 -7.5t9.5 -11.5t8 -10l124 -157q11 -13 11 -19q0 -7 -10 -11q-45 -20 -66 -20q-14 0 -41 24l-135 115l-135 -115q-27 -24 -41 -24q-19 0 -66 20q-10 4 -10 11q0 6 11 19l123 157q13 17 18.5 23t14 10.5t19.5 4.5zM344 1156h-318 q-6 0 -11 5t-5 11v78q0 6 5 11t11 5h443q6 0 11 -5t5 -11v-1233q0 -128 -28 -191q-27 -61 -77 -88t-132 -27q-76 0 -165 32q-18 6 -18 20q0 1 2 12.5t5.5 30t5.5 31.5q2 16 17 16q2 0 25.5 -5.5t55 -11.5t52.5 -6q33 0 56 10.5t34.5 24.5t17.5 41t7 46t1 54v1150z" />
<glyph unicode="&#x135;" horiz-adv-x="481" d="M354 -113q0 -142 -70 -230q-66 -85 -256 -94q-14 0 -15 13l-8 74q0 15 30 19q184 16 184 212v936l-111 27q-17 3 -17 18v45q0 14 17 16l230 23q16 0 16 -19v-1040zM188 1310h131q7 0 13.5 -2t12.5 -7t8.5 -7.5t9.5 -11.5t8 -10l124 -157q11 -13 11 -19q0 -7 -10 -11 q-45 -20 -66 -20q-14 0 -41 24l-135 115l-135 -115q-27 -24 -41 -24q-19 0 -66 20q-10 4 -10 11q0 6 11 19l123 157q13 17 18.5 23t14 10.5t19.5 4.5z" />
<glyph unicode="&#x136;" horiz-adv-x="1133" d="M615 660q64 -20 110 -70t65.5 -97t46.5 -124.5t44 -112.5q43 -92 84.5 -125t115.5 -33q17 0 21.5 -5t4.5 -21v-58q0 -16 -4.5 -21t-21.5 -5q-113 0 -179.5 32.5t-120.5 124.5q-22 36 -42 90t-33 99t-37 93t-52.5 81t-79 54.5t-118.5 21.5h-78v-558q0 -16 -4.5 -21 t-21.5 -5h-89q-17 0 -21.5 5t-4.5 23v1123l-112 34q-16 4 -16 16v48q0 17 16 17h227q16 0 21 -5t5 -22v-545h101q103 0 160 111q21 40 40.5 97.5t32 101.5t36 93t52.5 83t80.5 60.5t121.5 35.5q27 4 70 4q12 0 16.5 -4.5t4.5 -19.5v-61q0 -16 -4 -21t-17 -5q-31 0 -59 -6 q-47 -11 -82.5 -43.5t-58.5 -80t-39 -93.5l-36 -102q-19 -55 -36 -87q-37 -73 -109 -97zM479 -407l46 271q3 15 21 15h122q14 0 14 -11q0 -4 -2 -10l-101 -284q-7 -20 -21 -20h-69q-13 0 -13 15q0 6 3 24z" />
<glyph unicode="&#x137;" horiz-adv-x="1005" d="M938 -9q-252 0 -312 208q-17 60 -26.5 89.5t-27 69.5t-34.5 58t-44 31.5t-61 13.5h-121v-445q0 -16 -16 -16h-102q-17 0 -17 16v1260l-105 27q-17 3 -17 18v45q0 14 17 16l224 23q15 0 16 -19v-815h118q24 0 45 7t36 14.5t31 27.5l25 31q8 11 22 40.5t18.5 40t18.5 45.5 q38 91 104 129.5t183 38.5q18 0 23.5 -4t5.5 -20v-63q0 -16 -5.5 -20t-23.5 -4q-68 0 -103 -26t-62 -77q-6 -11 -20.5 -41t-24 -46.5t-26 -40.5t-39 -42t-50.5 -32q59 -25 89.5 -79.5t56.5 -153.5q26 -94 68.5 -140t135.5 -54q18 0 23.5 -4t5.5 -20v-63q0 -16 -5.5 -20 t-23.5 -4zM409 -407l46 271q3 15 21 15h122q14 0 14 -11q0 -4 -2 -10l-101 -284q-7 -20 -21 -20h-69q-13 0 -13 15q0 6 3 24z" />
<glyph unicode="&#x138;" horiz-adv-x="964" d="M178 813l-106 27q-17 3 -17 18v45q0 14 17 16l225 23q16 0 16 -19v-394h119q27 0 49 10t36 21.5t30 39t22.5 42t21 52.5t19.5 50q81 194 290 194q22 0 22 -13v-83q0 -15 -24 -15q-63 0 -103 -30t-59.5 -75.5t-35.5 -92t-47 -86t-80 -52.5q47 -19 76.5 -57.5t40 -80.5 t24 -88t30 -81.5t58 -59t106.5 -23.5q18 0 18 -17v-74q0 -12 -4.5 -15t-15.5 -3q-125 0 -193.5 45.5t-101.5 145.5q-13 41 -21 63l-20 51q-12 30 -21.5 45t-23.5 32.5t-29 25.5t-35 13.5t-44 5.5h-104v-403q0 -16 -16 -16h-103q-16 0 -16 16v797z" />
<glyph unicode="&#x139;" horiz-adv-x="826" d="M147 128v1112q0 16 4.5 21t21.5 5h89q16 0 21 -5t5 -21v-1090q0 -24 15.5 -32t52.5 -8h349l35 94q6 16 16 16h48q17 0 17 -16v-183q0 -21 -16 -21h-496q-80 0 -121 30.5t-41 97.5zM359 1612h133q15 0 15 -10q0 -11 -25 -34l-173 -158q-21 -21 -44 -21h-85q-13 0 -13 8 q0 9 12 23l128 165q15 19 24 23t28 4z" />
<glyph unicode="&#x13a;" horiz-adv-x="564" d="M313 1386l1 -1116q0 -183 153 -183q21 0 66 6q9 0 10 -11l11 -81q0 -11 -12 -13q-62 -12 -114 -12q-127 0 -188.5 73t-61.5 221v1006l-106 27q-17 3 -17 18v45q0 14 17 16l225 23q16 0 16 -19zM374 1735h133q15 0 15 -10q0 -11 -25 -34l-173 -158q-21 -21 -44 -21h-85 q-13 0 -13 8q0 9 12 23l128 165q15 19 24 23t28 4z" />
<glyph unicode="&#x13b;" horiz-adv-x="826" d="M147 128v1112q0 16 4.5 21t21.5 5h89q16 0 21 -5t5 -21v-1090q0 -24 15.5 -32t52.5 -8h349l35 94q6 16 16 16h48q17 0 17 -16v-183q0 -21 -16 -21h-496q-80 0 -121 30.5t-41 97.5zM369 -407l46 271q3 15 21 15h122q14 0 14 -11q0 -4 -2 -10l-101 -284q-7 -20 -21 -20h-69 q-13 0 -13 15q0 6 3 24z" />
<glyph unicode="&#x13c;" horiz-adv-x="564" d="M313 1386l1 -1116q0 -183 153 -183q21 0 66 6q9 0 10 -11l11 -81q0 -11 -12 -13q-62 -12 -114 -12q-127 0 -188.5 73t-61.5 221v1006l-106 27q-17 3 -17 18v45q0 14 17 16l225 23q16 0 16 -19zM249 -407l46 271q3 15 21 15h122q14 0 14 -11q0 -4 -2 -10l-101 -284 q-7 -20 -21 -20h-69q-13 0 -13 15q0 6 3 24z" />
<glyph unicode="&#x13d;" horiz-adv-x="826" d="M147 128v1112q0 16 4.5 21t21.5 5h89q16 0 21 -5t5 -21v-1090q0 -24 15.5 -32t52.5 -8h349l35 94q6 16 16 16h48q17 0 17 -16v-183q0 -21 -16 -21h-496q-80 0 -121 30.5t-41 97.5zM507 980l46 271q3 15 21 15h122q14 0 14 -11q0 -4 -2 -10l-101 -284q-7 -20 -21 -20h-69 q-13 0 -13 15q0 6 3 24z" />
<glyph unicode="&#x13e;" horiz-adv-x="639" d="M313 1386l1 -1116q0 -183 153 -183q21 0 66 6q9 0 10 -11l11 -81q0 -11 -12 -13q-62 -12 -114 -12q-127 0 -188.5 73t-61.5 221v1006l-106 27q-17 3 -17 18v45q0 14 17 16l225 23q16 0 16 -19zM435 1114l46 271q3 15 21 15h122q14 0 14 -11q0 -4 -2 -10l-101 -284 q-7 -20 -21 -20h-69q-13 0 -13 15q0 6 3 24z" />
<glyph unicode="&#x13f;" horiz-adv-x="826" d="M147 128v1112q0 16 4.5 21t21.5 5h89q16 0 21 -5t5 -21v-1090q0 -24 15.5 -32t52.5 -8h349l35 94q6 16 16 16h48q17 0 17 -16v-183q0 -21 -16 -21h-496q-80 0 -121 30.5t-41 97.5zM468 709q0 38 26.5 64.5t64.5 26.5q39 0 65.5 -26.5t26.5 -64.5t-26.5 -64.5t-65.5 -26.5 q-38 0 -64.5 26.5t-26.5 64.5z" />
<glyph unicode="&#x140;" horiz-adv-x="601" d="M313 1386l1 -1116q0 -183 153 -183q21 0 66 6q9 0 10 -11l11 -81q0 -11 -12 -13q-62 -12 -114 -12q-127 0 -188.5 73t-61.5 221v1006l-106 27q-17 3 -17 18v45q0 14 17 16l225 23q16 0 16 -19zM418 718q0 38 26.5 64.5t64.5 26.5q39 0 65.5 -26.5t26.5 -64.5t-26.5 -64.5 t-65.5 -26.5q-38 0 -64.5 26.5t-26.5 64.5z" />
<glyph unicode="&#x141;" horiz-adv-x="881" d="M202 128v349l-103 -44q-8 -4 -15 -4q-13 0 -13 18v67q0 25 28 37l103 44v645q0 16 5 21t21 5h89q17 0 21.5 -5t4.5 -21v-585l224 95q7 3 14 3q14 0 14 -17v-69q0 -15 -6.5 -22t-21.5 -13l-224 -95v-387q0 -24 15.5 -32t52.5 -8h349l35 94q6 16 17 16h47q17 0 17 -16v-183 q0 -21 -16 -21h-496q-80 0 -121 30.5t-41 97.5z" />
<glyph unicode="&#x142;" horiz-adv-x="589" d="M336 1386v-728l215 92q7 3 14 3q14 0 14 -17v-69q0 -15 -6.5 -22t-21.5 -13l-214 -92v-270q0 -183 153 -183q21 0 66 6q9 0 10 -11l11 -81q0 -12 -12 -13q-62 -12 -114 -12q-127 0 -188.5 73t-61.5 221v213l-118 -50q-8 -4 -15 -4q-13 0 -13 18v67q0 24 26 36l120 51v675 l-106 27q-17 3 -17 18v45q0 14 17 16l225 23q16 0 16 -19z" />
<glyph unicode="&#x143;" horiz-adv-x="1264" d="M199 1151l-112 34q-16 4 -16 16v48q0 17 16 17h263q14 0 23 -16l556 -963l39 -79h6v1032q0 16 5 21t21 5h89q17 0 21.5 -5t4.5 -21v-1214q0 -16 -4.5 -21t-21.5 -5h-111q-27 0 -42 26l-548 951q-12 20 -22.5 42t-15.5 34l-4 12h-6v-1039q0 -16 -5 -21t-21 -5h-89 q-17 0 -21.5 5t-4.5 21v1125zM799 1612h133q15 0 15 -10q0 -11 -25 -34l-173 -158q-21 -21 -44 -21h-85q-13 0 -13 8q0 9 12 23l128 165q15 19 24 23t28 4z" />
<glyph unicode="&#x144;" horiz-adv-x="1085" d="M312 694v-678q0 -16 -17 -16h-101q-17 0 -17 16v799l-105 27q-17 3 -17 18v45q0 14 17 16l203 20q15 0 16 -19l14 -116q99 75 179 109.5t172 34.5q123 0 193.5 -68t70.5 -193v-575l108 -27q17 -3 17 -16v-46q0 -15 -17 -17l-226 -17q-16 0 -17 18v647q0 181 -178 181 q-144 0 -295 -143zM634 1299h133q15 0 15 -10q0 -11 -25 -34l-173 -158q-21 -21 -44 -21h-85q-13 0 -13 8q0 9 12 23l128 165q15 19 24 23t28 4z" />
<glyph unicode="&#x145;" horiz-adv-x="1264" d="M199 1151l-112 34q-16 4 -16 16v48q0 17 16 17h263q14 0 23 -16l556 -963l39 -79h6v1032q0 16 5 21t21 5h89q17 0 21.5 -5t4.5 -21v-1214q0 -16 -4.5 -21t-21.5 -5h-111q-27 0 -42 26l-548 951q-12 20 -22.5 42t-15.5 34l-4 12h-6v-1039q0 -16 -5 -21t-21 -5h-89 q-17 0 -21.5 5t-4.5 21v1125zM519 -407l46 271q3 15 21 15h122q14 0 14 -11q0 -4 -2 -10l-101 -284q-7 -20 -21 -20h-69q-13 0 -13 15q0 6 3 24z" />
<glyph unicode="&#x146;" horiz-adv-x="1085" d="M312 694v-678q0 -16 -17 -16h-101q-17 0 -17 16v799l-105 27q-17 3 -17 18v45q0 14 17 16l203 20q15 0 16 -19l14 -116q99 75 179 109.5t172 34.5q123 0 193.5 -68t70.5 -193v-575l108 -27q17 -3 17 -16v-46q0 -15 -17 -17l-226 -17q-16 0 -17 18v647q0 181 -178 181 q-144 0 -295 -143zM439 -407l46 271q3 15 21 15h122q14 0 14 -11q0 -4 -2 -10l-101 -284q-7 -20 -21 -20h-69q-13 0 -13 15q0 6 3 24z" />
<glyph unicode="&#x147;" horiz-adv-x="1264" d="M199 1151l-112 34q-16 4 -16 16v48q0 17 16 17h263q14 0 23 -16l556 -963l39 -79h6v1032q0 16 5 21t21 5h89q17 0 21.5 -5t4.5 -21v-1214q0 -16 -4.5 -21t-21.5 -5h-111q-27 0 -42 26l-548 951q-12 20 -22.5 42t-15.5 34l-4 12h-6v-1039q0 -16 -5 -21t-21 -5h-89 q-17 0 -21.5 5t-4.5 21v1125zM751 1389h-131q-15 0 -23.5 6.5t-23.5 25.5l-129 163q-11 14 -11 19q0 7 10 11q45 20 66 20q14 0 41 -24l135 -115l135 115q27 24 41 24q19 0 66 -20q10 -4 10 -11q0 -5 -11 -19l-123 -157q-13 -17 -18.5 -23t-14 -10.5t-19.5 -4.5z" />
<glyph unicode="&#x148;" horiz-adv-x="1085" d="M312 694v-678q0 -16 -17 -16h-101q-17 0 -17 16v799l-105 27q-17 3 -17 18v45q0 14 17 16l203 20q15 0 16 -19l14 -116q99 75 179 109.5t172 34.5q123 0 193.5 -68t70.5 -193v-575l108 -27q17 -3 17 -16v-46q0 -15 -17 -17l-226 -17q-16 0 -17 18v647q0 181 -178 181 q-144 0 -295 -143zM588 1076h-131q-15 0 -23.5 6.5t-23.5 25.5l-129 163q-11 14 -11 19q0 7 10 11q45 20 66 20q14 0 41 -24l135 -115l135 115q27 24 41 24q19 0 66 -20q10 -4 10 -11q0 -5 -11 -19l-123 -157q-13 -17 -18.5 -23t-14 -10.5t-19.5 -4.5z" />
<glyph unicode="&#x149;" horiz-adv-x="1217" d="M443 694v-678q0 -16 -17 -16h-101q-17 0 -17 16v799l-105 27q-17 3 -17 18v45q0 14 17 16l203 20q15 0 16 -19l14 -116q99 75 179 109.5t172 34.5q123 0 193.5 -68t70.5 -193v-575l108 -27q17 -3 17 -16v-46q0 -15 -17 -17l-226 -17q-15 0 -17 18v647q0 181 -178 181 q-144 0 -295 -143zM14 981l46 271q3 15 21 15h122q14 0 14 -11q0 -4 -2 -10l-101 -284q-7 -20 -21 -20h-69q-13 0 -13 15q0 6 3 24z" />
<glyph unicode="&#x14a;" horiz-adv-x="1264" d="M199 1151l-112 34q-16 4 -16 16v48q0 17 16 17h263q14 0 23 -16l556 -963l39 -79h6v1032q0 16 5 21t21 5h89q17 0 21.5 -5t4.5 -21v-1162q0 -137 -25 -217q-21 -64 -57 -115.5t-75 -79.5t-74 -42.5t-62 -14.5q-14 0 -21 17q-29 70 -29 76q0 9 17 17q3 2 5 3 q163 80 163 212q0 40 -17.5 81.5t-52.5 100.5l-280 480l-219 381q-12 20 -22.5 42t-15.5 34l-4 12h-6v-1039q0 -16 -5 -21t-21 -5h-89q-17 0 -21.5 5t-4.5 21v1125z" />
<glyph unicode="&#x14b;" horiz-adv-x="1052" d="M790 -120v776q0 181 -178 181q-144 0 -295 -143v-678q0 -16 -17 -16h-101q-17 0 -17 16v799l-110 27q-17 3 -17 18v45q0 14 17 16l208 20q15 0 16 -19l14 -116q99 75 179 109.5t172 34.5q123 0 193.5 -68t70.5 -193v-803q0 -142 -70 -230q-66 -85 -256 -94q-12 0 -15 13 q-5 58 -8 72v2q0 4 1.5 7.5t3 5t5.5 3t6 2t7 1t7 0.5q184 16 184 212z" />
<glyph unicode="&#x14c;" horiz-adv-x="1217" d="M609 -24q-52 0 -101 8t-101.5 28.5t-97 53t-85.5 84.5t-69.5 119t-45 161t-16.5 207q0 146 27.5 261.5t86.5 205t160.5 138t241.5 48.5q112 0 200 -32t146.5 -89t97 -140t55 -179.5t16.5 -212.5q0 -156 -32 -276t-82.5 -191t-120.5 -116.5t-137.5 -61.5t-142.5 -16z M608 86q368 0 368 559q0 536 -369 536q-84 0 -149 -29.5t-105.5 -78.5t-66 -120t-35.5 -145.5t-10 -162.5q0 -140 23.5 -244.5t59 -163t87 -94t97.5 -46.5t100 -11zM446 1421v88q0 14 21 14h308q11 0 16 -2t6 -4t1 -7v-90q0 -14 -20 -14h-309q-15 0 -19 3.5t-4 11.5z" />
<glyph unicode="&#x14d;" horiz-adv-x="1037" d="M95 475q0 143 43.5 247.5t139.5 166t237 61.5q207 0 317 -129.5t110 -345.5q0 -121 -27.5 -213.5t-69 -145t-99.5 -85.5t-110 -44t-110 -11q-57 0 -110 11t-113.5 44t-104.5 85.5t-73.5 145t-29.5 213.5zM235 472q0 -388 290 -388q44 0 80 8.5t73 34t62.5 67t41.5 112.5 t16 166q0 366 -284 366q-151 0 -215 -96t-64 -270zM346 1101v88q0 14 21 14h308q11 0 16 -2t6 -4t1 -7v-90q0 -14 -20 -14h-309q-15 0 -19 3.5t-4 11.5z" />
<glyph unicode="&#x14e;" horiz-adv-x="1217" d="M609 -24q-52 0 -101 8t-101.5 28.5t-97 53t-85.5 84.5t-69.5 119t-45 161t-16.5 207q0 146 27.5 261.5t86.5 205t160.5 138t241.5 48.5q112 0 200 -32t146.5 -89t97 -140t55 -179.5t16.5 -212.5q0 -156 -32 -276t-82.5 -191t-120.5 -116.5t-137.5 -61.5t-142.5 -16z M608 86q368 0 368 559q0 536 -369 536q-84 0 -149 -29.5t-105.5 -78.5t-66 -120t-35.5 -145.5t-10 -162.5q0 -140 23.5 -244.5t59 -163t87 -94t97.5 -46.5t100 -11zM633 1505q39 0 66.5 24t40.5 51q7 13 13 13q4 0 9 -2l72 -28q11 -5 11 -13q0 -10 -10 -32 q-23 -51 -75 -86.5t-127 -35.5t-127 35.5t-75 86.5q-10 22 -10 32q0 8 11 13l72 28q5 2 9 2q6 0 13 -13q13 -27 40.5 -51t66.5 -24z" />
<glyph unicode="&#x14f;" horiz-adv-x="1037" d="M95 475q0 143 43.5 247.5t139.5 166t237 61.5q207 0 317 -129.5t110 -345.5q0 -121 -27.5 -213.5t-69 -145t-99.5 -85.5t-110 -44t-110 -11q-57 0 -110 11t-113.5 44t-104.5 85.5t-73.5 145t-29.5 213.5zM235 472q0 -388 290 -388q44 0 80 8.5t73 34t62.5 67t41.5 112.5 t16 166q0 366 -284 366q-151 0 -215 -96t-64 -270zM524 1175q39 0 66.5 24t40.5 51q7 13 13 13q4 0 9 -2l72 -28q11 -5 11 -13q0 -10 -10 -32q-23 -51 -75 -86.5t-127 -35.5t-127 35.5t-75 86.5q-10 22 -10 32q0 8 11 13l72 28q5 2 9 2q6 0 13 -13q13 -27 40.5 -51t66.5 -24 z" />
<glyph unicode="&#x150;" horiz-adv-x="1217" d="M609 -24q-52 0 -101 8t-101.5 28.5t-97 53t-85.5 84.5t-69.5 119t-45 161t-16.5 207q0 146 27.5 261.5t86.5 205t160.5 138t241.5 48.5q112 0 200 -32t146.5 -89t97 -140t55 -179.5t16.5 -212.5q0 -156 -32 -276t-82.5 -191t-120.5 -116.5t-137.5 -61.5t-142.5 -16z M608 86q368 0 368 559q0 536 -369 536q-84 0 -149 -29.5t-105.5 -78.5t-66 -120t-35.5 -145.5t-10 -162.5q0 -140 23.5 -244.5t59 -163t87 -94t97.5 -46.5t100 -11zM579 1620h111q18 0 18 -10q0 -11 -24 -35l-156 -163q-19 -21 -42 -21h-77q-15 0 -15 10q0 8 25 42l108 150 q14 19 23 23t29 4zM879 1620h111q18 0 18 -10q0 -11 -24 -35l-156 -163q-19 -21 -42 -21h-77q-15 0 -15 10q0 8 25 42l108 150q14 19 23 23t29 4z" />
<glyph unicode="&#x151;" horiz-adv-x="1037" d="M95 475q0 143 43.5 247.5t139.5 166t237 61.5q207 0 317 -129.5t110 -345.5q0 -121 -27.5 -213.5t-69 -145t-99.5 -85.5t-110 -44t-110 -11q-57 0 -110 11t-113.5 44t-104.5 85.5t-73.5 145t-29.5 213.5zM235 472q0 -388 290 -388q44 0 80 8.5t73 34t62.5 67t41.5 112.5 t16 166q0 366 -284 366q-151 0 -215 -96t-64 -270zM482 1306h111q18 0 18 -10q0 -11 -24 -35l-156 -163q-19 -21 -42 -21h-77q-15 0 -15 10q0 8 25 42l108 150q14 19 23 23t29 4zM782 1306h111q18 0 18 -10q0 -11 -24 -35l-156 -163q-19 -21 -42 -21h-77q-15 0 -15 10 q0 8 25 42l108 150q14 19 23 23t29 4z" />
<glyph unicode="&#x152;" horiz-adv-x="1522" d="M738 0q-94 0 -181.5 19t-173 65t-149 116t-102.5 181t-39 251t39.5 251.5t103 181.5t150 116.5t174 65.5t180.5 19h663q17 0 21.5 -5t4.5 -21v-59q0 -17 -4.5 -21.5t-21.5 -4.5h-490v-425h374q17 0 21.5 -5t4.5 -21v-58q0 -16 -4.5 -21t-21.5 -5h-374v-510h490 q17 0 21.5 -5t4.5 -21v-58q0 -16 -4.5 -21t-21.5 -5q-182 -1 -409 -1q-85 0 -161.5 0.5t-94.5 0.5zM772 110v1048h-40q-232 0 -362.5 -139.5t-130.5 -384.5q0 -240 125.5 -382t365.5 -142h42z" />
<glyph unicode="&#x153;" horiz-adv-x="1594" d="M95 469q0 219 99 349.5t296 130.5q233 0 335 -201q106 202 330 202q173 0 261 -107t88 -341v-21q0 -34 -17 -34h-592q8 -184 90.5 -271.5t236.5 -87.5q115 0 226 47q10 5 15 5q12 0 15 -14l14 -66q0 -11 -12 -17q-135 -67 -283 -67q-254 0 -366 200q-95 -210 -331 -210 q-36 0 -72 5.5t-77 20.5t-76.5 39t-69.5 63.5t-57.5 90t-38 123.5t-14.5 161zM229 466q0 -94 17 -166t43 -114t63.5 -68t73 -35t76.5 -9q256 0 256 392q0 371 -266 371q-263 0 -263 -371zM1153 837q-111 0 -175.5 -74t-79.5 -208h472v26q0 122 -59.5 189t-157.5 67z" />
<glyph unicode="&#x154;" horiz-adv-x="1131" d="M506 1157l-172 1v-497h152q157 0 246 69.5t89 191.5q0 71 -25 119.5t-72 72.5t-98.5 33.5t-119.5 9.5zM1078 99q17 -2 21.5 -6t4.5 -20v-58q0 -17 -5 -22t-23 -5q-51 0 -94 12t-76 37.5t-57 52t-46.5 69.5t-36 74.5t-31.5 81.5q-42 119 -111.5 178.5t-189.5 59.5h-100 v-527q0 -16 -5 -21t-21 -5h-89q-17 0 -21.5 5t-4.5 23v1111l-106 44q-16 6 -16 16v48q0 17 16 17q9 0 80 1l171 3q99 1 174 1q454 0 454 -345q0 -110 -62 -197t-182 -126q-31 -11 -59 -11l-1 -3q36 -7 66 -27q34 -22 67 -63.5t53 -97.5q65 -178 110 -236.5t120 -63.5z M569 1612h133q15 0 15 -10q0 -11 -25 -34l-173 -158q-21 -21 -44 -21h-85q-13 0 -13 8q0 9 12 23l128 165q15 19 24 23t28 4z" />
<glyph unicode="&#x155;" horiz-adv-x="654" d="M618 798q-1 0 -40 6.5t-65 6.5q-41 0 -76.5 -20t-59 -51t-38.5 -60.5t-23 -58.5v-605q0 -16 -16 -16h-102q-15 0 -17 16v799l-109 27q-17 3 -17 18v45q0 14 17 16l208 20q13 0 16 -19l17 -129q31 64 94 109.5t135 45.5q47 0 88 -10q14 -2 14 -12l-16 -116q-2 -12 -10 -12 zM426 1299h133q15 0 15 -10q0 -11 -25 -34l-173 -158q-21 -21 -44 -21h-85q-13 0 -13 8q0 9 12 23l128 165q15 19 24 23t28 4z" />
<glyph unicode="&#x156;" horiz-adv-x="1131" d="M506 1157l-172 1v-497h152q157 0 246 69.5t89 191.5q0 71 -25 119.5t-72 72.5t-98.5 33.5t-119.5 9.5zM1078 99q17 -2 21.5 -6t4.5 -20v-58q0 -17 -5 -22t-23 -5q-51 0 -94 12t-76 37.5t-57 52t-46.5 69.5t-36 74.5t-31.5 81.5q-42 119 -111.5 178.5t-189.5 59.5h-100 v-527q0 -16 -5 -21t-21 -5h-89q-17 0 -21.5 5t-4.5 23v1111l-106 44q-16 6 -16 16v48q0 17 16 17q9 0 80 1l171 3q99 1 174 1q454 0 454 -345q0 -110 -62 -197t-182 -126q-31 -11 -59 -11l-1 -3q36 -7 66 -27q34 -22 67 -63.5t53 -97.5q65 -178 110 -236.5t120 -63.5z M499 -407l46 271q3 15 21 15h122q14 0 14 -11q0 -4 -2 -10l-101 -284q-7 -20 -21 -20h-69q-13 0 -13 15q0 6 3 24z" />
<glyph unicode="&#x157;" horiz-adv-x="654" d="M618 798q-1 0 -40 6.5t-65 6.5q-41 0 -76.5 -20t-59 -51t-38.5 -60.5t-23 -58.5v-605q0 -16 -16 -16h-102q-15 0 -17 16v799l-109 27q-17 3 -17 18v45q0 14 17 16l208 20q13 0 16 -19l17 -129q31 64 94 109.5t135 45.5q47 0 88 -10q14 -2 14 -12l-16 -116q-2 -12 -10 -12 zM119 -407l46 271q3 15 21 15h122q14 0 14 -11q0 -4 -2 -10l-101 -284q-7 -20 -21 -20h-69q-13 0 -13 15q0 6 3 24z" />
<glyph unicode="&#x158;" horiz-adv-x="1131" d="M506 1157l-172 1v-497h152q157 0 246 69.5t89 191.5q0 71 -25 119.5t-72 72.5t-98.5 33.5t-119.5 9.5zM1078 99q17 -2 21.5 -6t4.5 -20v-58q0 -17 -5 -22t-23 -5q-51 0 -94 12t-76 37.5t-57 52t-46.5 69.5t-36 74.5t-31.5 81.5q-42 119 -111.5 178.5t-189.5 59.5h-100 v-527q0 -16 -5 -21t-21 -5h-89q-17 0 -21.5 5t-4.5 23v1111l-106 44q-16 6 -16 16v48q0 17 16 17q9 0 80 1l171 3q99 1 174 1q454 0 454 -345q0 -110 -62 -197t-182 -126q-31 -11 -59 -11l-1 -3q36 -7 66 -27q34 -22 67 -63.5t53 -97.5q65 -178 110 -236.5t120 -63.5z M590 1389h-131q-15 0 -23.5 6.5t-23.5 25.5l-129 163q-11 14 -11 19q0 7 10 11q45 20 66 20q14 0 41 -24l135 -115l135 115q27 24 41 24q19 0 66 -20q10 -4 10 -11q0 -5 -11 -19l-123 -157q-13 -17 -18.5 -23t-14 -10.5t-19.5 -4.5z" />
<glyph unicode="&#x159;" horiz-adv-x="655" d="M618 798q-1 0 -40 6.5t-65 6.5q-41 0 -76.5 -20t-59 -51t-38.5 -60.5t-23 -58.5v-605q0 -16 -16 -16h-102q-15 0 -17 16v799l-109 27q-17 3 -17 18v45q0 14 17 16l208 20q13 0 16 -19l17 -129q31 64 94 109.5t135 45.5q47 0 88 -10q14 -2 14 -12l-16 -116q-2 -12 -10 -12 zM396 1076h-131q-15 0 -23.5 6.5t-23.5 25.5l-129 163q-11 14 -11 19q0 7 10 11q45 20 66 20q14 0 41 -24l135 -115l135 115q27 24 41 24q19 0 66 -20q10 -4 10 -11q0 -5 -11 -19l-123 -157q-13 -17 -18.5 -23t-14 -10.5t-19.5 -4.5z" />
<glyph unicode="&#x15a;" horiz-adv-x="1002" d="M181 243l32 -115q133 -35 227 -35q58 0 109.5 11t100 36t77 72.5t28.5 112.5q0 29 -8.5 55.5t-20 46t-34.5 40t-40.5 33t-51 29.5t-52.5 25l-57 26l-56 24q-137 61 -190 100q-127 93 -128 245q0 88 35 155.5t95.5 107t135.5 59t162 19.5q142 0 294 -40q16 -4 16 -21v-182 q0 -16 -15 -16h-50q-10 0 -16 16l-39 115q-100 20 -180 20q-139 0 -214 -57t-75 -169q0 -36 14.5 -67t34.5 -52t57 -44t64 -35l74 -34q129 -56 206 -100.5t120 -92t57 -92.5t14 -112q0 -93 -34.5 -161.5t-96.5 -109t-141 -59.5t-175 -19q-184 0 -354 61q-16 5 -16 21l10 183 q0 16 17 16h48q12 0 16 -16zM636 1612h133q15 0 15 -10q0 -11 -25 -34l-173 -158q-21 -21 -44 -21h-85q-13 0 -13 8q0 9 12 23l128 165q15 19 24 23t28 4z" />
<glyph unicode="&#x15b;" horiz-adv-x="881" d="M66 43q-11 5 -11 16l16 168q2 17 17 17h44q13 0 16 -17l26 -113q98 -30 228 -30q110 0 173 44t63 124q0 62 -49.5 92t-190.5 61q-71 16 -120 33t-97 47.5t-72.5 78.5t-24.5 113q0 273 358 273q131 0 282 -55q12 -3 12 -16l-13 -160q-2 -17 -17 -17h-41q-13 0 -18 17 l-29 108q-110 25 -180 25q-108 0 -165 -39t-57 -111q0 -78 82 -118q46 -23 200 -59q61 -15 107 -33t87 -48t63 -75t22 -104q0 -77 -29.5 -134.5t-81.5 -90.5t-116 -48.5t-140 -15.5q-186 0 -344 67zM544 1299h133q15 0 15 -10q0 -11 -25 -34l-173 -158q-21 -21 -44 -21h-85 q-13 0 -13 8q0 9 12 23l128 165q15 19 24 23t28 4z" />
<glyph unicode="&#x15c;" horiz-adv-x="1002" d="M171 243l32 -115q133 -35 227 -35q58 0 109.5 11t100 36t77 72.5t28.5 112.5q0 29 -8.5 55.5t-20 46t-34.5 40t-40.5 33t-51 29.5t-52.5 25l-57 26l-56 24q-137 61 -190 100q-127 93 -128 245q0 88 35 155.5t95.5 107t135.5 59t162 19.5q142 0 294 -40q16 -4 16 -21v-182 q0 -16 -15 -16h-50q-10 0 -16 16l-39 115q-100 20 -180 20q-139 0 -214 -57t-75 -169q0 -36 14.5 -67t34.5 -52t57 -44t64 -35l74 -34q129 -56 206 -100.5t120 -92t57 -92.5t14 -112q0 -93 -34.5 -161.5t-96.5 -109t-141 -59.5t-175 -19q-184 0 -354 61q-16 5 -16 21l10 183 q0 16 17 16h48q12 0 16 -16zM459 1628h131q7 0 13.5 -2t12.5 -7t8.5 -7.5t9.5 -11.5t8 -10l124 -157q11 -13 11 -19q0 -7 -10 -11q-45 -20 -66 -20q-14 0 -41 24l-135 115l-135 -115q-27 -24 -41 -24q-19 0 -66 20q-10 4 -10 11q0 6 11 19l123 157q13 17 18.5 23t14 10.5 t19.5 4.5z" />
<glyph unicode="&#x15d;" horiz-adv-x="886" d="M93 43q-11 5 -11 16l16 168q2 17 17 17h44q13 0 16 -17l26 -113q98 -30 228 -30q110 0 173 44t63 124q0 62 -49.5 92t-190.5 61q-71 16 -120 33t-97 47.5t-72.5 78.5t-24.5 113q0 273 358 273q131 0 282 -55q12 -3 12 -16l-13 -160q-2 -17 -17 -17h-41q-13 0 -18 17 l-29 108q-110 25 -180 25q-108 0 -165 -39t-57 -111q0 -78 82 -118q46 -23 200 -59q61 -15 107 -33t87 -48t63 -75t22 -104q0 -77 -29.5 -134.5t-81.5 -90.5t-116 -48.5t-140 -15.5q-186 0 -344 67zM416 1310h131q7 0 13.5 -2t12.5 -7t8.5 -7.5t9.5 -11.5t8 -10l124 -157 q11 -13 11 -19q0 -7 -10 -11q-45 -20 -66 -20q-14 0 -41 24l-135 115l-135 -115q-27 -24 -41 -24q-19 0 -66 20q-10 4 -10 11q0 6 11 19l123 157q13 17 18.5 23t14 10.5t19.5 4.5z" />
<glyph unicode="&#x15e;" horiz-adv-x="1002" d="M441 -181q-14 0 -27 -1q-15 0 -15 9q0 3 2 9l41 142q-175 3 -336 61q-16 5 -16 21l10 183q0 16 17 16h48q12 0 16 -16l32 -115q133 -35 227 -35q58 0 109.5 11t100 36t77 72.5t28.5 112.5q0 29 -8.5 55.5t-20 46t-34.5 40t-40.5 33t-51 29.5t-52.5 25l-58 26l-55 24 q-137 61 -190 100q-127 93 -128 245q0 88 35 155.5t95.5 107t135.5 59t162 19.5q142 0 294 -40q16 -4 16 -21v-182q0 -16 -17 -16h-48q-10 0 -16 16l-39 115q-100 20 -180 20q-139 0 -214 -57t-75 -169q0 -36 14.5 -67t34.5 -52t57 -44t64 -35l74 -34q129 -56 206 -100.5 t120 -92t57 -92.5t14 -112q0 -82 -27 -146t-77 -104.5t-114.5 -63.5t-144.5 -31l-23 -89q76 -12 109.5 -50t33.5 -86q0 -77 -61.5 -125t-162.5 -48q-72 0 -100 11q-8 3 -8 7q0 3 2 9l17 56q4 13 13 13q1 0 13.5 -2t29 -3.5t27.5 -1.5q47 0 76.5 22t29.5 51q0 33 -24.5 53 t-74.5 20z" />
<glyph unicode="&#x15f;" horiz-adv-x="881" d="M107 43q-11 5 -11 16l16 168q2 17 17 17h44q13 0 16 -17l26 -113q98 -30 228 -30q110 0 173 44t63 124q0 62 -49.5 92t-190.5 61q-71 16 -120 33t-97 47.5t-72.5 78.5t-24.5 113q0 273 358 273q131 0 282 -55q12 -3 12 -16l-13 -160q-2 -17 -17 -17h-43q-11 0 -16 17 l-29 108q-110 25 -180 25q-108 0 -165 -39t-57 -111q0 -78 82 -118q46 -23 200 -59q61 -15 107 -33t87 -48t63 -75t22 -104q0 -138 -88.5 -208t-231.5 -79l-20 -85q76 -12 109.5 -50t33.5 -86q0 -77 -61.5 -125t-162.5 -48q-67 0 -95 11q-7 3 -7 8q0 3 2 9l16 56q4 12 13 12 q1 0 13.5 -2t29 -3.5t27.5 -1.5q47 0 76.5 22t29.5 51q0 64 -94 73h-5q-14 0 -27 -1q-15 0 -15 9q0 3 2 9l38 142q-133 7 -294 65z" />
<glyph unicode="&#x160;" horiz-adv-x="1002" d="M181 243l32 -115q133 -35 227 -35q58 0 109.5 11t100 36t77 72.5t28.5 112.5q0 29 -8.5 55.5t-20 46t-34.5 40t-40.5 33t-51 29.5t-52.5 25l-57 26l-56 24q-137 61 -190 100q-127 93 -128 245q0 88 35 155.5t95.5 107t135.5 59t162 19.5q142 0 294 -40q16 -4 16 -21v-182 q0 -16 -15 -16h-50q-10 0 -16 16l-39 115q-100 20 -180 20q-139 0 -214 -57t-75 -169q0 -36 14.5 -67t34.5 -52t57 -44t64 -35l74 -34q129 -56 206 -100.5t120 -92t57 -92.5t14 -112q0 -93 -34.5 -161.5t-96.5 -109t-141 -59.5t-175 -19q-184 0 -354 61q-16 5 -16 21l10 183 q0 16 17 16h48q12 0 16 -16zM606 1389h-131q-15 0 -23.5 6.5t-23.5 25.5l-129 163q-11 14 -11 19q0 7 10 11q45 20 66 20q14 0 41 -24l135 -115l135 115q27 24 41 24q19 0 66 -20q10 -4 10 -11q0 -5 -11 -19l-123 -157q-13 -17 -18.5 -23t-14 -10.5t-19.5 -4.5z" />
<glyph unicode="&#x161;" horiz-adv-x="886" d="M93 43q-11 5 -11 16l16 168q2 17 17 17h44q13 0 16 -17l26 -113q98 -30 228 -30q110 0 173 44t63 124q0 62 -49.5 92t-190.5 61q-71 16 -120 33t-97 47.5t-72.5 78.5t-24.5 113q0 273 358 273q131 0 282 -55q12 -3 12 -16l-13 -160q-2 -17 -17 -17h-41q-13 0 -18 17 l-29 108q-110 25 -180 25q-108 0 -165 -39t-57 -111q0 -78 82 -118q46 -23 200 -59q61 -15 107 -33t87 -48t63 -75t22 -104q0 -77 -29.5 -134.5t-81.5 -90.5t-116 -48.5t-140 -15.5q-186 0 -344 67zM550 1076h-131q-15 0 -23.5 6.5t-23.5 25.5l-129 163q-11 14 -11 19 q0 7 10 11q45 20 66 20q14 0 41 -24l135 -115l135 115q27 24 41 24q19 0 66 -20q10 -4 10 -11q0 -5 -11 -19l-123 -157q-13 -17 -18.5 -23t-14 -10.5t-19.5 -4.5z" />
<glyph unicode="&#x162;" horiz-adv-x="962" d="M349 -407l46 271q3 15 21 15h122q14 0 14 -11q0 -4 -2 -10l-101 -284q-7 -20 -21 -20h-69q-13 0 -13 15q0 6 3 24zM34 1266h894q18 0 18 -21l-7 -204q0 -16 -17 -16h-48q-10 0 -16 16l-34 115h-272v-1054l103 -20q18 -3 22 -7.5t4 -20.5v-28q0 -16 -4.5 -21t-21.5 -5 h-348q-17 0 -21.5 5t-4.5 21v28q0 16 4 20.5t22 7.5l103 20v1054h-272l-34 -115q-6 -16 -16 -16h-48q-17 0 -17 16l-7 204q0 21 18 21z" />
<glyph unicode="&#x163;" horiz-adv-x="646" d="M259 -407l46 271q3 15 21 15h122q14 0 14 -11q0 -4 -2 -10l-101 -284q-7 -20 -21 -20h-69q-13 0 -13 15q0 6 3 24zM211 270v544h-166q-16 0 -16 16v79q0 17 16 17h166v194q0 16 17 16h101q17 0 17 -16v-194h241q16 0 16 -17v-79q0 -16 -16 -16h-241v-544q0 -183 154 -183 q21 0 66 6q9 0 10 -11l11 -81q0 -11 -12 -13q-57 -12 -114 -12q-127 0 -188.5 73t-61.5 221z" />
<glyph unicode="&#x164;" horiz-adv-x="962" d="M34 1266h894q18 0 18 -21l-7 -204q0 -16 -17 -16h-48q-10 0 -16 16l-34 115h-272v-1054l103 -20q18 -3 22 -7.5t4 -20.5v-28q0 -16 -4.5 -21t-21.5 -5h-348q-17 0 -21.5 5t-4.5 21v28q0 16 4 20.5t22 7.5l103 20v1054h-272l-34 -115q-6 -16 -16 -16h-48q-17 0 -17 16 l-7 204q0 21 18 21zM548 1389h-131q-15 0 -23.5 6.5t-23.5 25.5l-129 163q-11 14 -11 19q0 7 10 11q45 20 66 20q14 0 41 -24l135 -115l135 115q27 24 41 24q19 0 66 -20q10 -4 10 -11q0 -5 -11 -19l-123 -157q-13 -17 -18.5 -23t-14 -10.5t-19.5 -4.5z" />
<glyph unicode="&#x165;" horiz-adv-x="683" d="M208 270v544h-166q-16 0 -16 16v79q0 17 16 17h166v194q0 16 17 16h101q17 0 17 -16v-194h241q16 0 16 -17v-79q0 -16 -16 -16h-241v-544q0 -183 154 -183q21 0 66 6q9 0 10 -11l11 -81q0 -11 -12 -13q-57 -12 -114 -12q-127 0 -188.5 73t-61.5 221zM487 1094l46 271 q3 15 21 15h122q14 0 14 -11q0 -4 -2 -10l-101 -284q-7 -20 -21 -20h-69q-13 0 -13 15q0 6 3 24z" />
<glyph unicode="&#x166;" horiz-adv-x="962" d="M34 1266h894q18 0 18 -21l-7 -204q0 -16 -17 -16h-48q-10 0 -16 16l-34 115h-272v-456h199q26 0 26 -23v-62q0 -25 -24 -25h-201v-488l103 -20q18 -3 22 -7.5t4 -20.5v-28q0 -16 -4.5 -21t-21.5 -5h-348q-17 0 -21.5 5t-4.5 21v28q0 16 4 20.5t22 7.5l103 20v488h-195 q-15 0 -20.5 6.5t-5.5 20.5v58q0 12 7.5 18.5t16.5 6.5h197v456h-272l-34 -115q-6 -16 -16 -16h-48q-17 0 -17 16l-7 204q0 21 18 21z" />
<glyph unicode="&#x167;" horiz-adv-x="646" d="M209 270v207h-141q-12 0 -12 12v84q0 14 12 14h141v227h-166q-16 0 -16 16v79q0 17 16 17h166v194q0 16 17 16h101q17 0 17 -16v-194h241q16 0 16 -17v-79q0 -16 -16 -16h-241v-227h185q12 0 12 -14v-80q0 -16 -12 -16h-185v-207q0 -183 154 -183q21 0 66 6q9 0 10 -11 l11 -81q0 -12 -12 -13q-62 -12 -114 -12q-127 0 -188.5 73t-61.5 221z" />
<glyph unicode="&#x168;" horiz-adv-x="1232" d="M745 1385q-40 0 -92 33t-75 33q-34 0 -95 -56q-7 -6 -13 -6t-14 8q-24 29 -32 48q-2 6 -2 8q0 5 3 13q55 105 160 105q40 0 93 -32t77 -32q37 0 93 54q8 8 13 8t12 -8q16 -22 27 -40q8 -14 8 -20q0 -5 -3 -11q-27 -50 -71 -77.5t-89 -27.5zM329 432q0 -158 83 -247 t227 -89q147 0 230.5 80.5t83.5 237.5v826q0 16 4.5 21t21.5 5h89q16 0 21 -5t5 -21v-792q0 -223 -121.5 -347.5t-333.5 -124.5q-211 0 -331 123.5t-120 350.5v701l-112 34q-16 4 -16 16v48q0 17 16 17h225q16 0 22 -6t6 -23v-805z" />
<glyph unicode="&#x169;" horiz-adv-x="1101" d="M660 1072q-40 0 -92 33t-75 33q-34 0 -95 -56q-7 -6 -13 -6t-14 8q-24 29 -32 48q-2 6 -2 8q0 6 3 13q55 105 160 105q40 0 93 -32t77 -32q37 0 93 54q8 8 13 8t12 -8q16 -22 27 -40q8 -14 8 -20q0 -5 -3 -11q-27 -50 -71 -77.5t-89 -27.5zM177 814l-105 27q-17 3 -17 18 v45q0 14 17 16l224 22q16 0 16 -19v-653q0 -181 178 -181q144 0 295 143v678q0 16 17 16h102q17 0 17 -16v-796l108 -27q17 -3 17 -16v-46q0 -15 -17 -17l-208 -16q-15 0 -16 19l-13 109q-99 -75 -179 -109.5t-172 -34.5q-123 0 -193.5 68t-70.5 193v577z" />
<glyph unicode="&#x16a;" horiz-adv-x="1232" d="M329 432q0 -158 83 -247t227 -89q147 0 230.5 80.5t83.5 237.5v826q0 16 4.5 21t21.5 5h89q16 0 21 -5t5 -21v-792q0 -223 -121.5 -347.5t-333.5 -124.5q-211 0 -331 123.5t-120 350.5v701l-112 34q-16 4 -16 16v48q0 17 16 17h225q16 0 22 -6t6 -23v-805zM470 1421v88 q0 14 21 14h308q11 0 16 -2t6 -4t1 -7v-90q0 -14 -20 -14h-309q-15 0 -19 3.5t-4 11.5z" />
<glyph unicode="&#x16b;" horiz-adv-x="1101" d="M177 814l-105 27q-17 3 -17 18v45q0 14 17 16l224 22q16 0 16 -19v-653q0 -181 178 -181q144 0 295 143v678q0 16 17 16h102q17 0 17 -16v-796l108 -27q17 -3 17 -16v-46q0 -15 -17 -17l-208 -16q-15 0 -16 19l-13 109q-99 -75 -179 -109.5t-172 -34.5q-123 0 -193.5 68 t-70.5 193v577zM376 1101v88q0 14 21 14h308q11 0 16 -2t6 -4t1 -7v-90q0 -14 -20 -14h-309q-15 0 -19 3.5t-4 11.5z" />
<glyph unicode="&#x16c;" horiz-adv-x="1232" d="M329 432q0 -158 83 -247t227 -89q147 0 230.5 80.5t83.5 237.5v826q0 16 4.5 21t21.5 5h89q16 0 21 -5t5 -21v-792q0 -223 -121.5 -347.5t-333.5 -124.5q-211 0 -331 123.5t-120 350.5v701l-112 34q-16 4 -16 16v48q0 17 16 17h225q16 0 22 -6t6 -23v-805zM640 1495 q39 0 66.5 24t40.5 51q7 13 13 13q4 0 9 -2l72 -28q11 -5 11 -13q0 -10 -10 -32q-23 -51 -75 -86.5t-127 -35.5t-127 35.5t-75 86.5q-10 22 -10 32q0 8 11 13l72 28q5 2 9 2q6 0 13 -13q13 -27 40.5 -51t66.5 -24z" />
<glyph unicode="&#x16d;" horiz-adv-x="1101" d="M177 814l-105 27q-17 3 -17 18v45q0 14 17 16l224 22q16 0 16 -19v-653q0 -181 178 -181q144 0 295 143v678q0 16 17 16h102q17 0 17 -16v-796l108 -27q17 -3 17 -16v-46q0 -15 -17 -17l-208 -16q-15 0 -16 19l-13 109q-99 -75 -179 -109.5t-172 -34.5q-123 0 -193.5 68 t-70.5 193v577zM544 1175q39 0 66.5 24t40.5 51q7 13 13 13q4 0 9 -2l72 -28q11 -5 11 -13q0 -10 -10 -32q-23 -51 -75 -86.5t-127 -35.5t-127 35.5t-75 86.5q-10 22 -10 32q0 8 11 13l72 28q5 2 9 2q6 0 13 -13q13 -27 40.5 -51t66.5 -24z" />
<glyph unicode="&#x16e;" horiz-adv-x="1232" d="M329 432q0 -158 83 -247t227 -89q147 0 230.5 80.5t83.5 237.5v826q0 16 4.5 21t21.5 5h89q16 0 21 -5t5 -21v-792q0 -223 -121.5 -347.5t-333.5 -124.5q-211 0 -331 123.5t-120 350.5v701l-112 34q-16 4 -16 16v48q0 17 16 17h225q16 0 22 -6t6 -23v-805zM468 1543 q0 75 50 121.5t134 46.5q82 0 130 -46t48 -120q0 -71 -50.5 -116.5t-129.5 -45.5q-81 0 -131.5 45.5t-50.5 114.5zM650 1634q-39 0 -60.5 -25t-21.5 -64q0 -34 21.5 -60.5t58.5 -26.5q39 0 61.5 25.5t22.5 63.5q0 37 -22 62t-60 25z" />
<glyph unicode="&#x16f;" horiz-adv-x="1101" d="M177 814l-105 27q-17 3 -17 18v45q0 14 17 16l224 22q16 0 16 -19v-653q0 -181 178 -181q144 0 295 143v678q0 16 17 16h102q17 0 17 -16v-796l108 -27q17 -3 17 -16v-46q0 -15 -17 -17l-208 -16q-15 0 -16 19l-13 109q-99 -75 -179 -109.5t-172 -34.5q-123 0 -193.5 68 t-70.5 193v577zM378 1228q0 75 50 121.5t134 46.5q82 0 130 -46t48 -120q0 -71 -50.5 -116.5t-129.5 -45.5q-81 0 -131.5 45.5t-50.5 114.5zM560 1319q-39 0 -60.5 -25t-21.5 -64q0 -34 21.5 -60.5t58.5 -26.5q39 0 61.5 25.5t22.5 63.5q0 37 -22 62t-60 25z" />
<glyph unicode="&#x170;" horiz-adv-x="1232" d="M329 432q0 -158 83 -247t227 -89q147 0 230.5 80.5t83.5 237.5v826q0 16 4.5 21t21.5 5h89q16 0 21 -5t5 -21v-792q0 -223 -121.5 -347.5t-333.5 -124.5q-211 0 -331 123.5t-120 350.5v701l-112 34q-16 4 -16 16v48q0 17 16 17h225q16 0 22 -6t6 -23v-805zM585 1620h111 q18 0 18 -10q0 -11 -24 -35l-156 -163q-19 -21 -42 -21h-77q-15 0 -15 10q0 8 25 42l108 150q14 19 23 23t29 4zM885 1620h111q18 0 18 -10q0 -11 -24 -35l-156 -163q-19 -21 -42 -21h-77q-15 0 -15 10q0 8 25 42l108 150q14 19 23 23t29 4z" />
<glyph unicode="&#x171;" horiz-adv-x="1095" d="M177 814l-105 27q-17 3 -17 18v45q0 14 17 16l224 22q16 0 16 -19v-653q0 -181 178 -181q144 0 295 143v678q0 16 17 16h102q17 0 17 -16v-796l108 -27q17 -3 17 -16v-46q0 -15 -17 -17l-208 -16q-15 0 -16 19l-13 109q-99 -75 -179 -109.5t-172 -34.5q-123 0 -193.5 68 t-70.5 193v577zM501 1306h111q18 0 18 -10q0 -11 -24 -35l-156 -163q-19 -21 -42 -21h-77q-15 0 -15 10q0 8 25 42l108 150q14 19 23 23t29 4zM801 1306h111q18 0 18 -10q0 -11 -24 -35l-156 -163q-19 -21 -42 -21h-77q-15 0 -15 10q0 8 25 42l108 150q14 19 23 23t29 4z " />
<glyph unicode="&#x172;" horiz-adv-x="1232" d="M329 432q0 -158 83 -247t227 -89q147 0 230.5 80.5t83.5 237.5v826q0 16 4.5 21t21.5 5h89q16 0 21 -5t5 -21v-792q0 -160 -64 -270.5t-182 -161.5q-50 -49 -82 -111t-32 -105q0 -44 28 -66.5t70 -22.5q30 0 58 11q4 1 10 4t9.5 4.5t6.5 1.5q8 0 12 -11l23 -54q2 -4 2 -8 q0 -6 -7 -12q-69 -50 -165 -50q-43 0 -80.5 13.5t-66.5 50.5t-29 92q0 98 101 227q-29 -4 -67 -4q-211 0 -331 123.5t-120 350.5v701l-112 34q-16 4 -16 16v48q0 17 16 17h225q16 0 22 -6t6 -23v-805z" />
<glyph unicode="&#x173;" horiz-adv-x="1101" d="M1031 -368q-69 -50 -165 -50q-43 0 -80.5 13.5t-66.5 50.5t-29 92q0 60 34 130t84 131q-3 9 -3 12l-13 109q-99 -75 -179 -109.5t-172 -34.5q-123 0 -193.5 68t-70.5 193v577l-105 27q-17 3 -17 18v45q0 14 17 16l224 22q15 0 16 -19v-653q0 -181 178 -181q144 0 295 143 v678q0 16 17 16h102q17 0 17 -16v-796l108 -27q17 -5 17 -16v-46q0 -14 -17 -17l-111 -8q-43 -48 -70 -111.5t-27 -104.5q0 -44 27.5 -66t68.5 -22q30 0 58 11q4 1 10 4t9.5 4.5t6.5 1.5q8 0 12 -11l23 -54q2 -4 2 -8q0 -6 -7 -12z" />
<glyph unicode="&#x174;" horiz-adv-x="1718" d="M958 1250q210 -861 247 -1082l6 -36h6q168 405 337 1115q4 18 24 18h115q17 0 17 -15q0 -3 -3 -15q-59 -275 -178.5 -627t-235.5 -592q-8 -16 -23 -16h-130q-20 0 -24 16l-200 836l-5 20q0 -33 -35 -164q-18 -66 -204 -692q-5 -16 -23 -16h-141q-19 0 -24 16l-341 1135 l-111 34q-16 4 -16 16v48q0 17 16 17h216q15 0 19 -16l305 -1082q5 -20 9 -38h4q5 19 74 253l117 406q49 171 79 288l-23 93l-17 65q-6 20 -6 22q0 9 17 9h116q11 0 16 -16zM809 1628h131q7 0 13.5 -2t12.5 -7t8.5 -7.5t9.5 -11.5t8 -10l124 -157q11 -13 11 -19 q0 -7 -10 -11q-45 -20 -66 -20q-14 0 -41 24l-135 115l-135 -115q-27 -24 -41 -24q-19 0 -66 20q-10 4 -10 11q0 6 11 19l123 157q13 17 18.5 23t14 10.5t19.5 4.5z" />
<glyph unicode="&#x175;" horiz-adv-x="1450" d="M808 909q110 -424 180 -654q29 -99 34 -127q140 301 255 769q7 29 28 29h99q25 0 25 -13q0 -7 -14 -57q-84 -309 -219 -612q-69 -157 -112 -228q-10 -16 -29 -16h-73q-23 0 -31 18q-5 11 -12 30q-106 302 -166 517q-1 4 -5 18l-7 25q-4 11 -6 16l-2 -3q0 -25 -11 -58 q-60 -179 -196 -547q-7 -16 -29 -16h-74q-22 0 -30 17l-16 37q-59 137 -108 288.5t-86.5 288.5t-53.5 185l-110 24q-17 3 -17 18l-2 45q0 14 17 16q116 11 211 19q15 0 18 -10q138 -521 182 -666q0 -2 7 -24t15 -51.5t13 -57.5q151 417 222 663l-33 115q-1 2 -1 6 q0 13 18 13h103q12 0 16 -17zM679 1310h131q7 0 13.5 -2t12.5 -7t8.5 -7.5t9.5 -11.5t8 -10l124 -157q11 -13 11 -19q0 -7 -10 -11q-45 -20 -66 -20q-14 0 -41 24l-135 115l-135 -115q-27 -24 -41 -24q-19 0 -66 20q-10 4 -10 11q0 6 11 19l123 157q13 17 18.5 23t14 10.5 t19.5 4.5z" />
<glyph unicode="&#x176;" horiz-adv-x="1024" d="M675 208q-49 -118 -123 -172.5t-206 -54.5q-90 0 -154 19q-17 5 -17 20q0 5 18 76q4 17 20 17l18 -3q18 -4 48.5 -7t61.5 -3q56 0 97.5 18.5t70 57.5t45.5 76.5t38 98.5l20 60h-99q-177 0 -237 141q-18 42 -43 142l-60 247q-35 147 -53 217l-87 27q-16 4 -16 16v48 q0 17 16 17h209q20 0 23 -24q19 -132 65.5 -358.5t73.5 -285.5q33 -73 172 -73q14 0 39.5 0.5t34.5 0.5q118 375 201 722q3 11 8 14.5t16 3.5h110q24 0 24 -12q0 -3 -1 -7q-181 -671 -333 -1039zM479 1628h131q7 0 13.5 -2t12.5 -7t8.5 -7.5t9.5 -11.5t8 -10l124 -157 q11 -13 11 -19q0 -7 -10 -11q-45 -20 -66 -20q-14 0 -41 24l-135 115l-135 -115q-27 -24 -41 -24q-19 0 -66 20q-10 4 -10 11q0 6 11 19l123 157q13 17 18.5 23t14 10.5t19.5 4.5z" />
<glyph unicode="&#x177;" horiz-adv-x="1014" d="M187 -330q48 0 90 14t76 43t61 59t53 76t42 80l38 82h-8q-80 0 -121.5 16.5t-70.5 60.5q-44 69 -100 279q-48 186 -106 436l-104 24q-17 3 -17 18v45q0 14 18 16l212 19q15 0 17 -10q8 -36 20 -103l15 -83q50 -276 111 -486q28 -96 83 -127q20 -12 70 -12q15 0 22 1 q116 281 244 777q8 31 28 31h108q22 0 22 -14q0 -8 -14 -56q-127 -457 -301 -843l-31 -69q-10 -21 -33 -67.5t-38 -70.5t-41.5 -63t-49 -60.5t-54.5 -48.5t-63.5 -40.5t-71 -23.5t-82.5 -10q-51 0 -87 11q-9 2 -9 15l12 73q2 14 13 14q26 -3 47 -3zM498 1310h131 q7 0 13.5 -2t12.5 -7t8.5 -7.5t9.5 -11.5t8 -10l124 -157q11 -13 11 -19q0 -7 -10 -11q-45 -20 -66 -20q-14 0 -41 24l-135 115l-135 -115q-27 -24 -41 -24q-19 0 -66 20q-10 4 -10 11q0 6 11 19l123 157q13 17 18.5 23t14 10.5t19.5 4.5z" />
<glyph unicode="&#x178;" horiz-adv-x="1024" d="M675 208q-49 -118 -123 -172.5t-206 -54.5q-90 0 -154 19q-17 5 -17 20q0 5 18 76q4 17 20 17l18 -3q18 -4 48.5 -7t61.5 -3q56 0 97.5 18.5t70 57.5t45.5 76.5t38 98.5l20 60h-99q-177 0 -237 141q-18 42 -43 142l-60 247q-35 147 -53 217l-87 27q-16 4 -16 16v48 q0 17 16 17h209q20 0 23 -24q19 -132 65.5 -358.5t73.5 -285.5q33 -73 172 -73q14 0 39.5 0.5t34.5 0.5q118 375 201 722q3 11 8 14.5t16 3.5h110q24 0 24 -12q0 -3 -1 -7q-181 -671 -333 -1039zM719 1390q-35 0 -59 24t-24 59t24 59t59 24t59 -24t24 -59t-24 -59t-59 -24z M417 1390q-35 0 -59 24t-24 59t24 59t59 24t59 -24t24 -59t-24 -59t-59 -24z" />
<glyph unicode="&#x179;" horiz-adv-x="1001" d="M210 1156l-34 -115q-6 -16 -16 -16h-48q-17 0 -17 16l-7 204q0 21 18 21h794q21 0 21 -19v-65q0 -18 -12 -37l-681 -1035h453q71 0 110.5 26t47.5 104q0 19 18 19h87q12 0 12 -16q-4 -73 -25 -122t-59 -75t-82 -36t-105 -10h-596q-18 0 -18 22v74q0 13 10 26l681 1034 h-552zM599 1612h133q15 0 15 -10q0 -11 -25 -34l-173 -158q-21 -21 -44 -21h-85q-13 0 -13 8q0 9 12 23l128 165q15 19 24 23t28 4z" />
<glyph unicode="&#x17a;" horiz-adv-x="867" d="M240 111h319q66 0 102.5 29t40.5 104q0 16 19 16h83q14 0 14 -16q-8 -139 -75.5 -191.5t-194.5 -52.5h-461q-17 0 -17 17v77q0 10 2 17.5t4 10.5l3 3l520 667q10 12 10 17q0 6 -15 6h-400l-29 -108q-5 -17 -16 -17h-43q-14 0 -17 17l-15 188q0 31 32 31h645q21 0 21 -20 v-79q0 -17 -10 -30l-527 -663q-10 -12 -10 -17q0 -6 15 -6zM548 1299h133q15 0 15 -10q0 -11 -25 -34l-173 -158q-21 -21 -44 -21h-85q-13 0 -13 8q0 9 12 23l128 165q15 19 24 23t28 4z" />
<glyph unicode="&#x17b;" horiz-adv-x="1001" d="M210 1156l-34 -115q-6 -16 -16 -16h-48q-17 0 -17 16l-7 204q0 21 18 21h794q21 0 21 -19v-65q0 -18 -12 -37l-681 -1035h453q71 0 110.5 26t47.5 104q0 19 18 19h87q12 0 12 -16q-4 -73 -25 -122t-59 -75t-82 -36t-105 -10h-596q-18 0 -18 22v74q0 13 10 26l681 1034 h-552zM430 1495q0 38 26.5 64.5t64.5 26.5q39 0 65.5 -26.5t26.5 -64.5t-26.5 -64.5t-65.5 -26.5q-38 0 -64.5 26.5t-26.5 64.5z" />
<glyph unicode="&#x17c;" horiz-adv-x="867" d="M240 111h319q66 0 102.5 29t40.5 104q0 16 19 16h83q14 0 14 -16q-8 -139 -75.5 -191.5t-194.5 -52.5h-461q-17 0 -17 17v77q0 10 2 17.5t4 10.5l3 3l520 667q10 12 10 17q0 6 -15 6h-400l-29 -108q-5 -17 -16 -17h-43q-14 0 -17 17l-15 188q0 31 32 31h645q21 0 21 -20 v-79q0 -17 -10 -30l-527 -663q-10 -12 -10 -17q0 -6 15 -6zM356 1167q0 38 26.5 64.5t64.5 26.5q39 0 65.5 -26.5t26.5 -64.5t-26.5 -64.5t-65.5 -26.5q-38 0 -64.5 26.5t-26.5 64.5z" />
<glyph unicode="&#x17d;" horiz-adv-x="1001" d="M210 1156l-34 -115q-6 -16 -16 -16h-48q-17 0 -17 16l-7 204q0 21 18 21h794q21 0 21 -19v-65q0 -18 -12 -37l-681 -1035h453q71 0 110.5 26t47.5 104q0 19 18 19h87q12 0 12 -16q-4 -73 -25 -122t-59 -75t-82 -36t-105 -10h-596q-18 0 -18 22v74q0 13 10 26l681 1034 h-552zM595 1389h-131q-15 0 -23.5 6.5t-23.5 25.5l-129 163q-11 14 -11 19q0 7 10 11q45 20 66 20q14 0 41 -24l135 -115l135 115q27 24 41 24q19 0 66 -20q10 -4 10 -11q0 -5 -11 -19l-123 -157q-13 -17 -18.5 -23t-14 -10.5t-19.5 -4.5z" />
<glyph unicode="&#x17e;" horiz-adv-x="867" d="M240 111h319q66 0 102.5 29t40.5 104q0 16 19 16h83q14 0 14 -16q-8 -139 -75.5 -191.5t-194.5 -52.5h-461q-17 0 -17 17v77q0 10 2 17.5t4 10.5l3 3l520 667q10 12 10 17q0 6 -15 6h-400l-29 -108q-5 -17 -16 -17h-43q-14 0 -17 17l-15 188q0 31 32 31h645q21 0 21 -20 v-79q0 -17 -10 -30l-527 -663q-10 -12 -10 -17q0 -6 15 -6zM504 1076h-131q-15 0 -23.5 6.5t-23.5 25.5l-129 163q-11 14 -11 19q0 7 10 11q45 20 66 20q14 0 41 -24l135 -115l135 115q27 24 41 24q19 0 66 -20q10 -4 10 -11q0 -5 -11 -19l-123 -157q-13 -17 -18.5 -23 t-14 -10.5t-19.5 -4.5z" />
<glyph unicode="&#x17f;" horiz-adv-x="509" d="M325 27q0 -17 -4.5 -22t-21.5 -5h-83q-17 0 -21.5 5t-4.5 22v772l-114 35q-16 4 -16 16v49q0 17 16 17h114v203q0 155 52.5 224.5t178.5 69.5q47 0 128 -24q10 -4 10 -14l-12 -79q-1 -9 -6 -9q-2 0 -6 1q-61 14 -75 14q-76 0 -105.5 -40.5t-29.5 -142.5v-1092z" />
<glyph unicode="&#x18f;" horiz-adv-x="1177" d="M175 1102q-9 -3 -12 -3q-8 0 -10 13q-12 65 -12 80q0 11 11 16q58 27 135 49q119 34 244 34q172 0 300 -79q128 -80 190.5 -229.5t62.5 -345.5q0 -145 -32 -260.5t-84 -189t-121.5 -122.5t-140 -69t-145.5 -20q-469 0 -479 609q0 13 1 22q1 20 21 20h830q0 3 0.5 9t0.5 9 q0 248 -117 392q-113 139 -319 139q-86 0 -196 -31q-79 -22 -128 -43zM565 92q44 0 86 10.5t88.5 39.5t83.5 74.5t65.5 122.5t39.5 177h-700q5 -84 6 -92q49 -332 331 -332z" />
<glyph unicode="&#x192;" horiz-adv-x="702" d="M96 767q0 16 16 16h138q2 34 4 87.5t4 93t5 69.5q10 123 75 189t170 66q48 0 92 -5t64 -11l21 -5q7 -2 7 -10l-8 -84q-2 -9 -13 -9q-66 12 -135 12q-67 0 -102 -37t-41 -118q-3 -39 -4 -123t-2 -115h223q16 0 16 -16v-79q0 -16 -16 -16h-229q-10 -187 -17 -292.5 t-20.5 -231t-31.5 -205.5q-23 -98 -64.5 -195.5t-98.5 -154.5q-8 -8 -15 -8q-8 0 -13 5l-63 54q-9 8 -9 16q0 6 7 17q78 106 121 299q20 86 33.5 205.5t18.5 199t12 230.5l3 61h-132q-16 0 -16 16v79z" />
<glyph unicode="&#x1fa;" horiz-adv-x="1052" d="M855 16l-87 258h-479l-94 -258q-6 -16 -18 -16h-113q-15 0 -15 14q0 4 2 10l362 939l-87 28q-16 6 -16 16v48q0 6 5 11t11 5h286q17 0 22 -16l367 -1033q3 -8 3 -11q0 -11 -16 -11h-115q-12 0 -18 16zM538 958l-209 -574h402zM331 1293q0 75 50 121.5t134 46.5 q82 0 130 -46t48 -120q0 -71 -50.5 -116.5t-129.5 -45.5q-81 0 -131.5 45.5t-50.5 114.5zM633 1705h112q15 0 15 -10q0 -11 -26 -34l-138 -126q-23 -21 -45 -21h-71q-13 0 -13 8q0 7 12 23l103 133q20 27 51 27zM513 1384q-39 0 -60.5 -25t-21.5 -64q0 -34 21.5 -60.5 t58.5 -26.5q39 0 61.5 25.5t22.5 63.5q0 37 -22 62t-60 25z" />
<glyph unicode="&#x1fb;" horiz-adv-x="916" d="M597 1620h112q15 0 15 -10t-26 -34l-138 -126q-23 -21 -45 -21h-71q-13 0 -13 8q0 9 12 23l103 133q20 27 51 27zM294 1208q0 75 50 121.5t134 46.5q82 0 130 -46t48 -120q0 -71 -50.5 -116.5t-129.5 -45.5q-81 0 -131.5 45.5t-50.5 114.5zM476 1299q-39 0 -60.5 -25 t-21.5 -64q0 -34 21.5 -60.5t58.5 -26.5q39 0 61.5 25.5t22.5 63.5q0 37 -22 62t-60 25zM763 546v-447q18 -9 99 -34q10 -3 12 -5t2 -9v-41q0 -8 -12 -9l-192 -20q-11 0 -14.5 4.5t-5.5 15.5l-15 115q-143 -140 -295 -140q-131 0 -201 70.5t-70 196.5q0 52 15 93.5t40 70 t62 50t75 33t87 19t90 9.5t90 2h99v93q0 117 -56.5 170t-166.5 53q-85 0 -210 -57l-20 -9q-6 -2 -8 -2q-7 0 -9 6l-17 70q-3 11 7 18l17 10q45 27 123.5 52t152.5 25q230 0 296 -177q25 -65 25 -226zM629 214v208q-179 0 -240 -8q-84 -11 -131.5 -47.5t-47.5 -115.5 q0 -73 51.5 -116.5t128.5 -43.5q60 0 125 32t114 91z" />
<glyph unicode="&#x1fc;" horiz-adv-x="1493" d="M371 456h406l-80 706h-6zM1351 621h-459l60 -511h450q16 0 21 -5t5 -21v-58q0 -16 -5 -21t-21 -5h-557q-6 0 -11 5t-5 11l-38 326h-466l-148 -326q-6 -16 -19 -16h-116q-16 0 -16 13q0 5 3 11l535 1134l-88 28q-16 6 -16 16v48q0 6 5 11t11 5h925q17 0 21.5 -5t4.5 -21 v-58q0 -16 -4.5 -21t-21.5 -5h-569l48 -425h471q17 0 21.5 -4.5t4.5 -21.5v-58q0 -17 -4.5 -21.5t-21.5 -4.5zM949 1612h133q15 0 15 -10q0 -11 -25 -34l-173 -158q-21 -21 -44 -21h-85q-13 0 -13 8q0 9 12 23l128 165q15 19 24 23t28 4z" />
<glyph unicode="&#x1fd;" horiz-adv-x="1466" d="M1025 837q-110 0 -175 -78.5t-80 -213.5h472v26q0 123 -60 194.5t-157 71.5zM376 87q152 0 246 109v243q-127 0 -159 -1q-44 -1 -74.5 -3.5t-69.5 -13.5t-62.5 -30t-40 -54.5t-16.5 -85.5q0 -73 50.5 -118.5t125.5 -45.5zM727 788q111 162 300 162q349 0 349 -458v-21 q0 -34 -17 -34h-592q8 -183 89.5 -266t237.5 -83q115 0 226 47q10 5 15 5q7 0 10 -3.5t6 -17.5l13 -60q0 -10 -12 -16q-135 -67 -283 -67q-251 0 -347 170q-58 -80 -152 -125t-204 -45q-131 0 -213 72t-82 195q0 300 409 300h147v71q0 117 -55 170t-163 53q-85 0 -206 -57 q-20 -10 -28 -10q-7 0 -8 5q-1 3 -4.5 17t-7 30t-4.5 18l-1 6q0 13 24 27q37 24 115 50t142 27h13q213 0 283 -162zM874 1299h133q15 0 15 -10q0 -11 -25 -34l-173 -158q-21 -21 -44 -21h-85q-13 0 -13 8q0 9 12 23l128 165q15 19 24 23t28 4z" />
<glyph unicode="&#x1fe;" horiz-adv-x="1217" d="M609 -24q-157 0 -275 73l-75 -128q-12 -19 -30 -19h-81q-16 0 -16 13q0 6 5 14l112 191q-156 168 -156 517q0 146 27.5 261.5t86.5 205t160.5 138t241.5 48.5q169 0 284 -74l95 161q8 12 22 12h89q15 0 15 -10q0 -3 -5 -13l-131 -222q146 -164 146 -507q0 -156 -32 -276 t-82.5 -191t-120.5 -116.5t-137.5 -61.5t-142.5 -16zM241 645q0 -262 80 -402l508 864q-87 74 -222 74q-84 0 -149 -29.5t-105.5 -78.5t-66 -120t-35.5 -145.5t-10 -162.5zM608 86q368 0 368 559q0 237 -74 370l-506 -862q82 -67 212 -67zM708 1612h133q15 0 15 -10 q0 -11 -25 -34l-173 -158q-21 -21 -44 -21h-85q-13 0 -13 8q0 9 12 23l128 165q15 19 24 23t28 4z" />
<glyph unicode="&#x1ff;" horiz-adv-x="1037" d="M95 475q0 143 43.5 247.5t139.5 166t237 61.5q125 0 218 -51l57 97q8 12 22 12h84q13 0 13 -13q0 -4 -3 -10l-88 -150q124 -127 124 -360q0 -121 -27.5 -213.5t-69 -145t-99.5 -85.5t-110 -44t-110 -11q-105 0 -191 37l-54 -92q-12 -19 -30 -19h-77q-15 0 -15 13 q0 7 4 14l82 140q-150 129 -150 406zM235 472q0 -195 74 -294l363 618q-64 42 -158 42q-151 0 -215 -96t-64 -270zM798 472q0 154 -51 243l-355 -605q56 -26 133 -26q44 0 80 8.5t73 34t62.5 67t41.5 112.5t16 166zM604 1299h133q15 0 15 -10q0 -11 -25 -34l-173 -158 q-21 -21 -44 -21h-85q-13 0 -13 8q0 9 12 23l128 165q15 19 24 23t28 4z" />
<glyph unicode="&#x218;" horiz-adv-x="1002" d="M181 243l32 -115q133 -35 227 -35q58 0 109.5 11t100 36t77 72.5t28.5 112.5q0 29 -8.5 55.5t-20 46t-34.5 40t-40.5 33t-51 29.5t-52.5 25l-57 26l-56 24q-137 61 -190 100q-127 93 -128 245q0 88 35 155.5t95.5 107t135.5 59t162 19.5q142 0 294 -40q16 -4 16 -21v-182 q0 -16 -15 -16h-50q-10 0 -16 16l-39 115q-100 20 -180 20q-139 0 -214 -57t-75 -169q0 -36 14.5 -67t34.5 -52t57 -44t64 -35l74 -34q129 -56 206 -100.5t120 -92t57 -92.5t14 -112q0 -93 -34.5 -161.5t-96.5 -109t-141 -59.5t-175 -19q-184 0 -354 61q-16 5 -16 21l10 183 q0 16 17 16h48q12 0 16 -16zM379 -407l46 271q3 15 21 15h122q14 0 14 -11q0 -4 -2 -10l-101 -284q-7 -20 -21 -20h-69q-13 0 -13 15q0 6 3 24z" />
<glyph unicode="&#x219;" horiz-adv-x="881" d="M89 43q-11 5 -11 16l16 168q2 17 17 17h44q13 0 16 -17l26 -113q98 -30 228 -30q110 0 173 44t63 124q0 62 -49.5 92t-190.5 61q-71 16 -120 33t-97 47.5t-72.5 78.5t-24.5 113q0 273 358 273q131 0 282 -55q12 -3 12 -16l-13 -160q-2 -17 -17 -17h-41q-13 0 -18 17 l-29 108q-110 25 -180 25q-108 0 -165 -39t-57 -111q0 -78 82 -118q46 -23 200 -59q61 -15 107 -33t87 -48t63 -75t22 -104q0 -77 -29.5 -134.5t-81.5 -90.5t-116 -48.5t-140 -15.5q-186 0 -344 67zM299 -407l46 271q3 15 21 15h122q14 0 14 -11q0 -4 -2 -10l-101 -284 q-7 -20 -21 -20h-69q-13 0 -13 15q0 6 3 24z" />
<glyph unicode="&#x21a;" horiz-adv-x="962" d="M349 -407l46 271q3 15 21 15h122q14 0 14 -11q0 -4 -2 -10l-101 -284q-7 -20 -21 -20h-69q-13 0 -13 15q0 6 3 24zM34 1266h894q18 0 18 -21l-7 -204q0 -16 -17 -16h-48q-10 0 -16 16l-34 115h-272v-1054l103 -20q18 -3 22 -7.5t4 -20.5v-28q0 -16 -4.5 -21t-21.5 -5 h-348q-17 0 -21.5 5t-4.5 21v28q0 16 4 20.5t22 7.5l103 20v1054h-272l-34 -115q-6 -16 -16 -16h-48q-17 0 -17 16l-7 204q0 21 18 21z" />
<glyph unicode="&#x21b;" horiz-adv-x="646" d="M259 -407l46 271q3 15 21 15h122q14 0 14 -11q0 -4 -2 -10l-101 -284q-7 -20 -21 -20h-69q-13 0 -13 15q0 6 3 24zM211 270v544h-166q-16 0 -16 16v79q0 17 16 17h166v194q0 16 17 16h101q17 0 17 -16v-194h241q16 0 16 -17v-79q0 -16 -16 -16h-241v-544q0 -183 154 -183 q21 0 66 6q9 0 10 -11l11 -81q0 -11 -12 -13q-57 -12 -114 -12q-127 0 -188.5 73t-61.5 221z" />
<glyph unicode="&#x259;" horiz-adv-x="942" d="M847 475v-17q-2 -220 -106.5 -351t-296.5 -131q-179 0 -270.5 107.5t-91.5 342.5v21q0 34 20 34h602q0 173 -86.5 264.5t-248.5 91.5q-114 0 -236 -65q-12 -6 -17 -6q-6 0 -8.5 4.5t-4.5 18.5l-9 67q0 11 12 17q53 31 137.5 54t156.5 23q214 0 329.5 -124.5t117.5 -350.5 zM444 90q114 0 178.5 74t77.5 208h-481v-26q0 -122 61.5 -189t163.5 -67z" />
<glyph unicode="&#x2bc;" horiz-adv-x="361" d="M322 1382l-157 -399q-4 -9 -15 -9h-79q-10 0 -10 12q0 4 72 398q3 16 21 16h155q15 0 15 -8q0 -5 -2 -10z" />
<glyph unicode="&#x2c6;" horiz-adv-x="668" d="M268 1310h131q7 0 13.5 -2t12.5 -7t8.5 -7.5t9.5 -11.5t8 -10l124 -157q11 -13 11 -19q0 -7 -10 -11q-45 -20 -66 -20q-14 0 -41 24l-135 115l-135 -115q-27 -24 -41 -24q-19 0 -66 20q-10 4 -10 11q0 6 11 19l123 157q13 17 18.5 23t14 10.5t19.5 4.5z" />
<glyph unicode="&#x2c7;" horiz-adv-x="668" d="M400 1076h-131q-15 0 -23.5 6.5t-23.5 25.5l-129 163q-11 14 -11 19q0 7 10 11q45 20 66 20q14 0 41 -24l135 -115l135 115q27 24 41 24q19 0 66 -20q10 -4 10 -11q0 -5 -11 -19l-123 -157q-13 -17 -18.5 -23t-14 -10.5t-19.5 -4.5z" />
<glyph unicode="&#x2d8;" horiz-adv-x="588" d="M294 1175q39 0 66.5 24t40.5 51q7 13 13 13q4 0 9 -2l72 -28q11 -5 11 -13q0 -10 -10 -32q-23 -51 -75 -86.5t-127 -35.5t-127 35.5t-75 86.5q-10 22 -10 32q0 8 11 13l72 28q5 2 9 2q6 0 13 -13q13 -27 40.5 -51t66.5 -24z" />
<glyph unicode="&#x2d9;" horiz-adv-x="347" d="M82 1209q0 38 26.5 64.5t64.5 26.5q39 0 65.5 -26.5t26.5 -64.5t-26.5 -64.5t-65.5 -26.5q-38 0 -64.5 26.5t-26.5 64.5z" />
<glyph unicode="&#x2da;" horiz-adv-x="526" d="M82 1228q0 75 50 121.5t134 46.5q82 0 130 -46t48 -120q0 -71 -50.5 -116.5t-129.5 -45.5q-81 0 -131.5 45.5t-50.5 114.5zM264 1319q-39 0 -60.5 -25t-21.5 -64q0 -34 21.5 -60.5t58.5 -26.5q39 0 61.5 25.5t22.5 63.5q0 37 -22 62t-60 25z" />
<glyph unicode="&#x2db;" horiz-adv-x="462" d="M415 -368q-69 -50 -165 -50q-43 0 -80.5 13.5t-66.5 50.5t-29 92q0 69 43.5 150.5t101.5 141.5h109q-49 -49 -86 -117t-37 -129q0 -44 27.5 -66t68.5 -22q30 0 58 11q4 1 10 4t9.5 4.5t6.5 1.5q8 0 12 -11l23 -54q2 -4 2 -7q0 -7 -7 -13z" />
<glyph unicode="&#x2dc;" horiz-adv-x="650" d="M405 1072q-40 0 -92 33t-75 33q-34 0 -95 -56q-8 -6 -13 -6q-6 0 -14 8q-24 29 -32 48q-2 6 -2 8q0 6 3 13q55 105 160 105q40 0 93 -32t77 -32q37 0 93 54q8 8 13 8t12 -8q16 -22 27 -40q8 -14 8 -20q0 -5 -3 -11q-27 -50 -71 -77.5t-89 -27.5z" />
<glyph unicode="&#x2dd;" horiz-adv-x="745" d="M267 1306h111q18 0 18 -10q0 -11 -24 -35l-156 -163q-19 -21 -42 -21h-77q-15 0 -15 10q0 8 25 42l108 150q14 19 23 23t29 4zM567 1306h111q18 0 18 -10q0 -11 -24 -35l-156 -163q-19 -21 -42 -21h-77q-15 0 -15 10q0 8 25 42l108 150q14 19 23 23t29 4z" />
<glyph unicode="&#x37e;" horiz-adv-x="403" d="M111 798q0 44 30.5 74t73.5 30t73.5 -30t30.5 -74t-30.5 -74t-73.5 -30t-73.5 30t-30.5 74zM301 187l-153 -416q-6 -15 -15 -15h-86q-11 0 -11 12q0 4 8 44l28 152l40 223q3 15 19 15h156q15 0 15 -10q0 -2 -1 -5z" />
<glyph unicode="&#x384;" horiz-adv-x="343" d="M255 1291q-63 -174 -76 -201q-10 -22 -22 -22h-61q-14 0 -14 13q0 2 25 220q3 26 30 26h103q21 0 21 -14q0 -4 -6 -22z" />
<glyph unicode="&#x385;" horiz-adv-x="722" d="M567 1073q-35 0 -59 24t-24 59t24 59t59 24t59 -24t24 -59t-24 -59t-59 -24zM155 1073q-35 0 -59 24t-24 59t24 59t59 24t59 -24t24 -59t-24 -59t-59 -24zM468 1291q-63 -174 -76 -201q-10 -22 -22 -22h-61q-14 0 -14 13q0 2 25 220q3 26 30 26h103q21 0 21 -14 q0 -4 -6 -22z" />
<glyph unicode="&#x386;" horiz-adv-x="1118" d="M788 454l-217 711l-236 -711h453zM439 1158l-87 28q-16 6 -16 16v48q0 6 5 11t11 5h297q17 0 22 -16l396 -1228q2 -6 2 -9q0 -5 -5 -9t-10 -4h-118q-14 0 -18 16l-98 328h-519l-103 -328q-4 -16 -18 -16h-116q-16 0 -16 12q0 3 3 12zM275 1321q-63 -174 -76 -201 q-10 -22 -22 -22h-61q-14 0 -14 13q0 2 25 220q3 26 30 26h103q21 0 21 -14q0 -4 -6 -22z" />
<glyph unicode="&#x387;" horiz-adv-x="416" d="M102 798q0 44 30 74t74 30t74 -30t30 -74t-30 -74t-74 -30t-74 30t-30 74z" />
<glyph unicode="&#x388;" horiz-adv-x="1144" d="M265 1266h793q16 0 21 -5t5 -21v-58q0 -16 -5 -21t-21 -5h-546v-424h400q16 0 21 -5t5 -21v-58q0 -16 -5 -21t-21 -5h-400v-512h546q16 0 21 -5t5 -21v-58q0 -16 -5 -21t-21 -5h-661q-17 0 -21.5 5t-4.5 21v1115l-106 44q-16 6 -16 16v48q0 17 16 17zM195 1321 q-63 -174 -76 -201q-10 -22 -22 -22h-61q-14 0 -14 13q0 2 25 220q3 26 30 26h103q21 0 21 -14q0 -4 -6 -22z" />
<glyph unicode="&#x389;" horiz-adv-x="1409" d="M377 1151l-112 34q-16 4 -16 16v48q0 17 16 17h225q16 0 22 -6t6 -23v-586h590v589q0 16 5 21t21 5h89q17 0 21.5 -5t4.5 -21v-1214q0 -16 -4.5 -21t-21.5 -5h-89q-16 0 -21 5t-5 21v514h-590v-514q0 -16 -5 -21t-21 -5h-89q-17 0 -21.5 5t-4.5 21v1125zM186 1321 q-63 -174 -76 -201q-10 -22 -22 -22h-61q-14 0 -14 13q0 2 25 220q3 26 30 26h103q21 0 21 -14q0 -4 -6 -22z" />
<glyph unicode="&#x38a;" horiz-adv-x="753" d="M185 1321q-63 -174 -76 -201q-10 -22 -22 -22h-61q-14 0 -14 13q0 2 25 220q3 26 30 26h103q21 0 21 -14q0 -4 -6 -22zM625 1184l-103 -20v-1062l103 -20q18 -3 22 -7.5t4 -20.5v-28q0 -16 -4.5 -21t-21.5 -5h-348q-17 0 -21.5 5t-4.5 21v28q0 16 4 20.5t22 7.5l104 20 v1062l-104 20q-18 3 -22 7.5t-4 20.5v28q0 16 4.5 21t21.5 5h348q17 0 21.5 -5t4.5 -21v-28q0 -16 -4.5 -20.5t-21.5 -7.5z" />
<glyph unicode="&#x38c;" horiz-adv-x="1243" d="M637 -24q-52 0 -101 8t-101.5 28.5t-97 53t-85.5 84.5t-69.5 119t-45 161t-16.5 207q0 146 27.5 261.5t86.5 205t160.5 138t241.5 48.5q112 0 200 -32t146.5 -89t97 -140t55 -179.5t16.5 -212.5q0 -156 -32 -276t-82.5 -191t-120.5 -116.5t-137.5 -61.5t-142.5 -16z M636 86q368 0 368 559q0 536 -369 536q-84 0 -149 -29.5t-105.5 -78.5t-66 -120t-35.5 -145.5t-10 -162.5q0 -140 23.5 -244.5t59 -163t87 -94t97.5 -46.5t100 -11zM185 1321q-63 -174 -76 -201q-10 -22 -22 -22h-61q-14 0 -14 13q0 2 25 220q3 26 30 26h103q21 0 21 -14 q0 -4 -6 -22z" />
<glyph unicode="&#x38e;" horiz-adv-x="1314" d="M1152 1266h100q33 0 33 -18q0 -7 -7 -21l-268 -525q-75 -150 -138 -291v-385q0 -16 -5 -21t-21 -5h-90q-16 0 -21 5t-5 21v385q-157 371 -364 740l-110 34q-16 4 -16 16v48q0 17 16 17h209q14 0 22 -14q167 -302 319 -684h4q45 117 137.5 324.5t169.5 348.5q15 25 35 25z M183 1321q-63 -174 -76 -201q-10 -22 -22 -22h-61q-14 0 -14 13q0 2 25 220q3 26 30 26h103q21 0 21 -14q0 -4 -6 -22z" />
<glyph unicode="&#x38f;" horiz-adv-x="1263" d="M632 1290q137 0 240.5 -48t165.5 -135t92 -201t30 -255q0 -145 -49 -282.5t-137 -252.5v-5l128 -33q8 -3 8 -17v-44q0 -17 -16 -17h-274q-16 0 -21 5t-5 22v56q0 6 6 12q91 79 151.5 218.5t60.5 328.5q0 538 -380 538t-380 -538q0 -189 60.5 -328.5t151.5 -218.5 q6 -6 6 -12v-56q0 -17 -5 -22t-21 -5h-274q-16 0 -16 17v44q0 14 8 17l128 33v5q-88 115 -137 252.5t-49 282.5q0 141 30 255t92 201t165.5 135t240.5 48zM185 1321q-63 -174 -76 -201q-10 -22 -22 -22h-61q-14 0 -14 13q0 2 25 220q3 26 30 26h103q21 0 21 -14q0 -4 -6 -22 z" />
<glyph unicode="&#x390;" horiz-adv-x="633" d="M474 1073q-35 0 -59 24t-24 59t24 59t59 24t59 -24t24 -59t-24 -59t-59 -24zM62 1073q-35 0 -59 24t-24 59t24 59t59 24t59 -24t24 -59t-24 -59t-59 -24zM375 1291q-63 -174 -76 -201q-10 -22 -22 -22h-61q-14 0 -14 13q0 2 25 220q3 26 30 26h103q21 0 21 -14 q0 -4 -6 -22zM211 815l-106 27q-17 3 -17 18v45q0 14 17 16l225 23q16 0 16 -19v-649q0 -96 38.5 -142t119.5 -46q10 0 22.5 1t24.5 2.5t22 3.5l18 2l7 1q10 0 11 -12l7 -76q0 -12 -12 -15q-82 -18 -147 -18q-122 0 -184 72t-62 227v539z" />
<glyph unicode="&#x391;" horiz-adv-x="1118" d="M788 454l-217 711l-236 -711h453zM439 1158l-87 28q-16 6 -16 16v48q0 6 5 11t11 5h297q17 0 22 -16l396 -1228q2 -6 2 -9q0 -5 -5 -9t-10 -4h-118q-14 0 -18 16l-98 328h-519l-103 -328q-4 -16 -18 -16h-116q-16 0 -16 12q0 3 3 12z" />
<glyph unicode="&#x392;" horiz-adv-x="1111" d="M537 1162l-203 -2v-430h185q116 0 206 65.5t90 160.5q0 49 -14.5 86t-38.5 59.5t-60.5 36.5t-75.5 19t-89 5zM511 618h-178v-514q3 0 19 -2t34 -3.5t53.5 -3t75.5 -1.5q72 0 131 14t107.5 44.5t76 84.5t27.5 127q0 116 -91.5 185t-254.5 69zM87 1266l261 5q156 3 165 3 q58 0 104 -3.5t101 -13.5t95.5 -31t75.5 -52.5t53.5 -81.5t18.5 -115q0 -107 -60 -181t-167 -104q-24 -6 -27 -6l26 -6q135 -42 204.5 -123.5t69.5 -212.5q0 -174 -126 -268t-367 -94q-82 0 -155.5 4.5t-106.5 9.5l-33 4q-11 2 -15 3.5t-7.5 6.5t-3.5 16v1115l-106 44 q-16 6 -16 16v48q0 17 16 17z" />
<glyph unicode="&#x393;" horiz-adv-x="811" d="M679 1156h-323q-36 0 -52 -9t-16 -34v-1087q0 -16 -5 -21t-21 -5h-89q-17 0 -21.5 5t-4.5 23v1107q0 69 38.5 100t124.5 31h473q18 0 18 -21l-7 -204q0 -16 -17 -16h-48q-10 0 -16 16z" />
<glyph unicode="&#x394;" horiz-adv-x="1149" d="M554 1076l-321 -925q-7 -21 -7 -28q0 -9 6 -11t24 -2h637q17 0 23.5 1.5t6.5 9.5q0 6 -9 32l-322 923q-13 37 -16 58h-5q-4 -19 -17 -58zM1075 0h-1001q-26 0 -26 23q0 4 3 13l425 1204q9 26 29 26h137q20 0 29 -26l427 -1204q3 -9 3 -13q0 -23 -26 -23z" />
<glyph unicode="&#x395;" horiz-adv-x="966" d="M87 1266h793q16 0 21 -5t5 -21v-58q0 -16 -5 -21t-21 -5h-546v-424h400q16 0 21 -5t5 -21v-58q0 -16 -5 -21t-21 -5h-400v-512h546q16 0 21 -5t5 -21v-58q0 -16 -5 -21t-21 -5h-661q-17 0 -21.5 5t-4.5 21v1115l-106 44q-16 6 -16 16v48q0 17 16 17z" />
<glyph unicode="&#x396;" horiz-adv-x="983" d="M210 1156l-34 -115q-6 -16 -16 -16h-48q-17 0 -17 16l-7 204q0 21 18 21h794q21 0 21 -19v-65q0 -18 -12 -37l-681 -1035h453q71 0 110.5 26t47.5 104q0 19 18 19h87q12 0 12 -16q-4 -73 -25 -122t-59 -75t-82 -36t-105 -10h-596q-18 0 -18 22v74q0 13 10 26l681 1034 h-552z" />
<glyph unicode="&#x397;" horiz-adv-x="1246" d="M199 1151l-112 34q-16 4 -16 16v48q0 17 16 17h225q16 0 22 -6t6 -23v-586h590v589q0 16 5 21t21 5h89q17 0 21.5 -5t4.5 -21v-1214q0 -16 -4.5 -21t-21.5 -5h-89q-16 0 -21 5t-5 21v514h-590v-514q0 -16 -5 -21t-21 -5h-89q-17 0 -21.5 5t-4.5 21v1125z" />
<glyph unicode="&#x398;" horiz-adv-x="1217" d="M416 611v52q0 12 9.5 18.5t18.5 6.5h327q30 0 30 -23v-56q0 -25 -28 -25h-327q-30 0 -30 27zM609 -24q-52 0 -101 8t-101.5 28.5t-97 53t-85.5 84.5t-69.5 119t-45 161t-16.5 207q0 146 27.5 261.5t86.5 205t160.5 138t241.5 48.5q112 0 200 -32t146.5 -89t97 -140 t55 -179.5t16.5 -212.5q0 -156 -32 -276t-82.5 -191t-120.5 -116.5t-137.5 -61.5t-142.5 -16zM608 86q368 0 368 559q0 536 -369 536q-84 0 -149 -29.5t-105.5 -78.5t-66 -120t-35.5 -145.5t-10 -162.5q0 -140 23.5 -244.5t59 -163t87 -94t97.5 -46.5t100 -11z" />
<glyph unicode="&#x399;" horiz-adv-x="632" d="M488 1184l-103 -20v-1062l103 -20q18 -3 22 -7.5t4 -20.5v-28q0 -16 -5 -21t-21 -5h-348q-16 0 -21 5t-5 21v28q0 16 4 20.5t22 7.5l104 20v1062l-104 20q-18 3 -22 7.5t-4 20.5v28q0 16 5 21t21 5h348q16 0 21 -5t5 -21v-28q0 -16 -4.5 -20.5t-21.5 -7.5z" />
<glyph unicode="&#x39a;" horiz-adv-x="1133" d="M615 660q64 -20 110 -70t65.5 -97t46.5 -124.5t44 -112.5q43 -92 84.5 -125t115.5 -33q17 0 21.5 -5t4.5 -21v-58q0 -16 -4.5 -21t-21.5 -5q-113 0 -179.5 32.5t-120.5 124.5q-22 36 -42 90t-33 99t-37 93t-52.5 81t-79 54.5t-118.5 21.5h-78v-558q0 -16 -4.5 -21 t-21.5 -5h-89q-17 0 -21.5 5t-4.5 23v1123l-112 34q-16 4 -16 16v48q0 17 16 17h227q16 0 21 -5t5 -22v-545h101q103 0 160 111q21 40 40.5 97.5t32 101.5t36 93t52.5 83t80.5 60.5t121.5 35.5q27 4 70 4q12 0 16.5 -4.5t4.5 -19.5v-61q0 -16 -4 -21t-17 -5q-31 0 -59 -6 q-47 -11 -82.5 -43.5t-58.5 -80t-39 -93.5l-36 -102q-19 -55 -36 -87q-37 -73 -109 -97z" />
<glyph unicode="&#x39b;" horiz-adv-x="1156" d="M902 0q-20 0 -29 41q-174 706 -321 1088h-6q-5 -33 -14 -61l-327 -1051q-5 -17 -25 -17h-115q-17 0 -17 16q0 5 3 14l161 489l172 513q72 212 75 218q6 16 22 16h132q15 0 23 -16q61 -129 134.5 -344t113.5 -354l109 -380l18 -64l91 -27q16 -4 16 -16v-48q0 -17 -16 -17 h-200z" />
<glyph unicode="&#x39c;" horiz-adv-x="1433" d="M409 1250l302 -687l8 -30h6q6 20 10 30l312 687q8 16 20 16h161q6 0 10.5 -5t5.5 -11q4 -65 18 -373l25 -581q11 -273 11 -276q0 -12 -5.5 -16t-20.5 -4h-91q-16 0 -20.5 4.5t-5.5 21.5l-31 1068v41h-4q-8 -27 -15 -41l-357 -774q-6 -12 -30 -12q-26 0 -32 12l-343 774 l-14 41h-4v-38l-47 -1071q-1 -17 -5.5 -21.5t-20.5 -4.5h-91q-15 0 -20.5 4.5t-5.5 18.5q0 5 74 1227q0 6 5 11t11 5h164q5 0 10 -4t7 -8z" />
<glyph unicode="&#x39d;" horiz-adv-x="1275" d="M199 1151l-112 34q-16 4 -16 16v48q0 17 16 17h263q14 0 23 -16l556 -963l39 -79h6v1032q0 16 5 21t21 5h89q17 0 21.5 -5t4.5 -21v-1214q0 -16 -4.5 -21t-21.5 -5h-111q-27 0 -42 26l-548 951q-12 20 -22.5 42t-15.5 34l-4 12h-6v-1039q0 -16 -5 -21t-21 -5h-89 q-17 0 -21.5 5t-4.5 21v1125z" />
<glyph unicode="&#x39e;" horiz-adv-x="992" d="M862 1132h-732q-16 0 -21 5t-5 21v80q0 16 5 21t21 5h732q16 0 21 -5t5 -21v-80q0 -16 -5 -21t-21 -5zM782 588h-572q-16 0 -21 5t-5 21v80q0 16 5 21t21 5h572q16 0 21 -5t5 -21v-80q0 -16 -5 -21t-21 -5zM862 0h-732q-16 0 -21 5t-5 21v80q0 16 5 21t21 5h732 q16 0 21 -5t5 -21v-80q0 -16 -5 -21t-21 -5z" />
<glyph unicode="&#x39f;" horiz-adv-x="1217" d="M609 -24q-52 0 -101 8t-101.5 28.5t-97 53t-85.5 84.5t-69.5 119t-45 161t-16.5 207q0 146 27.5 261.5t86.5 205t160.5 138t241.5 48.5q112 0 200 -32t146.5 -89t97 -140t55 -179.5t16.5 -212.5q0 -156 -32 -276t-82.5 -191t-120.5 -116.5t-137.5 -61.5t-142.5 -16z M608 86q368 0 368 559q0 536 -369 536q-84 0 -149 -29.5t-105.5 -78.5t-66 -120t-35.5 -145.5t-10 -162.5q0 -140 23.5 -244.5t59 -163t87 -94t97.5 -46.5t100 -11z" />
<glyph unicode="&#x3a0;" horiz-adv-x="1214" d="M199 1150l-112 35q-16 4 -16 16v48q0 16 16 18h705q154 0 218 -88q55 -74 55 -210v-943q0 -16 -4.5 -21t-21.5 -5h-89q-16 0 -21 5t-5 21v953q0 75 -40 127q-38 48 -132 48h-386q-16 0 -21 -5t-5 -21v-1102q0 -16 -5 -21t-21 -5h-89q-17 0 -21.5 5t-4.5 21v1124z" />
<glyph unicode="&#x3a1;" horiz-adv-x="995" d="M334 1158l-1 -568h97q385 2 385 298q0 151 -84.5 211.5t-257.5 60.5zM87 1265h30q59 0 189.5 2.5t208.5 2.5q221 0 333 -93t112 -276q0 -421 -517 -421h-109v-454q0 -16 -5 -21t-21 -5h-89q-17 0 -21.5 5t-4.5 23v1112l-106 44q-16 6 -16 16v48q0 17 16 17z" />
<glyph unicode="&#x3a3;" horiz-adv-x="1011" d="M101 113l386 506q10 14 10 20q0 5 -11 20l-385 494q-8 11 -8 25v60q0 18 5.5 23t28.5 5h788q18 0 18 -21l-7 -204q0 -16 -17 -16h-48q-10 0 -16 16l-34 115h-547q391 -481 386 -497q9 -12 9 -22q0 -11 -8 -20l-386 -507h553l34 115q5 16 16 16h48q17 0 17 -16l7 -204 q0 -21 -18 -21h-795q-23 0 -28.5 5t-5.5 23v60q0 14 8 25z" />
<glyph unicode="&#x3a4;" horiz-adv-x="962" d="M34 1266h894q18 0 18 -21l-7 -204q0 -16 -17 -16h-48q-10 0 -16 16l-34 115h-272v-1054l103 -20q18 -3 22 -7.5t4 -20.5v-28q0 -16 -4.5 -21t-21.5 -5h-348q-17 0 -21.5 5t-4.5 21v28q0 16 4 20.5t22 7.5l103 20v1054h-272l-34 -115q-6 -16 -16 -16h-48q-17 0 -17 16 l-7 204q0 21 18 21z" />
<glyph unicode="&#x3a5;" horiz-adv-x="1074" d="M922 1266h100q33 0 33 -18q0 -7 -7 -21l-268 -525q-75 -150 -138 -291v-385q0 -16 -5 -21t-21 -5h-90q-16 0 -21 5t-5 21v385q-157 371 -364 740l-110 34q-16 4 -16 16v48q0 17 16 17h209q14 0 22 -14q167 -302 319 -684h4q45 117 137.5 324.5t169.5 348.5q15 25 35 25z " />
<glyph unicode="&#x3a6;" horiz-adv-x="1365" d="M612 26v127h-21q-242 3 -370 125t-128 331q0 216 127 339t370 126h22v77l-112 33q-16 5 -16 17v48q0 17 16 17h227q16 0 21 -5t5 -22v-165h20q246 -1 372.5 -122.5t126.5 -333.5q0 -218 -127.5 -341.5t-373.5 -123.5h-18v-127q0 -16 -4.5 -21t-21.5 -5h-89q-16 0 -21 5 t-5 21zM768 968h-15v-709h25q174 3 262 98.5t88 258.5q0 161 -91 256t-269 96zM237 611q0 -158 91.5 -255t259.5 -97h24v709h-27q-168 -1 -258 -98.5t-90 -258.5z" />
<glyph unicode="&#x3a7;" horiz-adv-x="1143" d="M627 760l313 488q11 18 32 18h116q18 0 18 -9q0 -5 -7 -15l-410 -616l404 -604q5 -7 5 -13q0 -9 -17 -9h-121q-19 0 -30 18l-308 467q-4 7 -20 39h-4q-5 -13 -22 -40q-100 -164 -234 -336q-118 -153 -264 -153q-30 0 -30 22q0 7 6 88q1 16 18 18q85 10 161 101 q104 124 218 297l61 95l-347 531l-124 38q-16 4 -16 16v48q0 17 16 17h205q18 0 30 -18l308 -490l17 -34h4q3 7 22 36z" />
<glyph unicode="&#x3a8;" horiz-adv-x="1443" d="M651 474v598q0 16 4.5 21t21.5 5h89q16 0 21 -5t5 -21v-598q73 2 135 22.5t112.5 59.5t79 105t28.5 153v430q0 13 5.5 17.5t20.5 4.5h227q16 0 16 -17v-48q0 -12 -16 -16l-112 -34v-337q0 -114 -38.5 -202t-107 -141t-157 -80t-193.5 -29v-336q0 -16 -5 -21t-21 -5h-89 q-17 0 -21.5 5t-4.5 21v336q-105 2 -193.5 29t-157 80t-107 141t-38.5 202v337l-112 34q-16 4 -16 16v48q0 17 16 17h227q15 0 20.5 -4.5t5.5 -17.5v-430q0 -87 28.5 -153t79 -105t112.5 -59.5t135 -22.5z" />
<glyph unicode="&#x3a9;" horiz-adv-x="1264" d="M632 1290q137 0 240.5 -48t165.5 -135t92 -201t30 -255q0 -145 -49 -282.5t-137 -252.5v-5l128 -33q8 -3 8 -17v-44q0 -17 -16 -17h-274q-16 0 -21 5t-5 22v56q0 6 6 12q91 79 151.5 218.5t60.5 328.5q0 538 -380 538t-380 -538q0 -189 60.5 -328.5t151.5 -218.5 q6 -6 6 -12v-56q0 -17 -5 -22t-21 -5h-274q-16 0 -16 17v44q0 14 8 17l128 33v5q-88 115 -137 252.5t-49 282.5q0 141 30 255t92 201t165.5 135t240.5 48z" />
<glyph unicode="&#x3aa;" horiz-adv-x="632" d="M488 1184l-103 -20v-1062l103 -20q18 -3 22 -7.5t4 -20.5v-28q0 -16 -5 -21t-21 -5h-348q-16 0 -21 5t-5 21v28q0 16 4 20.5t22 7.5l104 20v1062l-104 20q-18 3 -22 7.5t-4 20.5v28q0 16 5 21t21 5h348q16 0 21 -5t5 -21v-28q0 -16 -4.5 -20.5t-21.5 -7.5zM469 1390 q-35 0 -59 24t-24 59t24 59t59 24t59 -24t24 -59t-24 -59t-59 -24zM167 1390q-35 0 -59 24t-24 59t24 59t59 24t59 -24t24 -59t-24 -59t-59 -24z" />
<glyph unicode="&#x3ab;" horiz-adv-x="1074" d="M922 1266h100q33 0 33 -18q0 -7 -7 -21l-268 -525q-75 -150 -138 -291v-385q0 -16 -5 -21t-21 -5h-90q-16 0 -21 5t-5 21v385q-157 371 -364 740l-110 34q-16 4 -16 16v48q0 17 16 17h209q14 0 22 -14q167 -302 319 -684h4q45 117 137.5 324.5t169.5 348.5q15 25 35 25z M719 1390q-35 0 -59 24t-24 59t24 59t59 24t59 -24t24 -59t-24 -59t-59 -24zM417 1390q-35 0 -59 24t-24 59t24 59t59 24t59 -24t24 -59t-24 -59t-59 -24z" />
<glyph unicode="&#x3ac;" horiz-adv-x="1246" d="M942 2l-58 255q-216 -280 -464 -280q-84 0 -148 32t-102 88t-56.5 127.5t-18.5 156.5q0 252 121 410t319 158q72 0 131.5 -20t101 -52.5t75.5 -82.5t55.5 -101t41.5 -117q38 80 71 159l74 176q7 16 25 16h100q17 0 17 -17q0 -3 -2 -9q-72 -178 -145 -325 q-48 -96 -96 -173l76 -304l99 -34q10 -3 12 -5t2 -9v-41q0 -8 -12 -9l-199 -19q-7 0 -11 3t-5.5 6t-3.5 11zM442 90q208 0 407 310q-60 230 -128 334t-183 104q-88 0 -157 -60.5t-106 -163.5t-37 -228q0 -54 9 -102t30.5 -94t63.5 -73t101 -27zM705 1291q-63 -174 -76 -201 q-10 -22 -22 -22h-61q-14 0 -14 13q0 2 25 220q3 26 30 26h103q21 0 21 -14q0 -4 -6 -22z" />
<glyph unicode="&#x3ad;" horiz-adv-x="859" d="M435 -24q-152 0 -246 71.5t-94 193.5q0 173 189 235q-82 35 -126 91.5t-44 123.5q0 122 84.5 190t233.5 68q153 0 323 -63q13 -5 17.5 -9t4.5 -11l-13 -163q-2 -17 -17 -17h-43q-11 0 -16 17l-28 115q-93 28 -209 28q-95 0 -147 -45t-52 -122q0 -78 60 -117.5t173 -39.5 h90q7 0 11.5 -5.5t4.5 -11.5v-70q0 -17 -16 -17h-106q-112 0 -169.5 -42t-57.5 -118q0 -84 67 -131.5t152 -47.5q119 0 212 28l28 115q5 17 16 17h43q15 0 17 -17l13 -163q0 -11 -22 -20q-149 -63 -333 -63zM575 1291q-63 -174 -76 -201q-10 -22 -22 -22h-61q-14 0 -14 13 q0 2 25 220q3 26 30 26h103q21 0 21 -14q0 -4 -6 -22z" />
<glyph unicode="&#x3ae;" horiz-adv-x="1053" d="M920 -68q0 -225 11 -280q2 -8 5 -22l5 -24q2 -9 2 -10q0 -12 -19 -12h-87q-30 0 -38 72q-14 87 -14 285v715q0 181 -178 181q-144 0 -295 -143v-678q0 -16 -17 -16h-101q-17 0 -17 16v799l-105 27q-17 3 -17 18v45q0 14 17 16l203 20q15 0 16 -19l14 -116 q189 144 351 144q123 0 193.5 -68t70.5 -193v-757zM675 1291q-63 -174 -76 -201q-10 -22 -22 -22h-61q-14 0 -14 13q0 2 25 220q3 26 30 26h103q21 0 21 -14q0 -4 -6 -22z" />
<glyph unicode="&#x3af;" horiz-adv-x="598" d="M178 815l-106 27q-17 3 -17 18v45q0 14 17 16l225 23q16 0 16 -19v-649q0 -96 38.5 -142t119.5 -46q10 0 22.5 1t24.5 2.5t22 2.5l18 3l7 1q10 0 11 -12l7 -76q0 -12 -12 -15q-82 -18 -147 -18q-122 0 -184 72t-62 227v539zM365 1291q-63 -174 -76 -201q-10 -22 -22 -22 h-61q-14 0 -14 13q0 2 25 220q3 26 30 26h103q21 0 21 -14q0 -4 -6 -22z" />
<glyph unicode="&#x3b0;" horiz-adv-x="1034" d="M754 815l-105 27q-17 3 -17 18v45q0 14 17 16l204 20q17 0 21 -19q1 -3 9 -34.5t16.5 -69t18 -84.5t15.5 -99.5t6 -96.5q0 -562 -436 -562q-173 0 -272.5 105.5t-99.5 326.5q0 33 1 100.5t1 101.5q0 96 -11 209q-3 29 -11 89q0 17 17 17h106q14 0 17 -17q19 -119 19 -277 q0 -34 -2 -108t-2 -115q0 -322 238 -322q72 0 126 27t85.5 69.5t51 105t26 124t6.5 136.5q0 120 -45 267zM700 1073q-35 0 -59 24t-24 59t24 59t59 24t59 -24t24 -59t-24 -59t-59 -24zM288 1073q-35 0 -59 24t-24 59t24 59t59 24t59 -24t24 -59t-24 -59t-59 -24zM601 1291 q-63 -174 -76 -201q-10 -22 -22 -22h-61q-14 0 -14 13q0 2 25 220q3 26 30 26h103q21 0 21 -14q0 -4 -6 -22z" />
<glyph unicode="&#x3b1;" horiz-adv-x="1261" d="M942 2l-58 255q-216 -280 -464 -280q-84 0 -148 32t-102 88t-56.5 127.5t-18.5 156.5q0 252 121 410t319 158q72 0 131.5 -20t101 -52.5t75.5 -82.5t55.5 -101t41.5 -117q38 80 71 159l74 176q7 16 25 16h100q17 0 17 -17q0 -3 -2 -9q-72 -178 -145 -325 q-48 -96 -96 -173l76 -304l99 -34q10 -3 12 -5t2 -9v-41q0 -8 -12 -9l-199 -19q-7 0 -11 3t-5.5 6t-3.5 11zM442 90q208 0 407 310q-60 230 -128 334t-183 104q-88 0 -157 -60.5t-106 -163.5t-37 -228q0 -54 9 -102t30.5 -94t63.5 -73t101 -27z" />
<glyph unicode="&#x3b2;" horiz-adv-x="1086" d="M270 974v-1035q0 -231 11 -287q2 -8 5 -22l5 -24q2 -9 2 -10q0 -12 -19 -12h-87q-30 0 -38 72q-14 87 -14 285v1074q0 179 104 294.5t297 115.5q165 0 264 -80t99 -235q0 -98 -57 -181.5t-144 -134.5q137 -46 221.5 -159t84.5 -256q0 -71 -24 -140.5t-70 -129t-123 -96 t-172 -36.5q-149 0 -276 70q-8 4 -8 11q0 4 2 8l37 64q5 8 10 8q3 0 7 -2q98 -49 220 -49q117 0 185.5 87t68.5 208q0 136 -93.5 231t-239.5 113q-16 2 -16 17v77q0 16 16 16q87 4 158.5 87.5t71.5 180.5q0 91 -63.5 147.5t-158.5 56.5q-65 0 -113.5 -19.5t-77 -50.5 t-46 -76.5t-23.5 -90t-6 -97.5z" />
<glyph unicode="&#x3b3;" horiz-adv-x="1220" d="M1191 843l-109 -24q-274 -507 -405 -815v-393q0 -17 -5 -22t-22 -5h-81q-17 0 -22 5t-5 22v393q-134 316 -404 815l-109 24q-17 3 -17 18l-2 45q0 14 17 16l187 18q18 0 34 -28q91 -166 193.5 -383.5t164.5 -369.5h9q62 150 164.5 368.5t193.5 384.5q5 9 8 13.5t10 9 t16 4.5l186 -17q17 -2 17 -16l-2 -45q0 -15 -17 -18z" />
<glyph unicode="&#x3b4;" horiz-adv-x="1043" d="M765 1117l-28 115q-64 33 -145.5 58t-149.5 25q-49 0 -85 -22.5t-36 -70.5q0 -25 15 -52t45 -55.5t51.5 -46t58.5 -44.5l43 -31l88 -65l82 -66q53 -43 80.5 -73t64 -76.5t54.5 -88t31.5 -95.5t13.5 -111q0 -194 -117.5 -317.5t-312.5 -123.5q-184 0 -303.5 122 t-119.5 313q0 163 116 280.5t299 171.5q-14 11 -71.5 52.5t-87.5 65.5q-35 27 -60.5 50.5t-55 56.5t-45 70.5t-15.5 75.5q0 90 76.5 139.5t179.5 49.5t214 -34.5t199 -93.5q10 -6 10 -17l-13 -162q-2 -17 -17 -17h-43q-11 0 -16 17zM807 408q0 119 -53 209.5t-151 172.5 q-171 -36 -269.5 -139t-98.5 -237q0 -81 34 -155t103.5 -123.5t158.5 -49.5q127 0 201.5 91.5t74.5 230.5z" />
<glyph unicode="&#x3b5;" horiz-adv-x="861" d="M435 -24q-152 0 -246 71.5t-94 193.5q0 173 189 235q-82 35 -126 91.5t-44 123.5q0 122 84.5 190t233.5 68q153 0 323 -63q13 -5 17.5 -9t4.5 -11l-13 -163q-2 -17 -17 -17h-43q-11 0 -16 17l-28 115q-93 28 -209 28q-95 0 -147 -45t-52 -122q0 -78 60 -117.5t173 -39.5 h90q7 0 11.5 -5.5t4.5 -11.5v-70q0 -17 -16 -17h-106q-112 0 -169.5 -42t-57.5 -118q0 -84 67 -131.5t152 -47.5q119 0 212 28l28 115q5 17 16 17h43q15 0 17 -17l13 -163q0 -11 -22 -20q-149 -63 -333 -63z" />
<glyph unicode="&#x3b6;" horiz-adv-x="761" d="M105 419q0 130 71 282q56 120 147 239.5t199 210.5v4h-294l-29 -108q-5 -17 -16 -17h-43q-15 0 -17 17l-16 197q0 22 33 22h553q17 0 20 -13l19 -76q2 -8 2 -12q0 -9 -10 -15q-123 -74 -236 -203.5t-179 -264.5t-66 -231q0 -79 44 -135.5t148 -133.5q152 -109 191 -144 q52 -45 79.5 -89t27.5 -100q0 -48 -28.5 -97t-79.5 -90.5t-130.5 -69t-172.5 -31.5q-16 0 -16 17v70q0 21 21 24q35 4 67 12q77 17 138 63t61 98q0 37 -27 72.5t-70 67t-95 64.5t-104 71t-95 80t-70 99t-27 120z" />
<glyph unicode="&#x3b7;" horiz-adv-x="1059" d="M920 -68q0 -225 11 -280q2 -8 5 -22l5 -24q2 -9 2 -10q0 -12 -19 -12h-87q-30 0 -38 72q-14 87 -14 285v715q0 181 -178 181q-144 0 -295 -143v-678q0 -16 -17 -16h-101q-17 0 -17 16v799l-105 27q-17 3 -17 18v45q0 14 17 16l203 20q15 0 16 -19l14 -116 q189 144 351 144q123 0 193.5 -68t70.5 -193v-757z" />
<glyph unicode="&#x3b8;" horiz-adv-x="1110" d="M555 -24q-112 0 -197.5 55t-137.5 152t-78 221t-26 270q0 170 25.5 302.5t67 215t99.5 136.5t118.5 75t129.5 21q68 0 128 -21t118 -75t99.5 -136.5t67 -215.5t25.5 -302q0 -146 -26 -270t-78 -221t-137.5 -152t-197.5 -55zM555 86q58 0 109.5 32.5t94.5 98t68 176.5 t25 255v12h-594v-12q0 -144 25 -255t68 -176.5t94.5 -98t109.5 -32.5zM851 770q-6 120 -25.5 214.5t-47.5 155.5t-65 101t-75.5 56.5t-82.5 16.5t-82.5 -16.5t-75.5 -56.5t-65 -101t-47.5 -155.5t-25.5 -214.5h592z" />
<glyph unicode="&#x3b9;" horiz-adv-x="593" d="M178 815l-106 27q-17 3 -17 18v45q0 14 17 16l225 23q16 0 16 -19v-649q0 -96 38.5 -142t119.5 -46q10 0 22.5 1t24.5 2.5t22 2.5l18 3l7 1q10 0 11 -12l7 -76q0 -12 -12 -15q-82 -18 -147 -18q-122 0 -184 72t-62 227v539z" />
<glyph unicode="&#x3ba;" horiz-adv-x="964" d="M178 813l-106 27q-17 3 -17 18v45q0 14 17 16l225 23q16 0 16 -19v-394h119q27 0 49 10t36 21.5t30 39t22.5 42t21 52.5t19.5 50q81 194 290 194q22 0 22 -13v-83q0 -15 -24 -15q-63 0 -103 -30t-59.5 -75.5t-35.5 -92t-47 -86t-80 -52.5q47 -19 76.5 -57.5t40 -80.5 t24 -88t30 -81.5t58 -59t106.5 -23.5q18 0 18 -17v-74q0 -12 -4.5 -15t-15.5 -3q-125 0 -193.5 45.5t-101.5 145.5q-13 41 -21 63l-20 51q-12 30 -21.5 45t-23.5 32.5t-29 25.5t-35 13.5t-44 5.5h-104v-403q0 -16 -16 -16h-103q-16 0 -16 16v797z" />
<glyph unicode="&#x3bb;" horiz-adv-x="1049" d="M785 14l-233 782q-26 -14 -37 -44q-169 -435 -236 -572q-85 -174 -210 -196q-12 -2 -15 -2q-13 0 -17 16l-21 86q-1 5 -1 8q0 12 15 16q87 26 133 127q59 129 139.5 325.5t122.5 281.5q21 42 89 71l-20 65q-14 46 -22.5 70t-24 63.5t-32 63t-39 50.5t-52 44.5t-65.5 27.5 q-55 15 -130 15q-18 0 -19 15l-10 79q0 14 15 15q24 3 61 3q47 0 87 -5t75 -17.5t63 -26.5t54 -40.5t45.5 -50t40 -64t35.5 -74.5t34 -89t32 -99l35 -114q153 -513 233 -729l112 -28q17 -5 17 -16v-46q0 -14 -17 -17l-216 -17q-14 0 -21 23z" />
<glyph unicode="&#x3bc;" horiz-adv-x="1102" d="M161 -59v872l-106 27q-17 3 -17 18v45q0 14 17 16l225 23q16 0 16 -19v-650q16 -74 80.5 -127.5t140.5 -53.5q96 0 168 62.5t107 164.5v590q0 17 16 17h102q7 0 12 -5t5 -12v-639q0 -84 30.5 -128t96.5 -53q10 -1 10 -10q0 -1 -2 -10l-1 -9l-13 -65q-1 -9 -17 -9 q-108 3 -168 63q-42 44 -59 101q-103 -172 -287 -172q-135 0 -221 98v-137q0 -231 11 -287q2 -8 5 -22l5 -24q2 -9 2 -10q0 -12 -19 -12h-87q-30 0 -38 72q-14 87 -14 285z" />
<glyph unicode="&#x3bd;" horiz-adv-x="948" d="M450 269q3 -9 14 -45.5t19 -59.5t18 -45q134 274 270 776q8 31 30 31h101q24 0 24 -14q0 -7 -16 -56q-121 -389 -224 -612q-75 -162 -116 -228q-10 -16 -29 -16h-90q-21 0 -29 18q-12 24 -29 66.5t-28 73.5l-11 30q-94 258 -205 628l-110 24q-17 3 -17 18l-2 45 q0 14 17 16q115 11 210 19q15 0 18 -10q24 -78 50 -186q27 -113 135 -473z" />
<glyph unicode="&#x3be;" horiz-adv-x="820" d="M241 425q0 -53 34.5 -97.5t93.5 -91.5l54 -42q31 -24 86.5 -62t90.5 -64.5t73 -62t57 -74.5t19 -82q0 -48 -28.5 -97t-79.5 -90.5t-130.5 -69t-172.5 -31.5q-16 0 -16 17v70q0 19 17 23q8 2 32.5 6t38.5 7q77 17 138 63t61 98q0 29 -16.5 56.5t-50 54.5t-66.5 48l-82 53 q-50 32 -81 54q-46 32 -79.5 60.5t-66.5 66t-50 81.5t-17 92q0 101 54.5 189t174.5 140v4q-199 66 -199 253q0 93 58 161t146 100t191 32q111 0 197 -27q11 -3 11 -16l-20 -165q-2 -17 -17 -17h-43q-11 0 -16 17l-29 108q-31 6 -62 6q-69 0 -132 -21.5t-107 -68t-44 -109.5 q0 -107 82 -153t272 -46q17 0 17 -16v-73q0 -16 -17 -16q-52 0 -102 -8t-100.5 -28t-88.5 -50t-61.5 -77t-23.5 -105z" />
<glyph unicode="&#x3bf;" horiz-adv-x="1037" d="M95 475q0 143 43.5 247.5t139.5 166t237 61.5q207 0 317 -129.5t110 -345.5q0 -121 -27.5 -213.5t-69 -145t-99.5 -85.5t-110 -44t-110 -11q-57 0 -110 11t-113.5 44t-104.5 85.5t-73.5 145t-29.5 213.5zM235 472q0 -388 290 -388q44 0 80 8.5t73 34t62.5 67t41.5 112.5 t16 166q0 366 -284 366q-151 0 -215 -96t-64 -270z" />
<glyph unicode="&#x3c0;" horiz-adv-x="1119" d="M839 815v-539q0 -96 38 -141t120 -45q10 0 21.5 1t22 2.5t19.5 2.5l15 3l6 1q10 0 11 -12l7 -76q0 -11 -12 -15q-82 -18 -137 -18q-122 0 -184 71t-62 226v539h-306q0 -173 -32 -388.5t-94 -401.5q-8 -25 -23 -25h-101q-17 0 -17 10q0 5 4 17q61 181 94 394t33 380v12 q-44 -1 -79.5 -9t-53.5 -16t-43 -23q-6 -3 -10 -3q-9 0 -12 8l-25 76q-1 4 -1 7q0 9 9 15q43 27 97.5 42.5t148.5 15.5h728q16 0 16 -17v-78q0 -16 -16 -16h-182z" />
<glyph unicode="&#x3c1;" horiz-adv-x="1070" d="M263 214q131 -131 288 -131q107 0 176 60q104 89 104 327q0 172 -69.5 270t-219.5 98q-64 0 -113 -22.5t-80 -61t-50.5 -95t-27.5 -120t-8 -140.5v-185zM127 -59l1 467q2 542 415 542q207 0 319.5 -130.5t112.5 -346.5q0 -327 -197 -442q-95 -55 -210 -55 q-160 0 -306 119v-156q0 -231 11 -287q2 -8 5 -22l5 -24q2 -9 2 -10q0 -12 -19 -12h-87q-30 0 -38 72q-14 87 -14 285z" />
<glyph unicode="&#x3c2;" horiz-adv-x="852" d="M233 464q0 -37 9.5 -69t23.5 -56.5t39 -47.5t46.5 -38.5t56 -33.5t58.5 -28l62 -27l58 -25q8 -4 31.5 -14t34 -15t30.5 -16t29.5 -21t21 -24t16.5 -31.5t5 -38.5q0 -35 -29.5 -131t-51.5 -130q-8 -12 -15 -12q-3 0 -7 1l-74 22q-7 2 -7 10q0 5 9 36q32 113 32 167 q0 27 -14 47t-55 39q-17 8 -65 28l-90 40q-42 19 -77 37q-109 55 -164.5 132.5t-55.5 198.5q0 218 122 352t321 134q102 0 270 -52q11 -3 11 -16l-13 -163q-1 -16 -17 -16h-43q-11 0 -16 17l-29 108q-69 16 -163 16q-135 0 -217.5 -105t-82.5 -275z" />
<glyph unicode="&#x3c3;" horiz-adv-x="1086" d="M1024 950q17 0 17 -20v-74q0 -18 -21 -18l-217 8q147 -118 147 -361q0 -121 -27.5 -214.5t-70 -147.5t-100.5 -88.5t-111 -46.5t-110 -12q-56 0 -110.5 12t-115 46.5t-105.5 88.5t-75 147.5t-30 214.5q0 215 109 340t324 125h496zM235 482q0 -95 18 -167t46.5 -115 t69 -70t79 -36.5t82.5 -9.5q278 0 278 398q0 356 -289 356q-152 0 -218 -92t-66 -264z" />
<glyph unicode="&#x3c4;" horiz-adv-x="753" d="M410 814v-538q0 -96 38.5 -142.5t119.5 -46.5q10 0 22.5 1t24.5 2.5t22 3.5l18 2l7 1q10 0 11 -12l7 -76q0 -12 -12 -15q-82 -18 -147 -18q-122 0 -184 72.5t-62 227.5v538h-232q-16 0 -16 16v79q0 17 16 17h649q16 0 16 -17v-79q0 -16 -16 -16h-282z" />
<glyph unicode="&#x3c5;" horiz-adv-x="1034" d="M754 815l-105 27q-17 3 -17 18v45q0 14 17 16l204 20q17 0 21 -19q1 -3 9 -34.5t16.5 -69t18 -84.5t15.5 -99.5t6 -96.5q0 -562 -436 -562q-173 0 -272.5 105.5t-99.5 326.5q0 33 1 100.5t1 101.5q0 96 -11 209q-3 29 -11 89q0 17 17 17h106q14 0 17 -17q19 -119 19 -277 q0 -34 -2 -108t-2 -115q0 -322 238 -322q72 0 126 27t85.5 69.5t51 105t26 124t6.5 136.5q0 120 -45 267z" />
<glyph unicode="&#x3c6;" horiz-adv-x="1370" d="M751 1058v-107q70 -1 134.5 -11.5t138.5 -42.5t127 -82t88.5 -137.5t35.5 -202.5q0 -469 -524 -499v-376q0 -7 -5.5 -11.5t-11.5 -4.5h-101q-7 0 -12 5t-5 11v375q-47 2 -90.5 8t-97.5 20.5t-99 37t-90 61t-75.5 88t-49.5 121.5t-19 159q0 171 90.5 294.5t217.5 157.5 q8 2 12 2q7 0 11 -12l24 -69q1 -4 1 -7q0 -6 -7 -9q-97 -38 -154.5 -135t-57.5 -209q0 -98 24.5 -171.5t61 -115t91 -67.5t101.5 -35t106 -12v976q0 18 17 18h101q17 0 17 -18zM1138 473q0 92 -26 161.5t-64.5 108t-93.5 62.5t-102 31.5t-101 8.5v-763q64 4 116 15.5t104 39 t87.5 69.5t57.5 110t22 157z" />
<glyph unicode="&#x3c7;" horiz-adv-x="1123" d="M144 819l-109 24q-17 3 -17 18l-2 45q0 14 17 16l185 18q20 0 37 -27l336 -597h5q16 37 316 592q11 18 31 18h111q16 0 16 -10q0 -3 -6 -14l-391 -687q175 -300 268 -416q73 -90 154 -100q16 -2 17 -18q6 -81 6 -88q0 -22 -29 -22q-139 0 -252 153q-71 94 -224 354 q-19 35 -21 40h-6q-2 -5 -21 -40q-153 -260 -224 -354q-113 -153 -252 -153q-16 0 -22.5 3.5t-6.5 16.5q0 9 6 90q1 16 17 18q81 10 154 100q96 120 266 420z" />
<glyph unicode="&#x3c8;" horiz-adv-x="1391" d="M763 -21v-379q0 -7 -5.5 -11.5t-11.5 -4.5h-101q-17 0 -17 16v379q-214 2 -340.5 133.5t-126.5 367.5v333l-106 27q-17 3 -17 18v45q0 15 17 17l225 22q16 0 16 -19v-443q0 -192 89 -289.5t243 -100.5v968q0 18 17 18h101q17 0 17 -18v-968q154 3 243 100.5t89 289.5v443 q0 19 16 19l225 -22q17 -2 17 -17v-45q0 -15 -17 -18l-106 -27v-333q0 -236 -126.5 -367.5t-340.5 -133.5z" />
<glyph unicode="&#x3c9;" horiz-adv-x="1469" d="M738 109h-7q-92 -131 -249 -131q-83 0 -150 33t-110.5 86t-72.5 123.5t-41.5 142t-12.5 145.5q0 108 24.5 236t40.5 178q6 19 21 19l204 -20q17 -2 17 -16v-45q0 -15 -17 -18l-105 -27q-47 -122 -47 -297q0 -70 11 -138t36.5 -138t77 -113t122.5 -43q187 0 187 325v135 q0 8 5 12.5t12 4.5h101q7 0 12 -4.5t5 -12.5v-135q0 -325 187 -325q71 0 122.5 43t77 113t36.5 138t11 138q0 175 -47 297l-105 27q-17 3 -17 18v45q0 14 17 16l204 20q15 0 21 -19q16 -50 40.5 -178t24.5 -236q0 -74 -12.5 -145.5t-41.5 -142t-72.5 -123.5t-110.5 -86 t-150 -33q-157 0 -249 131z" />
<glyph unicode="&#x3ca;" horiz-adv-x="652" d="M182 815l-106 27q-17 3 -17 18v45q0 14 17 16l225 23q16 0 16 -19v-649q0 -96 38.5 -142t119.5 -46q10 0 22.5 1t24.5 2.5t22 2.5l18 3l7 1q10 0 11 -12l7 -76q0 -12 -12 -15q-82 -18 -147 -18q-122 0 -184 72t-62 227v539zM387 1073q-35 0 -59 24t-24 59t24 59t59 24 t59 -24t24 -59t-24 -59t-59 -24zM85 1073q-35 0 -59 24t-24 59t24 59t59 24t59 -24t24 -59t-24 -59t-59 -24z" />
<glyph unicode="&#x3cb;" horiz-adv-x="1034" d="M754 815l-105 27q-17 3 -17 18v45q0 14 17 16l204 20q17 0 21 -19q1 -3 9 -34.5t16.5 -69t18 -84.5t15.5 -99.5t6 -96.5q0 -562 -436 -562q-173 0 -272.5 105.5t-99.5 326.5q0 33 1 100.5t1 101.5q0 96 -11 209q-3 29 -11 89q0 17 17 17h106q14 0 17 -17q19 -119 19 -277 q0 -34 -2 -108t-2 -115q0 -322 238 -322q72 0 126 27t85.5 69.5t51 105t26 124t6.5 136.5q0 120 -45 267zM659 1073q-35 0 -59 24t-24 59t24 59t59 24t59 -24t24 -59t-24 -59t-59 -24zM357 1073q-35 0 -59 24t-24 59t24 59t59 24t59 -24t24 -59t-24 -59t-59 -24z" />
<glyph unicode="&#x3cc;" horiz-adv-x="1037" d="M95 475q0 143 43.5 247.5t139.5 166t237 61.5q207 0 317 -129.5t110 -345.5q0 -121 -27.5 -213.5t-69 -145t-99.5 -85.5t-110 -44t-110 -11q-57 0 -110 11t-113.5 44t-104.5 85.5t-73.5 145t-29.5 213.5zM235 472q0 -388 290 -388q44 0 80 8.5t73 34t62.5 67t41.5 112.5 t16 166q0 366 -284 366q-151 0 -215 -96t-64 -270zM635 1291q-63 -174 -76 -201q-10 -22 -22 -22h-61q-14 0 -14 13q0 2 25 220q3 26 30 26h103q21 0 21 -14q0 -4 -6 -22z" />
<glyph unicode="&#x3cd;" horiz-adv-x="1034" d="M754 815l-105 27q-17 3 -17 18v45q0 14 17 16l204 20q17 0 21 -19q1 -3 9 -34.5t16.5 -69t18 -84.5t15.5 -99.5t6 -96.5q0 -562 -436 -562q-173 0 -272.5 105.5t-99.5 326.5q0 33 1 100.5t1 101.5q0 96 -11 209q-3 29 -11 89q0 17 17 17h106q14 0 17 -17q19 -119 19 -277 q0 -34 -2 -108t-2 -115q0 -322 238 -322q72 0 126 27t85.5 69.5t51 105t26 124t6.5 136.5q0 120 -45 267zM615 1291q-63 -174 -76 -201q-10 -22 -22 -22h-61q-14 0 -14 13q0 2 25 220q3 26 30 26h103q21 0 21 -14q0 -4 -6 -22z" />
<glyph unicode="&#x3ce;" horiz-adv-x="1469" d="M738 109h-7q-92 -131 -249 -131q-83 0 -150 33t-110.5 86t-72.5 123.5t-41.5 142t-12.5 145.5q0 108 24.5 236t40.5 178q6 19 21 19l204 -20q17 -2 17 -16v-45q0 -15 -17 -18l-105 -27q-47 -122 -47 -297q0 -70 11 -138t36.5 -138t77 -113t122.5 -43q187 0 187 325v135 q0 8 5 12.5t12 4.5h101q7 0 12 -4.5t5 -12.5v-135q0 -325 187 -325q71 0 122.5 43t77 113t36.5 138t11 138q0 175 -47 297l-105 27q-17 3 -17 18v45q0 14 17 16l204 20q15 0 21 -19q16 -50 40.5 -178t24.5 -236q0 -74 -12.5 -145.5t-41.5 -142t-72.5 -123.5t-110.5 -86 t-150 -33q-157 0 -249 131zM875 1291q-63 -174 -76 -201q-10 -22 -22 -22h-61q-14 0 -14 13q0 2 25 220q3 26 30 26h103q21 0 21 -14q0 -4 -6 -22z" />
<glyph unicode="&#x401;" horiz-adv-x="966" d="M87 1266h793q16 0 21 -5t5 -21v-58q0 -16 -5 -21t-21 -5h-546v-424h400q16 0 21 -5t5 -21v-58q0 -16 -5 -21t-21 -5h-400v-512h546q16 0 21 -5t5 -21v-58q0 -16 -5 -21t-21 -5h-661q-17 0 -21.5 5t-4.5 21v1115l-106 44q-16 6 -16 16v48q0 17 16 17zM689 1393 q-35 0 -59 24t-24 59t24 59t59 24t59 -24t24 -59t-24 -59t-59 -24zM387 1393q-35 0 -59 24t-24 59t24 59t59 24t59 -24t24 -59t-24 -59t-59 -24z" />
<glyph unicode="&#x402;" horiz-adv-x="1270" d="M41 1266h894q18 0 18 -21l-8 -204q0 -16 -17 -16h-48q-10 0 -16 16l-34 115h-272v-455q73 57 160 91t172 34q127 0 195.5 -72t68.5 -204v-582q0 -361 -289 -383q-18 0 -20 11l-17 84q0 13 13 14q91 14 131.5 71t40.5 196v569q0 99 -37.5 144t-127.5 45q-68 0 -150 -33.5 t-140 -82.5v-577q0 -16 -5 -21t-21 -5h-88q-17 0 -22 5t-5 21v1130h-272l-34 -115q-6 -16 -16 -16h-48q-17 0 -17 16l-7 204q0 21 18 21z" />
<glyph unicode="&#x403;" horiz-adv-x="811" d="M679 1156h-323q-36 0 -52 -9t-16 -34v-1087q0 -16 -5 -21t-21 -5h-89q-17 0 -21.5 5t-4.5 23v1107q0 69 38.5 100t124.5 31h473q18 0 18 -21l-7 -204q0 -16 -17 -16h-48q-10 0 -16 16zM577 1612h133q15 0 15 -10q0 -11 -25 -34l-173 -158q-21 -21 -44 -21h-85 q-13 0 -13 8q0 9 12 23l128 165q15 19 24 23t28 4z" />
<glyph unicode="&#x404;" horiz-adv-x="999" d="M241 678h425q6 0 11 -5t5 -11v-78q0 -6 -4 -11t-10 -5h-428q8 -225 138 -354t352 -129q32 0 92 11l47 125q6 16 16 16h48q17 0 17 -16v-188q0 -14 -20 -21q-63 -17 -112 -25q-74 -11 -122 -11q-279 0 -441 170t-162 474q0 307 159 488t434 181q48 0 122 -11 q49 -8 112 -25q20 -7 20 -21v-188q0 -16 -17 -16h-48q-10 0 -16 16l-47 125q-60 11 -92 11q-212 0 -338.5 -139t-140.5 -363z" />
<glyph unicode="&#x405;" horiz-adv-x="1002" d="M181 243l32 -115q133 -35 227 -35q58 0 109.5 11t100 36t77 72.5t28.5 112.5q0 29 -8.5 55.5t-20 46t-34.5 40t-40.5 33t-51 29.5t-52.5 25l-57 26l-56 24q-137 61 -190 100q-127 93 -128 245q0 88 35 155.5t95.5 107t135.5 59t162 19.5q142 0 294 -40q16 -4 16 -21v-182 q0 -16 -15 -16h-50q-10 0 -16 16l-39 115q-100 20 -180 20q-139 0 -214 -57t-75 -169q0 -36 14.5 -67t34.5 -52t57 -44t64 -35l74 -34q129 -56 206 -100.5t120 -92t57 -92.5t14 -112q0 -93 -34.5 -161.5t-96.5 -109t-141 -59.5t-175 -19q-184 0 -354 61q-16 5 -16 21l10 183 q0 16 17 16h48q12 0 16 -16z" />
<glyph unicode="&#x406;" horiz-adv-x="608" d="M478 1184l-103 -20v-1062l103 -20q18 -3 22 -7.5t4 -20.5v-28q0 -16 -5 -21t-21 -5h-348q-16 0 -21 5t-5 21v28q0 16 4 20.5t22 7.5l104 20v1062l-104 20q-18 3 -22 7.5t-4 20.5v28q0 16 5 21t21 5h348q16 0 21 -5t5 -21v-28q0 -16 -4.5 -20.5t-21.5 -7.5z" />
<glyph unicode="&#x407;" horiz-adv-x="632" d="M478 1184l-103 -20v-1062l103 -20q18 -3 22 -7.5t4 -20.5v-28q0 -16 -5 -21t-21 -5h-348q-16 0 -21 5t-5 21v28q0 16 4 20.5t22 7.5l104 20v1062l-104 20q-18 3 -22 7.5t-4 20.5v28q0 16 5 21t21 5h348q16 0 21 -5t5 -21v-28q0 -16 -4.5 -20.5t-21.5 -7.5zM467 1393 q-35 0 -59 24t-24 59t24 59t59 24t59 -24t24 -59t-24 -59t-59 -24zM165 1393q-35 0 -59 24t-24 59t24 59t59 24t59 -24t24 -59t-24 -59t-59 -24z" />
<glyph unicode="&#x408;" horiz-adv-x="634" d="M344 1156h-318q-6 0 -11 5t-5 11v78q0 6 5 11t11 5h443q6 0 11 -5t5 -11v-1233q0 -128 -28 -191q-27 -61 -77 -88t-132 -27q-76 0 -165 32q-18 6 -18 20q0 1 2 12.5t5.5 30t5.5 31.5q2 16 17 16q2 0 25.5 -5.5t55 -11.5t52.5 -6q33 0 56 10.5t34.5 24.5t17.5 41t7 46 t1 54v1150z" />
<glyph unicode="&#x409;" horiz-adv-x="1598" d="M798 1155h-222q-87 0 -129 -33.5t-46 -122.5q-20 -540 -52 -744q-19 -118 -88.5 -191t-176.5 -73q-28 0 -41 3t-15 6t-2 11v78q0 11 18 12q25 1 46 8t37 16.5t29.5 27t22.5 32.5t16.5 42t12 46.5t9 54.5t6.5 57l6 63q10 111 29 541q6 141 75 209t239 68h358q35 0 35 -32 v-516h178q214 0 318.5 -86.5t104.5 -271.5q0 -360 -425 -360h-291q-16 0 -21 5t-5 21v1103q0 17 -5 21.5t-21 4.5zM1145 608h-180v-498h182q127 0 201.5 66t74.5 188t-72.5 183t-205.5 61z" />
<glyph unicode="&#x40a;" horiz-adv-x="1710" d="M933 602h-593v-576q0 -16 -5 -21t-21 -5h-89q-17 0 -21.5 5t-4.5 21v1123l-112 34q-16 4 -16 16v48q0 17 16 17h227q16 0 21 -5t5 -22v-524h593v525q0 16 4.5 21t21.5 5h89q16 0 21 -5t5 -21v-520h178q214 0 318.5 -86.5t104.5 -271.5q0 -360 -425 -360h-291 q-17 0 -21.5 5t-4.5 21v576zM1254 607h-180v-497h182q127 0 201.5 66t74.5 188t-72 182.5t-206 60.5z" />
<glyph unicode="&#x40b;" horiz-adv-x="1292" d="M1104 115l112 -34q16 -4 16 -16v-48q0 -17 -16 -17h-227q-16 0 -21 5t-5 22v503q0 99 -37.5 144t-127.5 45q-59 0 -130 -25.5t-128 -65.5v-602q0 -16 -5 -21t-21 -5h-88q-17 0 -22 5t-5 21v1130h-272l-34 -115q-6 -16 -16 -16h-48q-17 0 -17 16l-7 204q0 21 18 21h893 q18 0 18 -21l-7 -204q0 -16 -17 -16h-48q-10 0 -16 16l-34 115h-272v-432q146 102 300 102q127 0 195.5 -72t68.5 -204v-435z" />
<glyph unicode="&#x40c;" horiz-adv-x="1133" d="M615 660q64 -20 110 -70t65.5 -97t46.5 -124.5t44 -112.5q43 -92 84.5 -125t115.5 -33q17 0 21.5 -5t4.5 -21v-58q0 -16 -4.5 -21t-21.5 -5q-113 0 -179.5 32.5t-120.5 124.5q-22 36 -42 90t-33 99t-37 93t-52.5 81t-79 54.5t-118.5 21.5h-78v-558q0 -16 -4.5 -21 t-21.5 -5h-89q-17 0 -21.5 5t-4.5 23v1123l-112 34q-16 4 -16 16v48q0 17 16 17h227q16 0 21 -5t5 -22v-545h101q103 0 160 111q21 40 40.5 97.5t32 101.5t36 93t52.5 83t80.5 60.5t121.5 35.5q27 4 70 4q12 0 16.5 -4.5t4.5 -19.5v-61q0 -16 -4 -21t-17 -5q-31 0 -59 -6 q-47 -11 -82.5 -43.5t-58.5 -80t-39 -93.5l-36 -102q-19 -55 -36 -87q-37 -73 -109 -97zM677 1612h133q15 0 15 -10q0 -11 -25 -34l-173 -158q-21 -21 -44 -21h-85q-13 0 -13 8q0 9 12 23l128 165q15 19 24 23t28 4z" />
<glyph unicode="&#x40d;" horiz-adv-x="1325" d="M199 1151l-112 34q-16 4 -16 16v48q0 17 16 17h226q16 0 22 -6t6 -23v-1122q24 9 52.5 48t73.5 132l454 944q13 27 33 27h146q16 0 21 -5t5 -21v-1125l112 -34q16 -4 16 -16v-48q0 -17 -16 -17h-226q-16 0 -21.5 5.5t-5.5 22.5v1077q0 -1 -4.5 -12.5t-18.5 -42t-37 -76.5 q-44 -87 -155.5 -326.5t-192 -397.5t-120.5 -198q-38 -38 -83.5 -55t-125.5 -17q-25 0 -36.5 4t-12.5 18v1149zM422 1615h133q19 0 28 -4t24 -23l128 -165q13 -15 13 -23t-14 -8h-85q-23 0 -44 21l-173 158q-26 24 -26 34t16 10z" />
<glyph unicode="&#x40e;" horiz-adv-x="1024" d="M675 208q-49 -118 -123 -172.5t-206 -54.5q-90 0 -154 19q-17 5 -17 20q0 5 18 76q4 17 20 17l18 -3q18 -4 48.5 -7t61.5 -3q56 0 97.5 18.5t70 57.5t45.5 76.5t38 98.5l20 60h-99q-177 0 -237 141q-18 42 -43 142l-60 247q-35 147 -53 217l-87 27q-16 4 -16 16v48 q0 17 16 17h209q20 0 23 -24q19 -132 65.5 -358.5t73.5 -285.5q33 -73 172 -73q14 0 39.5 0.5t34.5 0.5q118 375 201 722q3 11 8 14.5t16 3.5h110q24 0 24 -12q0 -3 -1 -7q-181 -671 -333 -1039zM574 1487q39 0 66.5 24t40.5 51q7 13 13 13q4 0 9 -2l72 -28q11 -5 11 -13 q0 -10 -10 -32q-23 -51 -75 -86.5t-127 -35.5t-127 35.5t-75 86.5q-10 22 -10 32q0 8 11 13l72 28q5 2 9 2q6 0 13 -13q13 -27 40.5 -51t66.5 -24z" />
<glyph unicode="&#x40f;" horiz-adv-x="1283" d="M464 0q-120 0 -192.5 80t-72.5 218v853l-112 34q-16 4 -16 16v48q0 17 16 17h227q16 0 21 -5t5 -21v-956q0 -100 44 -136t129 -36h257q85 0 129 36t44 136v956q0 16 4.5 21t21.5 5h227q16 0 16 -17v-48q0 -12 -16 -16l-112 -34v-853q0 -138 -72.5 -218t-192.5 -80h-109 v-249q0 -17 -5 -24t-21 -7h-84q-25 0 -27 29v251h-109z" />
<glyph unicode="&#x410;" horiz-adv-x="1118" d="M788 454l-217 711l-236 -711h453zM439 1158l-87 28q-16 6 -16 16v48q0 6 5 11t11 5h297q17 0 22 -16l396 -1228q2 -6 2 -9q0 -5 -5 -9t-10 -4h-118q-14 0 -18 16l-98 328h-519l-103 -328q-4 -16 -18 -16h-116q-16 0 -16 12q0 3 3 12z" />
<glyph unicode="&#x411;" horiz-adv-x="996" d="M306 1266h538q18 0 18 -21l-7 -204q0 -16 -17 -16h-48q-10 0 -16 16l-34 115h-395q-31 0 -44 -8.5t-13 -31.5v-396h183q453 0 453 -347q0 -234 -182 -327q-88 -46 -300 -46h-269q-17 0 -21.5 5t-4.5 21v1112q0 68 39 98t120 30zM317 111q135 -1 168 -1q132 0 207.5 67.5 t75.5 190.5q0 124 -72.5 183t-221.5 59h-186v-477q0 -11 3 -15.5t8 -5.5t18 -1z" />
<glyph unicode="&#x412;" horiz-adv-x="1111" d="M537 1162l-203 -2v-430h185q116 0 206 65.5t90 160.5q0 49 -14.5 86t-38.5 59.5t-60.5 36.5t-75.5 19t-89 5zM511 618h-178v-514q3 0 19 -2t34 -3.5t53.5 -3t75.5 -1.5q72 0 131 14t107.5 44.5t76 84.5t27.5 127q0 116 -91.5 185t-254.5 69zM87 1266l261 5q156 3 165 3 q58 0 104 -3.5t101 -13.5t95.5 -31t75.5 -52.5t53.5 -81.5t18.5 -115q0 -107 -60 -181t-167 -104q-24 -6 -27 -6l26 -6q135 -42 204.5 -123.5t69.5 -212.5q0 -174 -126 -268t-367 -94q-82 0 -155.5 4.5t-106.5 9.5l-33 4q-11 2 -15 3.5t-7.5 6.5t-3.5 16v1115l-106 44 q-16 6 -16 16v48q0 17 16 17z" />
<glyph unicode="&#x413;" horiz-adv-x="811" d="M679 1156h-323q-36 0 -52 -9t-16 -34v-1087q0 -16 -5 -21t-21 -5h-89q-17 0 -21.5 5t-4.5 23v1107q0 69 38.5 100t124.5 31h473q18 0 18 -21l-7 -204q0 -16 -17 -16h-48q-10 0 -16 16z" />
<glyph unicode="&#x414;" horiz-adv-x="1212" d="M620 1266h378q35 0 35 -32v-1122h113q15 0 20.5 -6t5.5 -19v-336q0 -17 -5 -24t-21 -7h-84q-26 0 -26 29v251h-856v-251q0 -29 -26 -29h-84q-16 0 -21 6.5t-5 23.5v346q0 22 17 25q64 15 103.5 45.5t64.5 94.5q45 111 66 474q0 4 1 32.5t4 90.5t6 131q4 70 20 118.5 t51 85.5t95.5 55t147.5 18zM449 999q-7 -133 -7 -180q-24 -444 -68 -579q-30 -91 -96 -124v-4h614v1018q0 15 -3 20t-14 5h-251q-86 0 -128 -33.5t-47 -122.5z" />
<glyph unicode="&#x415;" horiz-adv-x="966" d="M87 1266h793q16 0 21 -5t5 -21v-58q0 -16 -5 -21t-21 -5h-546v-424h400q16 0 21 -5t5 -21v-58q0 -16 -5 -21t-21 -5h-400v-512h546q16 0 21 -5t5 -21v-58q0 -16 -5 -21t-21 -5h-661q-17 0 -21.5 5t-4.5 21v1115l-106 44q-16 6 -16 16v48q0 17 16 17z" />
<glyph unicode="&#x416;" horiz-adv-x="1687" d="M888 0h-87q-17 0 -22.5 5t-5.5 21v558h-58q-68 0 -118.5 -21.5t-79 -54.5t-52.5 -81t-37 -93t-33 -99t-42 -90q-54 -92 -120.5 -124.5t-179.5 -32.5q-17 0 -21.5 5t-4.5 21v58q0 16 4.5 21t21.5 5q74 0 115.5 33t84.5 125q16 33 35.5 90t35.5 99t41 87.5t64 78.5t91 49 q-29 9 -52 27t-37 35.5t-27 46.5t-19.5 48t-16 52.5t-14.5 48.5l-20 56q-6 19 -19 51.5t-24.5 48.5t-30 37.5t-38.5 32t-48 18t-62 7.5h-34q-16 0 -21 4.5t-5 21.5v61q0 16 4.5 20t21.5 4q219 0 303 -96q44 -50 76 -163l9 -31q16 -60 29.5 -100t32 -80.5t39 -63.5t48 -37.5 t60.5 -14.5h98v546q0 16 5.5 21t22.5 5h85q17 0 22.5 -5t5.5 -21v-546h98q33 0 60.5 14.5t48 37.5t39 63.5t32 80.5t29.5 100q32 117 62 163q63 99 217 120q49 7 109 7q17 0 21.5 -4t4.5 -20v-61q0 -17 -4.5 -21.5t-21.5 -4.5h-34q-34 0 -62 -7.5t-48 -18t-38.5 -32 t-30 -37.5t-24.5 -48.5t-20 -51.5l-19 -56q-5 -15 -14.5 -48.5t-16 -52.5t-19.5 -48t-27 -46.5t-37 -35.5t-52 -27q52 -16 91 -49t64 -78.5t41 -87.5t35.5 -99t35.5 -90q43 -92 84.5 -125t115.5 -33q16 0 21 -5t5 -21v-58q0 -16 -5 -21t-21 -5q-113 0 -179.5 32.5 t-120.5 124.5q-22 36 -42 90t-33 99t-37 93t-52.5 81t-79 54.5t-118.5 21.5h-58v-558q0 -16 -5 -21t-21 -5z" />
</font>
</defs>
</svg>
